999
dxfrw 0.5.10
0
SECTION
2
HEADER
9
$ACADVER
1
AC1021
9
$HANDSEED
5
20000
9
$DWGCODEPAGE
3
ANSI_1252
9
$INSBASE
10
0
20
0
30
0
9
$EXTMIN
10
3.00000000008
20
-32.76584
30
0
9
$EXTMAX
10
473.7277859
20
152.459323212
30
0
9
$LIMMIN
10
0
20
0
9
$LIMMAX
10
420
20
297
9
$ORTHOMODE
70
0
9
$LTSCALE
40
1
9
$TEXTSTYLE
7
STANDARD
9
$CLAYER
8
dimensions
9
$DIMASZ
40
2.5
9
$DIMLFAC
40
1
9
$DIMSCALE
40
1
9
$DIMEXO
40
0.625
9
$DIMEXE
40
1.25
9
$DIMTXT
40
2.5
9
$DIMTSZ
40
0
9
$DIMAUNIT
70
0
9
$DIMADEC
70
0
9
$DIMLUNIT
70
2
9
$DIMSTYLE
2
STANDARD
9
$DIMGAP
40
0.625
9
$DIMTIH
70
0
9
$LUNITS
70
2
9
$LUPREC
70
4
9
$AUNITS
70
0
9
$AUPREC
70
2
9
$SPLINESEGS
70
8
9
$GRIDMODE
70
1
9
$SNAPSTYLE
70
0
9
$PINSBASE
10
0
20
0
30
0
9
$PLIMMIN
10
0
20
0
9
$PLIMMAX
10
297
20
210
9
$INSUNITS
70
4
9
$PSVPSCALE
40
1
0
ENDSEC
0
SECTION
2
CLASSES
0
ENDSEC
0
SECTION
2
TABLES
0
TABLE
2
VPORT
5
8
330
0
100
AcDbSymbolTable
70
1
0
VPORT
5
31
330
2
100
AcDbSymbolTableRecord
100
AcDbViewportTableRecord
2
*ACTIVE
70
0
10
0
20
0
11
1
21
1
12
432.014465344
22
175.476074223
13
0
23
0
14
10
24
10
15
10
25
10
16
0
26
0
36
1
17
0
27
0
37
0
40
699.996948261
41
2.10626702997
42
50
43
0
44
0
50
0
51
0
71
0
72
100
73
1
74
3
75
0
76
1
77
0
78
0
281
0
65
1
110
0
120
0
130
0
111
1
121
0
131
0
112
0
122
1
132
0
79
0
146
0
348
10020
60
7
61
5
292
1
282
1
141
0
142
0
63
250
421
3358443
0
ENDTAB
0
TABLE
2
LTYPE
5
5
330
0
100
AcDbSymbolTable
70
4
0
LTYPE
5
14
330
5
100
AcDbSymbolTableRecord
100
AcDbLinetypeTableRecord
2
ByBlock
70
0
3

72
65
73
0
40
0
0
LTYPE
5
15
330
5
100
AcDbSymbolTableRecord
100
AcDbLinetypeTableRecord
2
ByLayer
70
0
3

72
65
73
0
40
0
0
LTYPE
5
16
330
5
100
AcDbSymbolTableRecord
100
AcDbLinetypeTableRecord
2
Continuous
70
0
3
Solid line
72
65
73
0
40
0
0
LTYPE
5
32
330
5
100
AcDbSymbolTableRecord
100
AcDbLinetypeTableRecord
2
DOT
70
0
3
Dot . . . . . . . . . . . . . . . . . . . . . .
72
65
73
2
40
6.35
49
0
74
0
49
-6.35
74
0
0
LTYPE
5
33
330
5
100
AcDbSymbolTableRecord
100
AcDbLinetypeTableRecord
2
DOT2
70
0
3
Dot (.5x) .....................................
72
65
73
2
40
3.175
49
0
74
0
49
-3.175
74
0
0
LTYPE
5
34
330
5
100
AcDbSymbolTableRecord
100
AcDbLinetypeTableRecord
2
DOTX2
70
0
3
Dot (2x) .  .  .  .  .  .  .  .  .  .  .  .  .
72
65
73
2
40
12.7
49
0
74
0
49
-12.7
74
0
0
LTYPE
5
35
330
5
100
AcDbSymbolTableRecord
100
AcDbLinetypeTableRecord
2
DASHED
70
0
3
Dot . . . . . . . . . . . . . . . . . . . . . .
72
65
73
2
40
19.05
49
12.7
74
0
49
-6.35
74
0
0
LTYPE
5
36
330
5
100
AcDbSymbolTableRecord
100
AcDbLinetypeTableRecord
2
DASHED2
70
0
3
Dashed (.5x) _ _ _ _ _ _ _ _ _ _ _ _ _ _ _ _ _
72
65
73
2
40
9.525
49
6.35
74
0
49
-3.175
74
0
0
LTYPE
5
37
330
5
100
AcDbSymbolTableRecord
100
AcDbLinetypeTableRecord
2
DASHEDX2
70
0
3
Dashed (2x) ____  ____  ____  ____  ____  ___
72
65
73
2
40
38.1
49
25.4
74
0
49
-12.7
74
0
0
LTYPE
5
38
330
5
100
AcDbSymbolTableRecord
100
AcDbLinetypeTableRecord
2
DASHDOT
70
0
3
Dash dot __ . __ . __ . __ . __ . __ . __ . __
72
65
73
4
40
25.4
49
12.7
74
0
49
-6.35
74
0
49
0
74
0
49
-6.35
74
0
0
LTYPE
5
39
330
5
100
AcDbSymbolTableRecord
100
AcDbLinetypeTableRecord
2
DASHDOT2
70
0
3
Dash dot (.5x) _._._._._._._._._._._._._._._.
72
65
73
4
40
12.7
49
6.35
74
0
49
-3.175
74
0
49
0
74
0
49
-3.175
74
0
0
LTYPE
5
3A
330
5
100
AcDbSymbolTableRecord
100
AcDbLinetypeTableRecord
2
DASHDOTX2
70
0
3
Dash dot (2x) ____  .  ____  .  ____  .  ___
72
65
73
4
40
50.8
49
25.4
74
0
49
-12.7
74
0
49
0
74
0
49
-12.7
74
0
0
LTYPE
5
3B
330
5
100
AcDbSymbolTableRecord
100
AcDbLinetypeTableRecord
2
DIVIDE
70
0
3
Divide ____ . . ____ . . ____ . . ____ . . ____
72
65
73
6
40
31.75
49
12.7
74
0
49
-6.35
74
0
49
0
74
0
49
-6.35
74
0
49
0
74
0
49
-6.35
74
0
0
LTYPE
5
3C
330
5
100
AcDbSymbolTableRecord
100
AcDbLinetypeTableRecord
2
DIVIDE2
70
0
3
Divide (.5x) __..__..__..__..__..__..__..__.._
72
65
73
6
40
15.875
49
6.35
74
0
49
-3.175
74
0
49
0
74
0
49
-3.175
74
0
49
0
74
0
49
-3.175
74
0
0
LTYPE
5
3D
330
5
100
AcDbSymbolTableRecord
100
AcDbLinetypeTableRecord
2
DIVIDEX2
70
0
3
Divide (2x) ________  .  .  ________  .  .  _
72
65
73
6
40
63.5
49
25.4
74
0
49
-12.7
74
0
49
0
74
0
49
-12.7
74
0
49
0
74
0
49
-12.7
74
0
0
LTYPE
5
3E
330
5
100
AcDbSymbolTableRecord
100
AcDbLinetypeTableRecord
2
BORDER
70
0
3
Border __ __ . __ __ . __ __ . __ __ . __ __ .
72
65
73
6
40
44.45
49
12.7
74
0
49
-6.35
74
0
49
12.7
74
0
49
-6.35
74
0
49
0
74
0
49
-6.35
74
0
0
LTYPE
5
3F
330
5
100
AcDbSymbolTableRecord
100
AcDbLinetypeTableRecord
2
BORDER2
70
0
3
Border (.5x) __.__.__.__.__.__.__.__.__.__.__.
72
65
73
6
40
22.225
49
6.35
74
0
49
-3.175
74
0
49
6.35
74
0
49
-3.175
74
0
49
0
74
0
49
-3.175
74
0
0
LTYPE
5
40
330
5
100
AcDbSymbolTableRecord
100
AcDbLinetypeTableRecord
2
BORDERX2
70
0
3
Border (2x) ____  ____  .  ____  ____  .  ___
72
65
73
6
40
88.9
49
25.4
74
0
49
-12.7
74
0
49
25.4
74
0
49
-12.7
74
0
49
0
74
0
49
-12.7
74
0
0
LTYPE
5
41
330
5
100
AcDbSymbolTableRecord
100
AcDbLinetypeTableRecord
2
CENTER
70
0
3
Center ____ _ ____ _ ____ _ ____ _ ____ _ ____
72
65
73
4
40
50.8
49
31.75
74
0
49
-6.35
74
0
49
6.35
74
0
49
-6.35
74
0
0
LTYPE
5
42
330
5
100
AcDbSymbolTableRecord
100
AcDbLinetypeTableRecord
2
CENTER2
70
0
3
Center (.5x) ___ _ ___ _ ___ _ ___ _ ___ _ ___
72
65
73
4
40
28.575
49
19.05
74
0
49
-3.175
74
0
49
3.175
74
0
49
-3.175
74
0
0
LTYPE
5
43
330
5
100
AcDbSymbolTableRecord
100
AcDbLinetypeTableRecord
2
CENTERX2
70
0
3
Center (2x) ________  __  ________  __  _____
72
65
73
4
40
101.6
49
63.5
74
0
49
-12.7
74
0
49
12.7
74
0
49
-12.7
74
0
0
ENDTAB
0
TABLE
2
LAYER
5
2
330
0
100
AcDbSymbolTable
70
1
0
LAYER
5
10
330
2
100
AcDbSymbolTableRecord
100
AcDbLayerTableRecord
2
0
70
0
62
7
6
CONTINUOUS
370
0
390
F
0
LAYER
5
44
330
2
100
AcDbSymbolTableRecord
100
AcDbLayerTableRecord
2
dimensions
70
0
62
5
6
CONTINUOUS
370
0
390
F
0
LAYER
5
45
330
2
100
AcDbSymbolTableRecord
100
AcDbLayerTableRecord
2
text
70
0
62
7
6
CONTINUOUS
370
0
390
F
0
LAYER
5
46
330
2
100
AcDbSymbolTableRecord
100
AcDbLayerTableRecord
2
bogus2
70
0
62
3
6
CONTINUOUS
370
0
390
F
0
ENDTAB
0
TABLE
2
STYLE
5
3
330
0
100
AcDbSymbolTable
70
3
0
STYLE
5
47
330
2
100
AcDbSymbolTableRecord
100
AcDbTextStyleTableRecord
2
standard
70
0
40
0
41
1
50
0
71
0
42
1
3
standard
4

0
ENDTAB
0
TABLE
2
VIEW
5
6
330
0
100
AcDbSymbolTable
70
0
0
ENDTAB
0
TABLE
2
UCS
5
7
330
0
100
AcDbSymbolTable
70
0
0
ENDTAB
0
TABLE
2
APPID
5
9
330
0
100
AcDbSymbolTable
70
1
0
APPID
5
12
330
9
100
AcDbSymbolTableRecord
100
AcDbRegAppTableRecord
2
ACAD
70
0
0
ENDTAB
0
TABLE
2
DIMSTYLE
5
A
330
0
100
AcDbSymbolTable
70
1
100
AcDbDimStyleTable
71
1
0
DIMSTYLE
105
48
330
A
100
AcDbSymbolTableRecord
100
AcDbDimStyleTableRecord
2
Standard
70
0
40
1
41
2.5
42
0.625
43
0.38
44
1.25
45
0
46
0
47
0
48
0
140
2.5
141
0.09
142
0
143
25.4
144
1
145
0
146
1
147
0.625
148
0
71
0
72
0
73
0
74
1
75
0
76
0
77
0
78
0
79
0
170
0
171
2
172
0
173
0
174
0
175
0
176
0
177
0
178
0
179
0
271
4
272
4
273
2
274
2
275
0
276
0
277
2
278
46
279
0
280
0
281
0
282
0
283
1
284
0
285
0
286
0
288
0
289
3
340
Standard
341

371
-2
372
-2
0
ENDTAB
0
TABLE
2
BLOCK_RECORD
5
1
330
0
100
AcDbSymbolTable
70
2
0
BLOCK_RECORD
5
1F
330
1
100
AcDbSymbolTableRecord
100
AcDbBlockTableRecord
2
*Model_Space
70
0
280
1
281
0
0
BLOCK_RECORD
5
1E
330
1
100
AcDbSymbolTableRecord
100
AcDbBlockTableRecord
2
*Paper_Space
70
0
280
1
281
0
0
BLOCK_RECORD
5
49
330
1
100
AcDbSymbolTableRecord
100
AcDbBlockTableRecord
2
*D13
70
0
280
1
281
0
0
BLOCK_RECORD
5
4C
330
1
100
AcDbSymbolTableRecord
100
AcDbBlockTableRecord
2
*D60
70
0
280
1
281
0
0
BLOCK_RECORD
5
4F
330
1
100
AcDbSymbolTableRecord
100
AcDbBlockTableRecord
2
*D42
70
0
280
1
281
0
0
BLOCK_RECORD
5
52
330
1
100
AcDbSymbolTableRecord
100
AcDbBlockTableRecord
2
*D36
70
0
280
1
281
0
0
BLOCK_RECORD
5
55
330
1
100
AcDbSymbolTableRecord
100
AcDbBlockTableRecord
2
*D7
70
0
280
1
281
0
0
BLOCK_RECORD
5
58
330
1
100
AcDbSymbolTableRecord
100
AcDbBlockTableRecord
2
*D10
70
0
280
1
281
0
0
BLOCK_RECORD
5
5B
330
1
100
AcDbSymbolTableRecord
100
AcDbBlockTableRecord
2
*D16
70
0
280
1
281
0
0
BLOCK_RECORD
5
5E
330
1
100
AcDbSymbolTableRecord
100
AcDbBlockTableRecord
2
*D15
70
0
280
1
281
0
0
BLOCK_RECORD
5
61
330
1
100
AcDbSymbolTableRecord
100
AcDbBlockTableRecord
2
*D32
70
0
280
1
281
0
0
BLOCK_RECORD
5
64
330
1
100
AcDbSymbolTableRecord
100
AcDbBlockTableRecord
2
*D25
70
0
280
1
281
0
0
BLOCK_RECORD
5
67
330
1
100
AcDbSymbolTableRecord
100
AcDbBlockTableRecord
2
*D40
70
0
280
1
281
0
0
BLOCK_RECORD
5
6A
330
1
100
AcDbSymbolTableRecord
100
AcDbBlockTableRecord
2
*D1
70
0
280
1
281
0
0
BLOCK_RECORD
5
6D
330
1
100
AcDbSymbolTableRecord
100
AcDbBlockTableRecord
2
*D58
70
0
280
1
281
0
0
BLOCK_RECORD
5
70
330
1
100
AcDbSymbolTableRecord
100
AcDbBlockTableRecord
2
*D23
70
0
280
1
281
0
0
BLOCK_RECORD
5
73
330
1
100
AcDbSymbolTableRecord
100
AcDbBlockTableRecord
2
*D37
70
0
280
1
281
0
0
BLOCK_RECORD
5
76
330
1
100
AcDbSymbolTableRecord
100
AcDbBlockTableRecord
2
*D14
70
0
280
1
281
0
0
BLOCK_RECORD
5
79
330
1
100
AcDbSymbolTableRecord
100
AcDbBlockTableRecord
2
*D38
70
0
280
1
281
0
0
BLOCK_RECORD
5
7C
330
1
100
AcDbSymbolTableRecord
100
AcDbBlockTableRecord
2
*D45
70
0
280
1
281
0
0
BLOCK_RECORD
5
7F
330
1
100
AcDbSymbolTableRecord
100
AcDbBlockTableRecord
2
*D11
70
0
280
1
281
0
0
BLOCK_RECORD
5
82
330
1
100
AcDbSymbolTableRecord
100
AcDbBlockTableRecord
2
*D22
70
0
280
1
281
0
0
BLOCK_RECORD
5
85
330
1
100
AcDbSymbolTableRecord
100
AcDbBlockTableRecord
2
*D21
70
0
280
1
281
0
0
BLOCK_RECORD
5
88
330
1
100
AcDbSymbolTableRecord
100
AcDbBlockTableRecord
2
*D33
70
0
280
1
281
0
0
BLOCK_RECORD
5
8B
330
1
100
AcDbSymbolTableRecord
100
AcDbBlockTableRecord
2
*D43
70
0
280
1
281
0
0
BLOCK_RECORD
5
8E
330
1
100
AcDbSymbolTableRecord
100
AcDbBlockTableRecord
2
*D49
70
0
280
1
281
0
0
BLOCK_RECORD
5
91
330
1
100
AcDbSymbolTableRecord
100
AcDbBlockTableRecord
2
*D24
70
0
280
1
281
0
0
BLOCK_RECORD
5
94
330
1
100
AcDbSymbolTableRecord
100
AcDbBlockTableRecord
2
*D19
70
0
280
1
281
0
0
BLOCK_RECORD
5
97
330
1
100
AcDbSymbolTableRecord
100
AcDbBlockTableRecord
2
*D48
70
0
280
1
281
0
0
BLOCK_RECORD
5
9A
330
1
100
AcDbSymbolTableRecord
100
AcDbBlockTableRecord
2
*D27
70
0
280
1
281
0
0
BLOCK_RECORD
5
9D
330
1
100
AcDbSymbolTableRecord
100
AcDbBlockTableRecord
2
*D51
70
0
280
1
281
0
0
BLOCK_RECORD
5
A0
330
1
100
AcDbSymbolTableRecord
100
AcDbBlockTableRecord
2
*D55
70
0
280
1
281
0
0
BLOCK_RECORD
5
A3
330
1
100
AcDbSymbolTableRecord
100
AcDbBlockTableRecord
2
*D9
70
0
280
1
281
0
0
BLOCK_RECORD
5
A6
330
1
100
AcDbSymbolTableRecord
100
AcDbBlockTableRecord
2
*D41
70
0
280
1
281
0
0
BLOCK_RECORD
5
A9
330
1
100
AcDbSymbolTableRecord
100
AcDbBlockTableRecord
2
*D39
70
0
280
1
281
0
0
BLOCK_RECORD
5
AC
330
1
100
AcDbSymbolTableRecord
100
AcDbBlockTableRecord
2
*D3
70
0
280
1
281
0
0
BLOCK_RECORD
5
AF
330
1
100
AcDbSymbolTableRecord
100
AcDbBlockTableRecord
2
*D52
70
0
280
1
281
0
0
BLOCK_RECORD
5
B2
330
1
100
AcDbSymbolTableRecord
100
AcDbBlockTableRecord
2
*D54
70
0
280
1
281
0
0
BLOCK_RECORD
5
B5
330
1
100
AcDbSymbolTableRecord
100
AcDbBlockTableRecord
2
*D53
70
0
280
1
281
0
0
BLOCK_RECORD
5
B8
330
1
100
AcDbSymbolTableRecord
100
AcDbBlockTableRecord
2
*D35
70
0
280
1
281
0
0
BLOCK_RECORD
5
BB
330
1
100
AcDbSymbolTableRecord
100
AcDbBlockTableRecord
2
*D26
70
0
280
1
281
0
0
BLOCK_RECORD
5
BE
330
1
100
AcDbSymbolTableRecord
100
AcDbBlockTableRecord
2
*D44
70
0
280
1
281
0
0
BLOCK_RECORD
5
C1
330
1
100
AcDbSymbolTableRecord
100
AcDbBlockTableRecord
2
*D17
70
0
280
1
281
0
0
BLOCK_RECORD
5
C4
330
1
100
AcDbSymbolTableRecord
100
AcDbBlockTableRecord
2
*D4
70
0
280
1
281
0
0
BLOCK_RECORD
5
C7
330
1
100
AcDbSymbolTableRecord
100
AcDbBlockTableRecord
2
*D28
70
0
280
1
281
0
0
BLOCK_RECORD
5
CA
330
1
100
AcDbSymbolTableRecord
100
AcDbBlockTableRecord
2
*D46
70
0
280
1
281
0
0
BLOCK_RECORD
5
CD
330
1
100
AcDbSymbolTableRecord
100
AcDbBlockTableRecord
2
*D12
70
0
280
1
281
0
0
BLOCK_RECORD
5
D0
330
1
100
AcDbSymbolTableRecord
100
AcDbBlockTableRecord
2
*D5
70
0
280
1
281
0
0
BLOCK_RECORD
5
D3
330
1
100
AcDbSymbolTableRecord
100
AcDbBlockTableRecord
2
*D62
70
0
280
1
281
0
0
BLOCK_RECORD
5
D6
330
1
100
AcDbSymbolTableRecord
100
AcDbBlockTableRecord
2
*D61
70
0
280
1
281
0
0
BLOCK_RECORD
5
D9
330
1
100
AcDbSymbolTableRecord
100
AcDbBlockTableRecord
2
*D30
70
0
280
1
281
0
0
BLOCK_RECORD
5
DC
330
1
100
AcDbSymbolTableRecord
100
AcDbBlockTableRecord
2
*D8
70
0
280
1
281
0
0
BLOCK_RECORD
5
DF
330
1
100
AcDbSymbolTableRecord
100
AcDbBlockTableRecord
2
*D63
70
0
280
1
281
0
0
BLOCK_RECORD
5
E2
330
1
100
AcDbSymbolTableRecord
100
AcDbBlockTableRecord
2
*D18
70
0
280
1
281
0
0
BLOCK_RECORD
5
E5
330
1
100
AcDbSymbolTableRecord
100
AcDbBlockTableRecord
2
*D59
70
0
280
1
281
0
0
BLOCK_RECORD
5
E8
330
1
100
AcDbSymbolTableRecord
100
AcDbBlockTableRecord
2
*D50
70
0
280
1
281
0
0
BLOCK_RECORD
5
EB
330
1
100
AcDbSymbolTableRecord
100
AcDbBlockTableRecord
2
*D34
70
0
280
1
281
0
0
BLOCK_RECORD
5
EE
330
1
100
AcDbSymbolTableRecord
100
AcDbBlockTableRecord
2
*D47
70
0
280
1
281
0
0
BLOCK_RECORD
5
F1
330
1
100
AcDbSymbolTableRecord
100
AcDbBlockTableRecord
2
*D56
70
0
280
1
281
0
0
BLOCK_RECORD
5
F4
330
1
100
AcDbSymbolTableRecord
100
AcDbBlockTableRecord
2
*D6
70
0
280
1
281
0
0
BLOCK_RECORD
5
F7
330
1
100
AcDbSymbolTableRecord
100
AcDbBlockTableRecord
2
*D31
70
0
280
1
281
0
0
BLOCK_RECORD
5
FA
330
1
100
AcDbSymbolTableRecord
100
AcDbBlockTableRecord
2
*D2
70
0
280
1
281
0
0
BLOCK_RECORD
5
FD
330
1
100
AcDbSymbolTableRecord
100
AcDbBlockTableRecord
2
*D29
70
0
280
1
281
0
0
BLOCK_RECORD
5
100
330
1
100
AcDbSymbolTableRecord
100
AcDbBlockTableRecord
2
*D20
70
0
280
1
281
0
0
BLOCK_RECORD
5
103
330
1
100
AcDbSymbolTableRecord
100
AcDbBlockTableRecord
2
*D57
70
0
280
1
281
0
0
ENDTAB
0
ENDSEC
0
SECTION
2
BLOCKS
0
BLOCK
5
20
330
1F
100
AcDbEntity
8
0
100
AcDbBlockBegin
2
*Model_Space
70
0
10
0
20
0
30
0
3
*Model_Space
1

0
ENDBLK
5
21
330
1F
100
AcDbEntity
8
0
100
AcDbBlockEnd
0
BLOCK
5
1C
330
1B
100
AcDbEntity
8
0
100
AcDbBlockBegin
2
*Paper_Space
70
0
10
0
20
0
30
0
3
*Paper_Space
1

0
ENDBLK
5
1D
330
1F
100
AcDbEntity
8
0
100
AcDbBlockEnd
0
BLOCK
5
4A
330
49
100
AcDbEntity
8
0
100
AcDbBlockBegin
2
*D13
70
1
10
0
20
0
3
*D13
1

0
LINE
5
106
100
AcDbEntity
8
dimensions
6
CONTINUOUS
62
7
370
0
100
AcDbLine
10
65.20692
20
-26.804224
11
80.20692
21
-26.804224
0
SOLID
5
107
100
AcDbEntity
8
dimensions
6
CONTINUOUS
62
7
370
0
100
AcDbTrace
10
70.20692
20
-26.804224
30
0
11
67.70692
21
-27.2205086578
31
0
12
67.70692
22
-26.3879393422
32
0
13
67.70692
23
-26.3879393422
33
0
0
SOLID
5
108
100
AcDbEntity
8
dimensions
6
CONTINUOUS
62
7
370
0
100
AcDbTrace
10
75.20692
20
-26.804224
30
0
11
77.70692
21
-26.3879393422
31
0
12
77.70692
22
-27.2205086578
32
0
13
77.70692
23
-27.2205086578
33
0
0
MTEXT
5
109
100
AcDbEntity
8
dimensions
6
CONTINUOUS
62
7
370
0
100
AcDbMText
10
72.70692
20
-24.929224
30
0
40
2.5
41
1.11111111111
71
5
72
1
1
5
7
standard
210
0
220
0
230
1
50
0
73
2
44
1
0
LINE
5
10A
100
AcDbEntity
8
dimensions
6
CONTINUOUS
62
7
370
0
100
AcDbLine
10
70.20692
20
-11.76324
11
70.20692
21
-28.054224
0
LINE
5
10B
100
AcDbEntity
8
dimensions
6
CONTINUOUS
62
7
370
0
100
AcDbLine
10
75.20692
20
-10.51324
11
75.20692
21
-28.054224
0
ENDBLK
5
4B
330
49
100
AcDbEntity
8
0
100
AcDbBlockEnd
0
BLOCK
5
4D
330
4C
100
AcDbEntity
8
0
100
AcDbBlockBegin
2
*D60
70
1
10
0
20
0
3
*D60
1

0
LINE
5
10C
100
AcDbEntity
8
dimensions
6
CONTINUOUS
62
7
370
0
100
AcDbLine
10
110.75
20
44.1712640012
11
141.75
21
44.1712640012
0
SOLID
5
10D
100
AcDbEntity
8
dimensions
6
CONTINUOUS
62
7
370
0
100
AcDbTrace
10
110.75
20
44.1712640012
30
0
11
113.25
21
44.587548659
31
0
12
113.25
22
43.7549793434
32
0
13
113.25
23
43.7549793434
33
0
0
SOLID
5
10E
100
AcDbEntity
8
dimensions
6
CONTINUOUS
62
7
370
0
100
AcDbTrace
10
141.75
20
44.1712640012
30
0
11
139.25
21
43.7549793434
31
0
12
139.25
22
44.587548659
32
0
13
139.25
23
44.587548659
33
0
0
MTEXT
5
10F
100
AcDbEntity
8
dimensions
6
CONTINUOUS
62
7
370
0
100
AcDbMText
10
126.25
20
46.0462640012
30
0
40
2.5
41
2.5
71
5
72
1
1
31
7
standard
210
0
220
0
230
1
50
0
73
2
44
1
0
LINE
5
110
100
AcDbEntity
8
dimensions
6
CONTINUOUS
62
7
370
0
100
AcDbLine
10
110.75
20
56.5428404338
11
110.75
21
42.9212640012
0
LINE
5
111
100
AcDbEntity
8
dimensions
6
CONTINUOUS
62
7
370
0
100
AcDbLine
10
141.75
20
56.5428404338
11
141.75
21
42.9212640012
0
ENDBLK
5
4E
330
4C
100
AcDbEntity
8
0
100
AcDbBlockEnd
0
BLOCK
5
50
330
4F
100
AcDbEntity
8
0
100
AcDbBlockBegin
2
*D42
70
1
10
0
20
0
3
*D42
1

0
LINE
5
112
100
AcDbEntity
8
dimensions
6
CONTINUOUS
62
7
370
0
100
AcDbLine
10
415.120447596
20
83.219477543
11
415.120447596
21
70.1875000049
0
SOLID
5
113
100
AcDbEntity
8
dimensions
6
CONTINUOUS
62
7
370
0
100
AcDbTrace
10
415.120447596
20
78.219477543
30
0
11
414.704162938
21
80.719477543
31
0
12
415.536732254
22
80.719477543
32
0
13
415.536732254
23
80.719477543
33
0
0
SOLID
5
114
100
AcDbEntity
8
dimensions
6
CONTINUOUS
62
7
370
0
100
AcDbTrace
10
415.120447596
20
75.1875000049
30
0
11
415.536732254
21
72.6875000049
31
0
12
414.704162938
22
72.6875000049
32
0
13
414.704162938
23
72.6875000049
33
0
0
MTEXT
5
115
100
AcDbEntity
8
dimensions
6
CONTINUOUS
62
7
370
0
100
AcDbMText
10
413.245447596
20
82.7333664319
30
0
40
2.5
41
7.77777777778
71
5
72
1
1
3.032
7
standard
210
0
220
0
230
1
50
90
73
2
44
1
0
LINE
5
116
100
AcDbEntity
8
dimensions
6
CONTINUOUS
62
7
370
0
100
AcDbLine
10
411.466286376
20
78.219477543
11
416.370447596
21
78.219477543
0
LINE
5
117
100
AcDbEntity
8
dimensions
6
CONTINUOUS
62
7
370
0
100
AcDbLine
10
410.964275382
20
75.1875000049
11
416.370447596
21
75.1875000049
0
ENDBLK
5
51
330
4F
100
AcDbEntity
8
0
100
AcDbBlockEnd
0
BLOCK
5
53
330
52
100
AcDbEntity
8
0
100
AcDbBlockBegin
2
*D36
70
1
10
0
20
0
3
*D36
1

0
LINE
5
118
100
AcDbEntity
8
dimensions
6
CONTINUOUS
62
7
370
0
100
AcDbLine
10
321.956858473
20
75.0750324015
11
342.695050211
21
70.1386349635
0
LINE
5
119
100
AcDbEntity
8
dimensions
6
CONTINUOUS
62
7
370
0
100
AcDbLine
10
330.541584742
20
111.140138913
11
351.27977648
21
106.203741475
0
LINE
5
11A
100
AcDbEntity
8
dimensions
6
CONTINUOUS
62
7
370
0
100
AcDbLine
10
341.479025701
20
70.4280903003
11
350.06375197
21
106.493196811
0
SOLID
5
11B
100
AcDbEntity
8
dimensions
6
CONTINUOUS
62
7
370
0
100
AcDbTrace
10
341.479025701
20
70.4280903003
30
0
11
341.652966497
21
72.9565359722
31
0
12
342.462906252
22
72.7637426669
32
0
13
342.462906252
23
72.7637426669
33
0
0
SOLID
5
11C
100
AcDbEntity
8
dimensions
6
CONTINUOUS
62
7
370
0
100
AcDbTrace
10
350.06375197
20
106.493196811
30
0
11
349.889811174
21
103.964751139
31
0
12
349.079871419
22
104.157544445
32
0
13
349.079871419
23
104.157544445
33
0
0
MTEXT
5
11D
100
AcDbEntity
8
dimensions
6
CONTINUOUS
62
7
370
0
100
AcDbMText
10
343.94735207
20
88.8948265609
30
0
40
2.5
41
11.6666666667
71
5
72
1
1
37.0728
7
standard
210
0
220
0
230
1
50
76.6108156673
73
2
44
1
0
ENDBLK
5
54
330
52
100
AcDbEntity
8
0
100
AcDbBlockEnd
0
BLOCK
5
56
330
55
100
AcDbEntity
8
0
100
AcDbBlockBegin
2
*D7
70
1
10
0
20
0
3
*D7
1

0
LINE
5
11E
100
AcDbEntity
8
dimensions
6
CONTINUOUS
62
7
370
0
100
AcDbLine
10
39.20692
20
-23.22144
11
70.20692
21
-23.22144
0
SOLID
5
11F
100
AcDbEntity
8
dimensions
6
CONTINUOUS
62
7
370
0
100
AcDbTrace
10
39.20692
20
-23.22144
30
0
11
41.70692
21
-22.8051553422
31
0
12
41.70692
22
-23.6377246578
32
0
13
41.70692
23
-23.6377246578
33
0
0
SOLID
5
120
100
AcDbEntity
8
dimensions
6
CONTINUOUS
62
7
370
0
100
AcDbTrace
10
70.20692
20
-23.22144
30
0
11
67.70692
21
-23.6377246578
31
0
12
67.70692
22
-22.8051553422
32
0
13
67.70692
23
-22.8051553422
33
0
0
MTEXT
5
121
100
AcDbEntity
8
dimensions
6
CONTINUOUS
62
7
370
0
100
AcDbMText
10
54.70692
20
-21.34644
30
0
40
2.5
41
2.5
71
5
72
1
1
31
7
standard
210
0
220
0
230
1
50
0
73
2
44
1
0
LINE
5
122
100
AcDbEntity
8
dimensions
6
CONTINUOUS
62
7
370
0
100
AcDbLine
10
39.20692
20
-11.76324
11
39.20692
21
-24.47144
0
LINE
5
123
100
AcDbEntity
8
dimensions
6
CONTINUOUS
62
7
370
0
100
AcDbLine
10
70.20692
20
-11.76324
11
70.20692
21
-24.47144
0
ENDBLK
5
57
330
55
100
AcDbEntity
8
0
100
AcDbBlockEnd
0
BLOCK
5
59
330
58
100
AcDbEntity
8
0
100
AcDbBlockBegin
2
*D10
70
1
10
0
20
0
3
*D10
1

0
LINE
5
124
100
AcDbEntity
8
dimensions
6
CONTINUOUS
62
7
370
0
100
AcDbLine
10
75.70692
20
-5.633216
11
133.70692
21
-5.633216
0
SOLID
5
125
100
AcDbEntity
8
dimensions
6
CONTINUOUS
62
7
370
0
100
AcDbTrace
10
75.70692
20
-5.633216
30
0
11
78.20692
21
-5.21693134223
31
0
12
78.20692
22
-6.04950065777
32
0
13
78.20692
23
-6.04950065777
33
0
0
SOLID
5
126
100
AcDbEntity
8
dimensions
6
CONTINUOUS
62
7
370
0
100
AcDbTrace
10
133.70692
20
-5.633216
30
0
11
131.20692
21
-6.04950065777
31
0
12
131.20692
22
-5.21693134223
32
0
13
131.20692
23
-5.21693134223
33
0
0
MTEXT
5
127
100
AcDbEntity
8
dimensions
6
CONTINUOUS
62
7
370
0
100
AcDbMText
10
104.70692
20
-3.758216
30
0
40
2.5
41
3.05555555556
71
5
72
1
1
58
7
standard
210
0
220
0
230
1
50
0
73
2
44
1
0
LINE
5
128
100
AcDbEntity
8
dimensions
6
CONTINUOUS
62
7
370
0
100
AcDbLine
10
75.70692
20
-6.76324000001
11
75.70692
21
-4.383216
0
LINE
5
129
100
AcDbEntity
8
dimensions
6
CONTINUOUS
62
7
370
0
100
AcDbLine
10
133.70692
20
-6.76324000001
11
133.70692
21
-4.383216
0
ENDBLK
5
5A
330
58
100
AcDbEntity
8
0
100
AcDbBlockEnd
0
BLOCK
5
5C
330
5B
100
AcDbEntity
8
0
100
AcDbBlockBegin
2
*D16
70
1
10
0
20
0
3
*D16
1

0
LINE
5
12A
100
AcDbEntity
8
dimensions
6
CONTINUOUS
62
7
370
0
100
AcDbLine
10
316.760000001
20
-1.90054400001
11
330.760000001
21
-1.90054400001
0
SOLID
5
12B
100
AcDbEntity
8
dimensions
6
CONTINUOUS
62
7
370
0
100
AcDbTrace
10
321.760000001
20
-1.90054400001
30
0
11
319.260000001
21
-2.31682865778
31
0
12
319.260000001
22
-1.48425934224
32
0
13
319.260000001
23
-1.48425934224
33
0
0
SOLID
5
12C
100
AcDbEntity
8
dimensions
6
CONTINUOUS
62
7
370
0
100
AcDbTrace
10
325.760000001
20
-1.90054400001
30
0
11
328.260000001
21
-1.48425934224
31
0
12
328.260000001
22
-2.31682865778
32
0
13
328.260000001
23
-2.31682865778
33
0
0
MTEXT
5
12D
100
AcDbEntity
8
dimensions
6
CONTINUOUS
62
7
370
0
100
AcDbMText
10
323.760000001
20
-0.0255440000063
30
0
40
2.5
41
1.38888888889
71
5
72
1
1
4
7
standard
210
0
220
0
230
1
50
0
73
2
44
1
0
LINE
5
12E
100
AcDbEntity
8
dimensions
6
CONTINUOUS
62
7
370
0
100
AcDbLine
10
321.760000001
20
9.33500000011
11
321.760000001
21
-3.15054400001
0
LINE
5
12F
100
AcDbEntity
8
dimensions
6
CONTINUOUS
62
7
370
0
100
AcDbLine
10
325.760000001
20
5.33500000011
11
325.760000001
21
-3.15054400001
0
ENDBLK
5
5D
330
5B
100
AcDbEntity
8
0
100
AcDbBlockEnd
0
BLOCK
5
5F
330
5E
100
AcDbEntity
8
0
100
AcDbBlockBegin
2
*D15
70
1
10
0
20
0
3
*D15
1

0
LINE
5
130
100
AcDbEntity
8
dimensions
6
CONTINUOUS
62
7
370
0
100
AcDbLine
10
321.760000001
20
42.4345600001
11
343.260000001
21
42.4345600001
0
SOLID
5
131
100
AcDbEntity
8
dimensions
6
CONTINUOUS
62
7
370
0
100
AcDbTrace
10
321.760000001
20
42.4345600001
30
0
11
324.260000001
21
42.8508446579
31
0
12
324.260000001
22
42.0182753423
32
0
13
324.260000001
23
42.0182753423
33
0
0
SOLID
5
132
100
AcDbEntity
8
dimensions
6
CONTINUOUS
62
7
370
0
100
AcDbTrace
10
343.260000001
20
42.4345600001
30
0
11
340.760000001
21
42.0182753423
31
0
12
340.760000001
22
42.8508446579
32
0
13
340.760000001
23
42.8508446579
33
0
0
MTEXT
5
133
100
AcDbEntity
8
dimensions
6
CONTINUOUS
62
7
370
0
100
AcDbMText
10
332.510000001
20
44.3095600001
30
0
40
2.5
41
5.27777777778
71
5
72
1
1
21.5
7
standard
210
0
220
0
230
1
50
0
73
2
44
1
0
LINE
5
134
100
AcDbEntity
8
dimensions
6
CONTINUOUS
62
7
370
0
100
AcDbLine
10
321.760000001
20
34.5850000001
11
321.760000001
21
43.6845600001
0
LINE
5
135
100
AcDbEntity
8
dimensions
6
CONTINUOUS
62
7
370
0
100
AcDbLine
10
343.260000001
20
34.5850000001
11
343.260000001
21
43.6845600001
0
ENDBLK
5
60
330
5E
100
AcDbEntity
8
0
100
AcDbBlockEnd
0
BLOCK
5
62
330
61
100
AcDbEntity
8
0
100
AcDbBlockBegin
2
*D32
70
1
10
0
20
0
3
*D32
1

0
LINE
5
136
100
AcDbEntity
8
dimensions
6
CONTINUOUS
62
7
370
0
100
AcDbLine
10
263.351902569
20
58.9103232095
11
320.27794951
21
58.9103232095
0
SOLID
5
137
100
AcDbEntity
8
dimensions
6
CONTINUOUS
62
7
370
0
100
AcDbTrace
10
263.351902569
20
58.9103232095
30
0
11
265.851902569
21
59.3266078673
31
0
12
265.851902569
22
58.4940385517
32
0
13
265.851902569
23
58.4940385517
33
0
0
SOLID
5
138
100
AcDbEntity
8
dimensions
6
CONTINUOUS
62
7
370
0
100
AcDbTrace
10
320.27794951
20
58.9103232095
30
0
11
317.77794951
21
58.4940385517
31
0
12
317.77794951
22
59.3266078673
32
0
13
317.77794951
23
59.3266078673
33
0
0
MTEXT
5
139
100
AcDbEntity
8
dimensions
6
CONTINUOUS
62
7
370
0
100
AcDbMText
10
291.81492604
20
60.7853232095
30
0
40
2.5
41
9.72222222222
71
5
72
1
1
56.926
7
standard
210
0
220
0
230
1
50
0
73
2
44
1
0
LINE
5
13A
100
AcDbEntity
8
dimensions
6
CONTINUOUS
62
7
370
0
100
AcDbLine
10
263.351902569
20
70.2531836793
11
263.351902569
21
57.6603232095
0
LINE
5
13B
100
AcDbEntity
8
dimensions
6
CONTINUOUS
62
7
370
0
100
AcDbLine
10
320.27794951
20
70.0958392399
11
320.27794951
21
57.6603232095
0
ENDBLK
5
63
330
61
100
AcDbEntity
8
0
100
AcDbBlockEnd
0
BLOCK
5
65
330
64
100
AcDbEntity
8
0
100
AcDbBlockBegin
2
*D25
70
1
10
0
20
0
3
*D25
1

0
LINE
5
13C
100
AcDbEntity
8
dimensions
6
CONTINUOUS
62
7
370
0
100
AcDbLine
10
281.935872001
20
7.285
11
281.935872001
21
31.285
0
SOLID
5
13D
100
AcDbEntity
8
dimensions
6
CONTINUOUS
62
7
370
0
100
AcDbTrace
10
281.935872001
20
7.285
30
0
11
281.519587343
21
9.785
31
0
12
282.352156659
22
9.785
32
0
13
282.352156659
23
9.785
33
0
0
SOLID
5
13E
100
AcDbEntity
8
dimensions
6
CONTINUOUS
62
7
370
0
100
AcDbTrace
10
281.935872001
20
31.285
30
0
11
282.352156659
21
28.785
31
0
12
281.519587343
22
28.785
32
0
13
281.519587343
23
28.785
33
0
0
MTEXT
5
13F
100
AcDbEntity
8
dimensions
6
CONTINUOUS
62
7
370
0
100
AcDbMText
10
280.060872001
20
19.285
30
0
40
2.5
41
3.33333333333
71
5
72
1
1
24
7
standard
210
0
220
0
230
1
50
90
73
2
44
1
0
LINE
5
140
100
AcDbEntity
8
dimensions
6
CONTINUOUS
62
7
370
0
100
AcDbLine
10
265
20
7.285
11
283.185872001
21
7.285
0
LINE
5
141
100
AcDbEntity
8
dimensions
6
CONTINUOUS
62
7
370
0
100
AcDbLine
10
258
20
31.285
11
283.185872001
21
31.285
0
ENDBLK
5
66
330
64
100
AcDbEntity
8
0
100
AcDbBlockEnd
0
BLOCK
5
68
330
67
100
AcDbEntity
8
0
100
AcDbBlockBegin
2
*D40
70
1
10
0
20
0
3
*D40
1

0
LINE
5
142
100
AcDbEntity
8
dimensions
6
CONTINUOUS
62
7
370
0
100
AcDbLine
10
279.911836644
20
81.7772036243
11
282.466292158
21
82.3816720059
0
LINE
5
143
100
AcDbEntity
8
dimensions
6
CONTINUOUS
62
7
370
0
100
AcDbLine
10
274.730679086
20
103.672536605
11
277.2851346
21
104.277004987
0
LINE
5
144
100
AcDbEntity
8
dimensions
6
CONTINUOUS
62
7
370
0
100
AcDbLine
10
281.24988477
20
82.0938299193
11
276.068727212
21
103.9891629
0
SOLID
5
145
100
AcDbEntity
8
dimensions
6
CONTINUOUS
62
7
370
0
100
AcDbTrace
10
281.24988477
20
82.0938299193
30
0
11
280.26910321
21
84.4307852994
31
0
12
281.079297983
22
84.6225040906
32
0
13
281.079297983
23
84.6225040906
33
0
0
SOLID
5
146
100
AcDbEntity
8
dimensions
6
CONTINUOUS
62
7
370
0
100
AcDbTrace
10
276.068727212
20
103.9891629
30
0
11
277.049508772
21
101.65220752
31
0
12
276.239313999
22
101.460488729
32
0
13
276.239313999
23
101.460488729
33
0
0
MTEXT
5
147
100
AcDbEntity
8
dimensions
6
CONTINUOUS
62
7
370
0
100
AcDbMText
10
280.483917073
20
93.47325954
30
0
40
2.5
41
5.83333333333
71
5
72
1
1
22.5
7
standard
210
0
220
0
230
1
50
283.31318433
73
2
44
1
0
ENDBLK
5
69
330
67
100
AcDbEntity
8
0
100
AcDbBlockEnd
0
BLOCK
5
6B
330
6A
100
AcDbEntity
8
0
100
AcDbBlockBegin
2
*D1
70
1
10
0
20
0
3
*D1
1

0
LINE
5
148
100
AcDbEntity
8
dimensions
6
CONTINUOUS
62
7
370
0
100
AcDbLine
10
107.75
20
146.56
11
144.75
21
146.56
0
SOLID
5
149
100
AcDbEntity
8
dimensions
6
CONTINUOUS
62
7
370
0
100
AcDbTrace
10
107.75
20
146.56
30
0
11
110.25
21
146.976284658
31
0
12
110.25
22
146.143715342
32
0
13
110.25
23
146.143715342
33
0
0
SOLID
5
14A
100
AcDbEntity
8
dimensions
6
CONTINUOUS
62
7
370
0
100
AcDbTrace
10
144.75
20
146.56
30
0
11
142.25
21
146.143715342
31
0
12
142.25
22
146.976284658
32
0
13
142.25
23
146.976284658
33
0
0
MTEXT
5
14B
100
AcDbEntity
8
dimensions
6
CONTINUOUS
62
7
370
0
100
AcDbMText
10
126.25
20
148.435
30
0
40
2.5
41
3.05555555556
71
5
72
1
1
37
7
standard
210
0
220
0
230
1
50
0
73
2
44
1
0
LINE
5
14C
100
AcDbEntity
8
dimensions
6
CONTINUOUS
62
7
370
0
100
AcDbLine
10
107.75
20
125.125
11
107.75
21
147.81
0
LINE
5
14D
100
AcDbEntity
8
dimensions
6
CONTINUOUS
62
7
370
0
100
AcDbLine
10
144.75
20
125.125
11
144.75
21
147.81
0
ENDBLK
5
6C
330
6A
100
AcDbEntity
8
0
100
AcDbBlockEnd
0
BLOCK
5
6E
330
6D
100
AcDbEntity
8
0
100
AcDbBlockBegin
2
*D58
70
1
10
0
20
0
3
*D58
1

0
LINE
5
14E
100
AcDbEntity
8
dimensions
6
CONTINUOUS
62
7
370
0
100
AcDbLine
10
82.0838400022
20
107.5
11
82.0838400022
21
69.5
0
SOLID
5
14F
100
AcDbEntity
8
dimensions
6
CONTINUOUS
62
7
370
0
100
AcDbTrace
10
82.0838400022
20
107.5
30
0
11
82.50012466
21
105
31
0
12
81.6675553444
22
105
32
0
13
81.6675553444
23
105
33
0
0
SOLID
5
150
100
AcDbEntity
8
dimensions
6
CONTINUOUS
62
7
370
0
100
AcDbTrace
10
82.0838400022
20
69.5
30
0
11
81.6675553444
21
72
31
0
12
82.50012466
22
72
32
0
13
82.50012466
23
72
33
0
0
MTEXT
5
151
100
AcDbEntity
8
dimensions
6
CONTINUOUS
62
7
370
0
100
AcDbMText
10
80.2088400022
20
88.5
30
0
40
2.5
41
3.05555555556
71
5
72
1
1
38
7
standard
210
0
220
0
230
1
50
90
73
2
44
1
0
LINE
5
152
100
AcDbEntity
8
dimensions
6
CONTINUOUS
62
7
370
0
100
AcDbLine
10
110.125
20
107.5
11
80.8338400022
21
107.5
0
LINE
5
153
100
AcDbEntity
8
dimensions
6
CONTINUOUS
62
7
370
0
100
AcDbLine
10
110.125
20
69.5
11
80.8338400022
21
69.5
0
ENDBLK
5
6F
330
6D
100
AcDbEntity
8
0
100
AcDbBlockEnd
0
BLOCK
5
71
330
70
100
AcDbEntity
8
0
100
AcDbBlockBegin
2
*D23
70
1
10
0
20
0
3
*D23
1

0
LINE
5
154
100
AcDbEntity
8
dimensions
6
CONTINUOUS
62
7
370
0
100
AcDbLine
10
241.106944001
20
7.285
11
241.106944001
21
33.285
0
SOLID
5
155
100
AcDbEntity
8
dimensions
6
CONTINUOUS
62
7
370
0
100
AcDbTrace
10
241.106944001
20
7.285
30
0
11
240.690659343
21
9.785
31
0
12
241.523228659
22
9.785
32
0
13
241.523228659
23
9.785
33
0
0
SOLID
5
156
100
AcDbEntity
8
dimensions
6
CONTINUOUS
62
7
370
0
100
AcDbTrace
10
241.106944001
20
33.285
30
0
11
241.523228659
21
30.785
31
0
12
240.690659343
22
30.785
32
0
13
240.690659343
23
30.785
33
0
0
MTEXT
5
157
100
AcDbEntity
8
dimensions
6
CONTINUOUS
62
7
370
0
100
AcDbMText
10
239.231944001
20
20.285
30
0
40
2.5
41
3.05555555556
71
5
72
1
1
26
7
standard
210
0
220
0
230
1
50
90
73
2
44
1
0
LINE
5
158
100
AcDbEntity
8
dimensions
6
CONTINUOUS
62
7
370
0
100
AcDbLine
10
249.75
20
7.285
11
239.856944001
21
7.285
0
LINE
5
159
100
AcDbEntity
8
dimensions
6
CONTINUOUS
62
7
370
0
100
AcDbLine
10
245.425248347
20
33.285
11
239.856944001
21
33.285
0
ENDBLK
5
72
330
70
100
AcDbEntity
8
0
100
AcDbBlockEnd
0
BLOCK
5
74
330
73
100
AcDbEntity
8
0
100
AcDbBlockBegin
2
*D37
70
1
10
0
20
0
3
*D37
1

0
LINE
5
15A
100
AcDbEntity
8
dimensions
6
CONTINUOUS
62
7
370
0
100
AcDbLine
10
320.885961765
20
70.5761115715
11
339.30591212
21
66.1915347048
0
LINE
5
15B
100
AcDbEntity
8
dimensions
6
CONTINUOUS
62
7
370
0
100
AcDbLine
10
321.956858473
20
75.0750324015
11
340.376808828
21
70.6904555348
0
LINE
5
15C
100
AcDbEntity
8
dimensions
6
CONTINUOUS
62
7
370
0
100
AcDbLine
10
336.932066263
20
61.6168920031
11
340.318605665
21
75.84400891
0
SOLID
5
15D
100
AcDbEntity
8
dimensions
6
CONTINUOUS
62
7
370
0
100
AcDbTrace
10
338.08988761
20
66.4809900416
30
0
11
337.915946814
21
63.9525443697
31
0
12
337.106007059
22
64.145337675
32
0
13
337.106007059
23
64.145337675
33
0
0
SOLID
5
15E
100
AcDbEntity
8
dimensions
6
CONTINUOUS
62
7
370
0
100
AcDbTrace
10
339.160784318
20
70.9799108716
30
0
11
339.334725114
21
73.5083565435
31
0
12
340.144664869
22
73.3155632381
32
0
13
340.144664869
23
73.3155632381
33
0
0
MTEXT
5
15F
100
AcDbEntity
8
dimensions
6
CONTINUOUS
62
7
370
0
100
AcDbMText
10
338.671458273
20
77.0213180049
30
0
40
2.5
41
10.2777777778
71
5
72
1
1
4.6246
7
standard
210
0
220
0
230
1
50
76.6108156656
73
2
44
1
0
ENDBLK
5
75
330
73
100
AcDbEntity
8
0
100
AcDbBlockEnd
0
BLOCK
5
77
330
76
100
AcDbEntity
8
0
100
AcDbBlockBegin
2
*D14
70
1
10
0
20
0
3
*D14
1

0
LINE
5
160
100
AcDbEntity
8
dimensions
6
CONTINUOUS
62
7
370
0
100
AcDbLine
10
358.809600001
20
32.9600000001
11
358.809600001
21
9.96000000011
0
SOLID
5
161
100
AcDbEntity
8
dimensions
6
CONTINUOUS
62
7
370
0
100
AcDbTrace
10
358.809600001
20
32.9600000001
30
0
11
359.225884659
21
30.4600000001
31
0
12
358.393315343
22
30.4600000001
32
0
13
358.393315343
23
30.4600000001
33
0
0
SOLID
5
162
100
AcDbEntity
8
dimensions
6
CONTINUOUS
62
7
370
0
100
AcDbTrace
10
358.809600001
20
9.96000000011
30
0
11
358.393315343
21
12.4600000001
31
0
12
359.225884659
22
12.4600000001
32
0
13
359.225884659
23
12.4600000001
33
0
0
MTEXT
5
163
100
AcDbEntity
8
dimensions
6
CONTINUOUS
62
7
370
0
100
AcDbMText
10
356.934600001
20
21.4600000001
30
0
40
2.5
41
3.05555555556
71
5
72
1
1
23
7
standard
210
0
220
0
230
1
50
90
73
2
44
1
0
LINE
5
164
100
AcDbEntity
8
dimensions
6
CONTINUOUS
62
7
370
0
100
AcDbLine
10
343.885000001
20
32.9600000001
11
360.059600001
21
32.9600000001
0
LINE
5
165
100
AcDbEntity
8
dimensions
6
CONTINUOUS
62
7
370
0
100
AcDbLine
10
343.885000001
20
9.96000000011
11
360.059600001
21
9.96000000011
0
ENDBLK
5
78
330
76
100
AcDbEntity
8
0
100
AcDbBlockEnd
0
BLOCK
5
7A
330
79
100
AcDbEntity
8
0
100
AcDbBlockBegin
2
*D38
70
1
10
0
20
0
3
*D38
1

0
LINE
5
166
100
AcDbEntity
8
dimensions
6
CONTINUOUS
62
7
370
0
100
AcDbLine
10
309.723533659
20
104.113112285
11
311.172418721
21
110.199991754
0
LINE
5
167
100
AcDbEntity
8
dimensions
6
CONTINUOUS
62
7
370
0
100
AcDbLine
10
323.343008166
20
100.871212513
11
324.791893228
21
106.958091982
0
LINE
5
168
100
AcDbEntity
8
dimensions
6
CONTINUOUS
62
7
370
0
100
AcDbLine
10
310.882963384
20
108.983967244
11
324.502437891
21
105.742067472
0
SOLID
5
169
100
AcDbEntity
8
dimensions
6
CONTINUOUS
62
7
370
0
100
AcDbTrace
10
310.882963384
20
108.983967244
30
0
11
313.411409056
21
108.810026448
31
0
12
313.218615751
22
108.000086693
32
0
13
313.218615751
23
108.000086693
33
0
0
SOLID
5
16A
100
AcDbEntity
8
dimensions
6
CONTINUOUS
62
7
370
0
100
AcDbTrace
10
324.502437891
20
105.742067472
30
0
11
321.973992219
21
105.916008268
31
0
12
322.166785525
22
106.725948023
32
0
13
322.166785525
23
106.725948023
33
0
0
MTEXT
5
16B
100
AcDbEntity
8
dimensions
6
CONTINUOUS
62
7
370
0
100
AcDbMText
10
318.126883643
20
109.187054122
30
0
40
2.5
41
2.77777777778
71
5
72
1
1
14
7
standard
210
0
220
0
230
1
50
346.610815667
73
2
44
1
0
ENDBLK
5
7B
330
79
100
AcDbEntity
8
0
100
AcDbBlockEnd
0
BLOCK
5
7D
330
7C
100
AcDbEntity
8
0
100
AcDbBlockBegin
2
*D45
70
1
10
0
20
0
3
*D45
1

0
LINE
5
16C
100
AcDbEntity
8
dimensions
6
CONTINUOUS
62
7
370
0
100
AcDbLine
10
472.4777859
20
73.0367680611
11
472.4777859
21
123.140514142
0
SOLID
5
16D
100
AcDbEntity
8
dimensions
6
CONTINUOUS
62
7
370
0
100
AcDbTrace
10
472.4777859
20
73.0367680611
30
0
11
472.061501242
21
75.5367680611
31
0
12
472.894070558
22
75.5367680611
32
0
13
472.894070558
23
75.5367680611
33
0
0
SOLID
5
16E
100
AcDbEntity
8
dimensions
6
CONTINUOUS
62
7
370
0
100
AcDbTrace
10
472.4777859
20
123.140514142
30
0
11
472.894070558
21
120.640514142
31
0
12
472.061501242
22
120.640514142
32
0
13
472.061501242
23
120.640514142
33
0
0
MTEXT
5
16F
100
AcDbEntity
8
dimensions
6
CONTINUOUS
62
7
370
0
100
AcDbMText
10
470.6027859
20
98.0886411016
30
0
40
2.5
41
11.1111111111
71
5
72
1
1
50.1037
7
standard
210
0
220
0
230
1
50
90
73
2
44
1
0
LINE
5
170
100
AcDbEntity
8
dimensions
6
CONTINUOUS
62
7
370
0
100
AcDbLine
10
425.962852261
20
73.0367680611
11
473.7277859
21
73.0367680611
0
LINE
5
171
100
AcDbEntity
8
dimensions
6
CONTINUOUS
62
7
370
0
100
AcDbLine
10
425.996082329
20
123.140514142
11
473.7277859
21
123.140514142
0
ENDBLK
5
7E
330
7C
100
AcDbEntity
8
0
100
AcDbBlockEnd
0
BLOCK
5
80
330
7F
100
AcDbEntity
8
0
100
AcDbBlockBegin
2
*D11
70
1
10
0
20
0
3
*D11
1

0
LINE
5
172
100
AcDbEntity
8
dimensions
6
CONTINUOUS
62
7
370
0
100
AcDbLine
10
28.9053928
20
-16.13824
11
28.9053928
21
-1.13824000001
0
SOLID
5
173
100
AcDbEntity
8
dimensions
6
CONTINUOUS
62
7
370
0
100
AcDbTrace
10
28.9053928
20
-11.13824
30
0
11
29.3216774578
21
-13.63824
31
0
12
28.4891081422
22
-13.63824
32
0
13
28.4891081422
23
-13.63824
33
0
0
SOLID
5
174
100
AcDbEntity
8
dimensions
6
CONTINUOUS
62
7
370
0
100
AcDbTrace
10
28.9053928
20
-6.13824000001
30
0
11
28.4891081422
21
-3.63824000001
31
0
12
29.3216774578
22
-3.63824000001
32
0
13
29.3216774578
23
-3.63824000001
33
0
0
MTEXT
5
175
100
AcDbEntity
8
dimensions
6
CONTINUOUS
62
7
370
0
100
AcDbMText
10
27.0303928
20
-8.63824000001
30
0
40
2.5
41
1.11111111111
71
5
72
1
1
5
7
standard
210
0
220
0
230
1
50
90
73
2
44
1
0
LINE
5
176
100
AcDbEntity
8
dimensions
6
CONTINUOUS
62
7
370
0
100
AcDbLine
10
33.58192
20
-11.13824
11
27.6553928
21
-11.13824
0
LINE
5
177
100
AcDbEntity
8
dimensions
6
CONTINUOUS
62
7
370
0
100
AcDbLine
10
33.58192
20
-6.13824000001
11
27.6553928
21
-6.13824000001
0
ENDBLK
5
81
330
7F
100
AcDbEntity
8
0
100
AcDbBlockEnd
0
BLOCK
5
83
330
82
100
AcDbEntity
8
0
100
AcDbBlockBegin
2
*D22
70
1
10
0
20
0
3
*D22
1

0
LINE
5
178
100
AcDbEntity
8
dimensions
6
CONTINUOUS
62
7
370
0
100
AcDbLine
10
275.841024001
20
25.785
11
275.841024001
21
38.285
0
SOLID
5
179
100
AcDbEntity
8
dimensions
6
CONTINUOUS
62
7
370
0
100
AcDbTrace
10
275.841024001
20
30.785
30
0
11
276.257308659
21
28.285
31
0
12
275.424739343
22
28.285
32
0
13
275.424739343
23
28.285
33
0
0
SOLID
5
17A
100
AcDbEntity
8
dimensions
6
CONTINUOUS
62
7
370
0
100
AcDbTrace
10
275.841024001
20
33.285
30
0
11
275.424739343
21
35.785
31
0
12
276.257308659
22
35.785
32
0
13
276.257308659
23
35.785
33
0
0
MTEXT
5
17B
100
AcDbEntity
8
dimensions
6
CONTINUOUS
62
7
370
0
100
AcDbMText
10
273.966024001
20
35.8544444444
30
0
40
2.5
41
3.88888888889
71
5
72
1
1
2.5
7
standard
210
0
220
0
230
1
50
90
73
2
44
1
0
LINE
5
17C
100
AcDbEntity
8
dimensions
6
CONTINUOUS
62
7
370
0
100
AcDbLine
10
265.5
20
30.785
11
277.091024001
21
30.785
0
LINE
5
17D
100
AcDbEntity
8
dimensions
6
CONTINUOUS
62
7
370
0
100
AcDbLine
10
269.324751653
20
33.285
11
277.091024001
21
33.285
0
ENDBLK
5
84
330
82
100
AcDbEntity
8
0
100
AcDbBlockEnd
0
BLOCK
5
86
330
85
100
AcDbEntity
8
0
100
AcDbBlockBegin
2
*D21
70
1
10
0
20
0
3
*D21
1

0
LINE
5
17E
100
AcDbEntity
8
dimensions
6
CONTINUOUS
62
7
370
0
100
AcDbLine
10
271.843328001
20
7.285
11
271.843328001
21
30.785
0
SOLID
5
17F
100
AcDbEntity
8
dimensions
6
CONTINUOUS
62
7
370
0
100
AcDbTrace
10
271.843328001
20
7.285
30
0
11
271.427043343
21
9.785
31
0
12
272.259612659
22
9.785
32
0
13
272.259612659
23
9.785
33
0
0
SOLID
5
180
100
AcDbEntity
8
dimensions
6
CONTINUOUS
62
7
370
0
100
AcDbTrace
10
271.843328001
20
30.785
30
0
11
272.259612659
21
28.285
31
0
12
271.427043343
22
28.285
32
0
13
271.427043343
23
28.285
33
0
0
MTEXT
5
181
100
AcDbEntity
8
dimensions
6
CONTINUOUS
62
7
370
0
100
AcDbMText
10
269.968328001
20
19.035
30
0
40
2.5
41
5.83333333333
71
5
72
1
1
23.5
7
standard
210
0
220
0
230
1
50
90
73
2
44
1
0
LINE
5
182
100
AcDbEntity
8
dimensions
6
CONTINUOUS
62
7
370
0
100
AcDbLine
10
265
20
7.285
11
273.093328001
21
7.285
0
LINE
5
183
100
AcDbEntity
8
dimensions
6
CONTINUOUS
62
7
370
0
100
AcDbLine
10
265.5
20
30.785
11
273.093328001
21
30.785
0
ENDBLK
5
87
330
85
100
AcDbEntity
8
0
100
AcDbBlockEnd
0
BLOCK
5
89
330
88
100
AcDbEntity
8
0
100
AcDbBlockBegin
2
*D33
70
1
10
0
20
0
3
*D33
1

0
LINE
5
184
100
AcDbEntity
8
dimensions
6
CONTINUOUS
62
7
370
0
100
AcDbLine
10
246.870105894
20
65.7208392399
11
246.870105894
21
79.6093284807
0
SOLID
5
185
100
AcDbEntity
8
dimensions
6
CONTINUOUS
62
7
370
0
100
AcDbTrace
10
246.870105894
20
70.7208392399
30
0
11
247.286390552
21
68.2208392399
31
0
12
246.453821236
22
68.2208392399
32
0
13
246.453821236
23
68.2208392399
33
0
0
SOLID
5
186
100
AcDbEntity
8
dimensions
6
CONTINUOUS
62
7
370
0
100
AcDbTrace
10
246.870105894
20
74.6093284807
30
0
11
246.453821236
21
77.1093284807
31
0
12
247.286390552
22
77.1093284807
32
0
13
247.286390552
23
77.1093284807
33
0
0
MTEXT
5
187
100
AcDbEntity
8
dimensions
6
CONTINUOUS
62
7
370
0
100
AcDbMText
10
244.995105894
20
80.0954395918
30
0
40
2.5
41
9.72222222222
71
5
72
1
1
3.8885
7
standard
210
0
220
0
230
1
50
90
73
2
44
1
0
LINE
5
188
100
AcDbEntity
8
dimensions
6
CONTINUOUS
62
7
370
0
100
AcDbLine
10
319.65294951
20
70.7208392399
11
245.620105894
21
70.7208392399
0
LINE
5
189
100
AcDbEntity
8
dimensions
6
CONTINUOUS
62
7
370
0
100
AcDbLine
10
291.206475953
20
74.6093284807
11
245.620105894
21
74.6093284807
0
ENDBLK
5
8A
330
88
100
AcDbEntity
8
0
100
AcDbBlockEnd
0
BLOCK
5
8C
330
8B
100
AcDbEntity
8
0
100
AcDbBlockBegin
2
*D43
70
1
10
0
20
0
3
*D43
1

0
LINE
5
18A
100
AcDbEntity
8
dimensions
6
CONTINUOUS
62
7
370
0
100
AcDbLine
10
421.160245357
20
73.2115188422
11
421.160245357
21
85.9381907205
0
SOLID
5
18B
100
AcDbEntity
8
dimensions
6
CONTINUOUS
62
7
370
0
100
AcDbTrace
10
421.160245357
20
78.2115188422
30
0
11
421.576530015
21
75.7115188422
31
0
12
420.743960699
22
75.7115188422
32
0
13
420.743960699
23
75.7115188422
33
0
0
SOLID
5
18C
100
AcDbEntity
8
dimensions
6
CONTINUOUS
62
7
370
0
100
AcDbTrace
10
421.160245357
20
80.9381907205
30
0
11
420.743960699
21
83.4381907205
31
0
12
421.576530015
22
83.4381907205
32
0
13
421.576530015
23
83.4381907205
33
0
0
MTEXT
5
18D
100
AcDbEntity
8
dimensions
6
CONTINUOUS
62
7
370
0
100
AcDbMText
10
419.285245357
20
86.4243018317
30
0
40
2.5
41
9.72222222222
71
5
72
1
1
2.7267
7
standard
210
0
220
0
230
1
50
90
73
2
44
1
0
LINE
5
18E
100
AcDbEntity
8
dimensions
6
CONTINUOUS
62
7
370
0
100
AcDbLine
10
422.216283737
20
78.2115188422
11
419.910245357
21
78.2115188422
0
LINE
5
18F
100
AcDbEntity
8
dimensions
6
CONTINUOUS
62
7
370
0
100
AcDbLine
10
422.718092244
20
80.9381907205
11
419.910245357
21
80.9381907205
0
ENDBLK
5
8D
330
8B
100
AcDbEntity
8
0
100
AcDbBlockEnd
0
BLOCK
5
8F
330
8E
100
AcDbEntity
8
0
100
AcDbBlockBegin
2
*D49
70
1
10
0
20
0
3
*D49
1

0
SOLID
5
190
100
AcDbEntity
8
dimensions
6
CONTINUOUS
62
7
370
0
100
AcDbTrace
10
142.715992372
20
127.144144262
30
0
11
141.132895223
21
125.164978697
31
0
12
140.576980632
22
125.784761427
32
0
13
140.576980632
23
125.784761427
33
0
0
LINE
5
191
100
AcDbEntity
8
dimensions
6
CONTINUOUS
62
7
370
0
100
AcDbLine
10
126.236842105
20
112.363157895
11
142.715992372
21
127.144144262
0
MTEXT
5
192
100
AcDbEntity
8
dimensions
6
CONTINUOUS
62
7
370
0
100
AcDbMText
10
133.224461589
20
121.149441912
30
0
40
2.5
41
11.1111111111
71
5
72
1
1
22.1368
7
standard
210
0
220
0
230
1
50
41.8905419579
73
2
44
1
0
ENDBLK
5
90
330
8E
100
AcDbEntity
8
0
100
AcDbBlockEnd
0
BLOCK
5
92
330
91
100
AcDbEntity
8
0
100
AcDbBlockBegin
2
*D24
70
1
10
0
20
0
3
*D24
1

0
SOLID
5
193
100
AcDbEntity
8
dimensions
6
CONTINUOUS
62
7
370
0
100
AcDbTrace
10
265.23552196
20
39.6791762258
30
0
11
263.830570819
21
37.5698148989
31
0
12
263.222854858
22
38.1388957153
32
0
13
263.222854858
23
38.1388957153
33
0
0
LINE
5
194
100
AcDbEntity
8
dimensions
6
CONTINUOUS
62
7
370
0
100
AcDbLine
10
257.375
20
31.285
11
265.23552196
21
39.6791762258
0
MTEXT
5
195
100
AcDbEntity
8
dimensions
6
CONTINUOUS
62
7
370
0
100
AcDbMText
10
259.936645291
20
36.7636949543
30
0
40
2.5
41
4.72222222222
71
5
72
1
1
11.5
7
standard
210
0
220
0
230
1
50
46.8803891839
73
2
44
1
0
ENDBLK
5
93
330
91
100
AcDbEntity
8
0
100
AcDbBlockEnd
0
BLOCK
5
95
330
94
100
AcDbEntity
8
0
100
AcDbBlockBegin
2
*D19
70
1
10
0
20
0
3
*D19
1

0
LINE
5
196
100
AcDbEntity
8
dimensions
6
CONTINUOUS
62
7
370
0
100
AcDbLine
10
338.231296001
20
4.96000000011
11
338.231296001
21
18.4600000001
0
SOLID
5
197
100
AcDbEntity
8
dimensions
6
CONTINUOUS
62
7
370
0
100
AcDbTrace
10
338.231296001
20
9.96000000011
30
0
11
338.647580659
21
7.46000000011
31
0
12
337.815011343
22
7.46000000011
32
0
13
337.815011343
23
7.46000000011
33
0
0
SOLID
5
198
100
AcDbEntity
8
dimensions
6
CONTINUOUS
62
7
370
0
100
AcDbTrace
10
338.231296001
20
13.4600000001
30
0
11
337.815011343
21
15.9600000001
31
0
12
338.647580659
22
15.9600000001
32
0
13
338.647580659
23
15.9600000001
33
0
0
MTEXT
5
199
100
AcDbEntity
8
dimensions
6
CONTINUOUS
62
7
370
0
100
AcDbMText
10
336.356296001
20
16.0294444445
30
0
40
2.5
41
3.88888888889
71
5
72
1
1
3.5
7
standard
210
0
220
0
230
1
50
90
73
2
44
1
0
LINE
5
19A
100
AcDbEntity
8
dimensions
6
CONTINUOUS
62
7
370
0
100
AcDbLine
10
338.635000001
20
9.96000000011
11
336.981296001
21
9.96000000011
0
LINE
5
19B
100
AcDbEntity
8
dimensions
6
CONTINUOUS
62
7
370
0
100
AcDbLine
10
333.135000001
20
13.4600000001
11
336.981296001
21
13.4600000001
0
ENDBLK
5
96
330
94
100
AcDbEntity
8
0
100
AcDbBlockEnd
0
BLOCK
5
98
330
97
100
AcDbEntity
8
0
100
AcDbBlockBegin
2
*D48
70
1
10
0
20
0
3
*D48
1

0
LINE
5
19C
100
AcDbEntity
8
dimensions
6
CONTINUOUS
62
7
370
0
100
AcDbLine
10
82.048000002
20
107.5
11
82.048000002
21
134.999999912
0
SOLID
5
19D
100
AcDbEntity
8
dimensions
6
CONTINUOUS
62
7
370
0
100
AcDbTrace
10
82.048000002
20
107.5
30
0
11
81.6317153442
21
110
31
0
12
82.4642846598
22
110
32
0
13
82.4642846598
23
110
33
0
0
SOLID
5
19E
100
AcDbEntity
8
dimensions
6
CONTINUOUS
62
7
370
0
100
AcDbTrace
10
82.048000002
20
134.999999912
30
0
11
82.4642846598
21
132.499999912
31
0
12
81.6317153442
22
132.499999912
32
0
13
81.6317153442
23
132.499999912
33
0
0
MTEXT
5
19F
100
AcDbEntity
8
dimensions
6
CONTINUOUS
62
7
370
0
100
AcDbMText
10
80.173000002
20
121.249999956
30
0
40
2.5
41
5.83333333333
71
5
72
1
1
27.5
7
standard
210
0
220
0
230
1
50
90
73
2
44
1
0
LINE
5
1A0
100
AcDbEntity
8
dimensions
6
CONTINUOUS
62
7
370
0
100
AcDbLine
10
110.125
20
107.5
11
80.798000002
21
107.5
0
LINE
5
1A1
100
AcDbEntity
8
dimensions
6
CONTINUOUS
62
7
370
0
100
AcDbLine
10
125.625297194
20
134.999999912
11
80.798000002
21
134.999999912
0
ENDBLK
5
99
330
97
100
AcDbEntity
8
0
100
AcDbBlockEnd
0
BLOCK
5
9B
330
9A
100
AcDbEntity
8
0
100
AcDbBlockBegin
2
*D27
70
1
10
0
20
0
3
*D27
1

0
SOLID
5
1A2
100
AcDbEntity
8
dimensions
6
CONTINUOUS
62
7
370
0
100
AcDbTrace
10
264.831504841
20
71.3234559719
30
0
11
265.251979339
21
68.8241572477
31
0
12
264.419411193
22
68.82276172
32
0
13
264.419411193
23
68.82276172
33
0
0
LINE
5
1A3
100
AcDbEntity
8
dimensions
6
CONTINUOUS
62
7
370
0
100
AcDbLine
10
264.828152501
20
73.3234531623
11
264.841748102
21
65.2123534455
0
MTEXT
5
1A4
100
AcDbEntity
8
dimensions
6
CONTINUOUS
62
7
370
0
100
AcDbMText
10
266.711623837
20
68.2710475272
30
0
40
2.5
41
1.11111111111
71
5
72
1
1
2
7
standard
210
0
220
0
230
1
50
270.096037512
73
2
44
1
0
ENDBLK
5
9C
330
9A
100
AcDbEntity
8
0
100
AcDbBlockEnd
0
BLOCK
5
9E
330
9D
100
AcDbEntity
8
0
100
AcDbBlockBegin
2
*D51
70
1
10
0
20
0
3
*D51
1

0
LINE
5
1A5
100
AcDbEntity
8
dimensions
6
CONTINUOUS
62
7
370
0
100
AcDbLine
10
93.4490931223
20
111.532539569
11
93.4490931223
21
125.230406792
0
SOLID
5
1A6
100
AcDbEntity
8
dimensions
6
CONTINUOUS
62
7
370
0
100
AcDbTrace
10
93.4490931223
20
111.532539569
30
0
11
93.0328084645
21
114.032539569
31
0
12
93.8653777801
22
114.032539569
32
0
13
93.8653777801
23
114.032539569
33
0
0
SOLID
5
1A7
100
AcDbEntity
8
dimensions
6
CONTINUOUS
62
7
370
0
100
AcDbTrace
10
93.4490931223
20
125.230406792
30
0
11
93.8653777801
21
122.730406792
31
0
12
93.0328084645
22
122.730406792
32
0
13
93.0328084645
23
122.730406792
33
0
0
MTEXT
5
1A8
100
AcDbEntity
8
dimensions
6
CONTINUOUS
62
7
370
0
100
AcDbMText
10
91.5740931223
20
118.38147318
30
0
40
2.5
41
11.1111111111
71
5
72
1
1
13.6979
7
standard
210
0
220
0
230
1
50
90
73
2
44
1
0
LINE
5
1A9
100
AcDbEntity
8
dimensions
6
CONTINUOUS
62
7
370
0
100
AcDbLine
10
107.623940053
20
111.532539569
11
92.1990931223
21
111.532539569
0
LINE
5
1AA
100
AcDbEntity
8
dimensions
6
CONTINUOUS
62
7
370
0
100
AcDbLine
10
107.625
20
125.230406792
11
92.1990931223
21
125.230406792
0
ENDBLK
5
9F
330
9D
100
AcDbEntity
8
0
100
AcDbBlockEnd
0
BLOCK
5
A1
330
A0
100
AcDbEntity
8
0
100
AcDbBlockBegin
2
*D55
70
1
10
0
20
0
3
*D55
1

0
LINE
5
1AB
100
AcDbEntity
8
dimensions
6
CONTINUOUS
62
7
370
0
100
AcDbLine
10
37.035704321
20
132.032000003
11
37.035704321
21
119.032000003
0
SOLID
5
1AC
100
AcDbEntity
8
dimensions
6
CONTINUOUS
62
7
370
0
100
AcDbTrace
10
37.035704321
20
127.032000003
30
0
11
36.6194196632
21
129.532000003
31
0
12
37.4519889788
22
129.532000003
32
0
13
37.4519889788
23
129.532000003
33
0
0
SOLID
5
1AD
100
AcDbEntity
8
dimensions
6
CONTINUOUS
62
7
370
0
100
AcDbTrace
10
37.035704321
20
124.032000003
30
0
11
37.4519889788
21
121.532000003
31
0
12
36.6194196632
22
121.532000003
32
0
13
36.6194196632
23
121.532000003
33
0
0
MTEXT
5
1AE
100
AcDbEntity
8
dimensions
6
CONTINUOUS
62
7
370
0
100
AcDbMText
10
35.160704321
20
125.532000003
30
0
40
2.5
41
1.11111111111
71
5
72
1
1
3
7
standard
210
0
220
0
230
1
50
90
73
2
44
1
0
LINE
5
1AF
100
AcDbEntity
8
dimensions
6
CONTINUOUS
62
7
370
0
100
AcDbLine
10
33.0510000005
20
127.032000003
11
38.285704321
21
127.032000003
0
LINE
5
1B0
100
AcDbEntity
8
dimensions
6
CONTINUOUS
62
7
370
0
100
AcDbLine
10
33.0510000005
20
124.032000003
11
38.285704321
21
124.032000003
0
ENDBLK
5
A2
330
A0
100
AcDbEntity
8
0
100
AcDbBlockEnd
0
BLOCK
5
A4
330
A3
100
AcDbEntity
8
0
100
AcDbBlockBegin
2
*D9
70
1
10
0
20
0
3
*D9
1

0
LINE
5
1B1
100
AcDbEntity
8
dimensions
6
CONTINUOUS
62
7
370
0
100
AcDbLine
10
34.20692
20
-31.51584
11
75.20692
21
-31.51584
0
SOLID
5
1B2
100
AcDbEntity
8
dimensions
6
CONTINUOUS
62
7
370
0
100
AcDbTrace
10
34.20692
20
-31.51584
30
0
11
36.70692
21
-31.0995553422
31
0
12
36.70692
22
-31.9321246578
32
0
13
36.70692
23
-31.9321246578
33
0
0
SOLID
5
1B3
100
AcDbEntity
8
dimensions
6
CONTINUOUS
62
7
370
0
100
AcDbTrace
10
75.20692
20
-31.51584
30
0
11
72.70692
21
-31.9321246578
31
0
12
72.70692
22
-31.0995553422
32
0
13
72.70692
23
-31.0995553422
33
0
0
MTEXT
5
1B4
100
AcDbEntity
8
dimensions
6
CONTINUOUS
62
7
370
0
100
AcDbMText
10
54.70692
20
-29.64084
30
0
40
2.5
41
2.77777777778
71
5
72
1
1
41
7
standard
210
0
220
0
230
1
50
0
73
2
44
1
0
LINE
5
1B5
100
AcDbEntity
8
dimensions
6
CONTINUOUS
62
7
370
0
100
AcDbLine
10
34.20692
20
-11.76324
11
34.20692
21
-32.76584
0
LINE
5
1B6
100
AcDbEntity
8
dimensions
6
CONTINUOUS
62
7
370
0
100
AcDbLine
10
75.20692
20
-10.51324
11
75.20692
21
-32.76584
0
ENDBLK
5
A5
330
A3
100
AcDbEntity
8
0
100
AcDbBlockEnd
0
BLOCK
5
A7
330
A6
100
AcDbEntity
8
0
100
AcDbBlockBegin
2
*D41
70
1
10
0
20
0
3
*D41
1

0
LINE
5
1B7
100
AcDbEntity
8
dimensions
6
CONTINUOUS
62
7
370
0
100
AcDbLine
10
327.060769443
20
96.5169615903
11
334.458859269
21
94.7559637116
0
LINE
5
1B8
100
AcDbEntity
8
dimensions
6
CONTINUOUS
62
7
370
0
100
AcDbLine
10
327.871244386
20
99.9218302176
11
335.269334212
21
98.1608323389
0
LINE
5
1B9
100
AcDbEntity
8
dimensions
6
CONTINUOUS
62
7
370
0
100
AcDbLine
10
332.085013412
20
90.1813210099
11
335.211131049
21
103.314385714
0
SOLID
5
1BA
100
AcDbEntity
8
dimensions
6
CONTINUOUS
62
7
370
0
100
AcDbTrace
10
333.242834759
20
95.0454190484
30
0
11
333.068893963
21
92.5169733765
31
0
12
332.258954208
22
92.7097666818
32
0
13
332.258954208
23
92.7097666818
33
0
0
SOLID
5
1BB
100
AcDbEntity
8
dimensions
6
CONTINUOUS
62
7
370
0
100
AcDbTrace
10
334.053309702
20
98.4502876757
30
0
11
334.227250498
21
100.978733348
31
0
12
335.037190253
22
100.785940042
32
0
13
335.037190253
23
100.785940042
33
0
0
MTEXT
5
1BC
100
AcDbEntity
8
dimensions
6
CONTINUOUS
62
7
370
0
100
AcDbMText
10
332.824264463
20
101.384076617
30
0
40
2.5
41
3.88888888889
71
5
72
1
1
3.5
7
standard
210
0
220
0
230
1
50
76.6108156688
73
2
44
1
0
ENDBLK
5
A8
330
A6
100
AcDbEntity
8
0
100
AcDbBlockEnd
0
BLOCK
5
AA
330
A9
100
AcDbEntity
8
0
100
AcDbBlockBegin
2
*D39
70
1
10
0
20
0
3
*D39
1

0
LINE
5
1BD
100
AcDbEntity
8
dimensions
6
CONTINUOUS
62
7
370
0
100
AcDbLine
10
321.883778755
20
101.218558917
11
322.420985269
21
103.475405499
0
LINE
5
1BE
100
AcDbEntity
8
dimensions
6
CONTINUOUS
62
7
370
0
100
AcDbLine
10
311.18276307
20
103.765765881
11
311.719969584
21
106.022612463
0
LINE
5
1BF
100
AcDbEntity
8
dimensions
6
CONTINUOUS
62
7
370
0
100
AcDbLine
10
322.131529932
20
102.259380989
11
311.430514247
21
104.806587953
0
SOLID
5
1C0
100
AcDbEntity
8
dimensions
6
CONTINUOUS
62
7
370
0
100
AcDbTrace
10
322.131529932
20
102.259380989
30
0
11
319.60308426
21
102.433321785
31
0
12
319.795877566
22
103.24326154
32
0
13
319.795877566
23
103.24326154
33
0
0
SOLID
5
1C1
100
AcDbEntity
8
dimensions
6
CONTINUOUS
62
7
370
0
100
AcDbTrace
10
311.430514247
20
104.806587953
30
0
11
313.958959919
21
104.632647157
31
0
12
313.766166614
22
103.822707402
32
0
13
313.766166614
23
103.822707402
33
0
0
MTEXT
5
1C2
100
AcDbEntity
8
dimensions
6
CONTINUOUS
62
7
370
0
100
AcDbMText
10
317.215205095
20
105.357021235
30
0
40
2.5
41
1.94444444444
71
5
72
1
1
11
7
standard
210
0
220
0
230
1
50
346.610815666
73
2
44
1
0
ENDBLK
5
AB
330
A9
100
AcDbEntity
8
0
100
AcDbBlockEnd
0
BLOCK
5
AD
330
AC
100
AcDbEntity
8
0
100
AcDbBlockBegin
2
*D3
70
1
10
0
20
0
3
*D3
1

0
LINE
5
1C3
100
AcDbEntity
8
dimensions
6
CONTINUOUS
62
7
370
0
100
AcDbLine
10
104.387837952
20
102.5
11
104.387837952
21
114.5
0
SOLID
5
1C4
100
AcDbEntity
8
dimensions
6
CONTINUOUS
62
7
370
0
100
AcDbTrace
10
104.387837952
20
107.5
30
0
11
104.80412261
21
105
31
0
12
103.971553294
22
105
32
0
13
103.971553294
23
105
33
0
0
SOLID
5
1C5
100
AcDbEntity
8
dimensions
6
CONTINUOUS
62
7
370
0
100
AcDbTrace
10
104.387837952
20
109.5
30
0
11
103.971553294
21
112
31
0
12
104.80412261
22
112
32
0
13
104.80412261
23
112
33
0
0
MTEXT
5
1C6
100
AcDbEntity
8
dimensions
6
CONTINUOUS
62
7
370
0
100
AcDbMText
10
102.512837952
20
108.5
30
0
40
2.5
41
1.11111111111
71
5
72
1
1
2
7
standard
210
0
220
0
230
1
50
90
73
2
44
1
0
LINE
5
1C7
100
AcDbEntity
8
dimensions
6
CONTINUOUS
62
7
370
0
100
AcDbLine
10
109.625
20
107.5
11
103.137837952
21
107.5
0
LINE
5
1C8
100
AcDbEntity
8
dimensions
6
CONTINUOUS
62
7
370
0
100
AcDbLine
10
107.125
20
109.5
11
103.137837952
21
109.5
0
ENDBLK
5
AE
330
AC
100
AcDbEntity
8
0
100
AcDbBlockEnd
0
BLOCK
5
B0
330
AF
100
AcDbEntity
8
0
100
AcDbBlockBegin
2
*D52
70
1
10
0
20
0
3
*D52
1

0
LINE
5
1C9
100
AcDbEntity
8
dimensions
6
CONTINUOUS
62
7
370
0
100
AcDbLine
10
150.942515204
20
125.267167451
11
150.942515204
21
134.5
0
SOLID
5
1CA
100
AcDbEntity
8
dimensions
6
CONTINUOUS
62
7
370
0
100
AcDbTrace
10
150.942515204
20
125.267167451
30
0
11
150.526230546
21
127.767167451
31
0
12
151.358799862
22
127.767167451
32
0
13
151.358799862
23
127.767167451
33
0
0
SOLID
5
1CB
100
AcDbEntity
8
dimensions
6
CONTINUOUS
62
7
370
0
100
AcDbTrace
10
150.942515204
20
134.5
30
0
11
151.358799862
21
132
31
0
12
150.526230546
22
132
32
0
13
150.526230546
23
132
33
0
0
MTEXT
5
1CC
100
AcDbEntity
8
dimensions
6
CONTINUOUS
62
7
370
0
100
AcDbMText
10
149.067515204
20
139.986111111
30
0
40
2.5
41
9.72222222222
71
5
72
1
1
9.2328
7
standard
210
0
220
0
230
1
50
90
73
2
44
1
0
LINE
5
1CD
100
AcDbEntity
8
dimensions
6
CONTINUOUS
62
7
370
0
100
AcDbLine
10
144.875
20
125.267167451
11
152.192515204
21
125.267167451
0
LINE
5
1CE
100
AcDbEntity
8
dimensions
6
CONTINUOUS
62
7
370
0
100
AcDbLine
10
126.875
20
134.5
11
152.192515204
21
134.5
0
ENDBLK
5
B1
330
AF
100
AcDbEntity
8
0
100
AcDbBlockEnd
0
BLOCK
5
B3
330
B2
100
AcDbEntity
8
0
100
AcDbBlockBegin
2
*D54
70
1
10
0
20
0
3
*D54
1

0
LINE
5
1CF
100
AcDbEntity
8
dimensions
6
CONTINUOUS
62
7
370
0
100
AcDbLine
10
22.6072985606
20
122.032000003
11
22.6072985606
21
135.032000003
0
SOLID
5
1D0
100
AcDbEntity
8
dimensions
6
CONTINUOUS
62
7
370
0
100
AcDbTrace
10
22.6072985606
20
127.032000003
30
0
11
23.0235832184
21
124.532000003
31
0
12
22.1910139028
22
124.532000003
32
0
13
22.1910139028
23
124.532000003
33
0
0
SOLID
5
1D1
100
AcDbEntity
8
dimensions
6
CONTINUOUS
62
7
370
0
100
AcDbTrace
10
22.6072985606
20
130.032000003
30
0
11
22.1910139028
21
132.532000003
31
0
12
23.0235832184
22
132.532000003
32
0
13
23.0235832184
23
132.532000003
33
0
0
MTEXT
5
1D2
100
AcDbEntity
8
dimensions
6
CONTINUOUS
62
7
370
0
100
AcDbMText
10
20.7322985606
20
128.532000003
30
0
40
2.5
41
1.11111111111
71
5
72
1
1
3
7
standard
210
0
220
0
230
1
50
90
73
2
44
1
0
LINE
5
1D3
100
AcDbEntity
8
dimensions
6
CONTINUOUS
62
7
370
0
100
AcDbLine
10
18.5510000005
20
127.032000003
11
23.8572985606
21
127.032000003
0
LINE
5
1D4
100
AcDbEntity
8
dimensions
6
CONTINUOUS
62
7
370
0
100
AcDbLine
10
18.5510000005
20
130.032000003
11
23.8572985606
21
130.032000003
0
ENDBLK
5
B4
330
B2
100
AcDbEntity
8
0
100
AcDbBlockEnd
0
BLOCK
5
B6
330
B5
100
AcDbEntity
8
0
100
AcDbBlockBegin
2
*D53
70
1
10
0
20
0
3
*D53
1

0
LINE
5
1D5
100
AcDbEntity
8
dimensions
6
CONTINUOUS
62
7
370
0
100
AcDbLine
10
11.1736258563
20
103.032000003
11
11.1736258563
21
115.532000003
0
SOLID
5
1D6
100
AcDbEntity
8
dimensions
6
CONTINUOUS
62
7
370
0
100
AcDbTrace
10
11.1736258563
20
108.032000003
30
0
11
11.5899105141
21
105.532000003
31
0
12
10.7573411985
22
105.532000003
32
0
13
10.7573411985
23
105.532000003
33
0
0
SOLID
5
1D7
100
AcDbEntity
8
dimensions
6
CONTINUOUS
62
7
370
0
100
AcDbTrace
10
11.1736258563
20
110.532000003
30
0
11
10.7573411985
21
113.032000003
31
0
12
11.5899105141
22
113.032000003
32
0
13
11.5899105141
23
113.032000003
33
0
0
MTEXT
5
1D8
100
AcDbEntity
8
dimensions
6
CONTINUOUS
62
7
370
0
100
AcDbMText
10
9.2986258563
20
113.101444447
30
0
40
2.5
41
3.88888888889
71
5
72
1
1
2.5
7
standard
210
0
220
0
230
1
50
90
73
2
44
1
0
LINE
5
1D9
100
AcDbEntity
8
dimensions
6
CONTINUOUS
62
7
370
0
100
AcDbLine
10
15.0510000005
20
108.032000003
11
9.9236258563
21
108.032000003
0
LINE
5
1DA
100
AcDbEntity
8
dimensions
6
CONTINUOUS
62
7
370
0
100
AcDbLine
10
15.3010000005
20
110.532000003
11
9.9236258563
21
110.532000003
0
ENDBLK
5
B7
330
B5
100
AcDbEntity
8
0
100
AcDbBlockEnd
0
BLOCK
5
B9
330
B8
100
AcDbEntity
8
0
100
AcDbBlockBegin
2
*D35
70
1
10
0
20
0
3
*D35
1

0
LINE
5
1DB
100
AcDbEntity
8
dimensions
6
CONTINUOUS
62
7
370
0
100
AcDbLine
10
323.124176863
20
79.9790282595
11
336.238147551
21
76.85745565
0
LINE
5
1DC
100
AcDbEntity
8
dimensions
6
CONTINUOUS
62
7
370
0
100
AcDbLine
10
327.060769443
20
96.5169615903
11
340.174740131
21
93.3953889808
0
LINE
5
1DD
100
AcDbEntity
8
dimensions
6
CONTINUOUS
62
7
370
0
100
AcDbLine
10
335.022123041
20
77.1469109867
11
338.958715621
21
93.6848443175
0
SOLID
5
1DE
100
AcDbEntity
8
dimensions
6
CONTINUOUS
62
7
370
0
100
AcDbTrace
10
335.022123041
20
77.1469109867
30
0
11
335.196063837
21
79.6753566586
31
0
12
336.006003592
22
79.4825633533
32
0
13
336.006003592
23
79.4825633533
33
0
0
SOLID
5
1DF
100
AcDbEntity
8
dimensions
6
CONTINUOUS
62
7
370
0
100
AcDbTrace
10
338.958715621
20
93.6848443175
30
0
11
338.784774825
21
91.1563986456
31
0
12
337.97483507
22
91.3491919509
32
0
13
337.97483507
23
91.3491919509
33
0
0
MTEXT
5
1E0
100
AcDbEntity
8
dimensions
6
CONTINUOUS
62
7
370
0
100
AcDbMText
10
335.166382566
20
85.850060657
30
0
40
2.5
41
2.5
71
5
72
1
1
17
7
standard
210
0
220
0
230
1
50
76.6108156683
73
2
44
1
0
ENDBLK
5
BA
330
B8
100
AcDbEntity
8
0
100
AcDbBlockEnd
0
BLOCK
5
BC
330
BB
100
AcDbEntity
8
0
100
AcDbBlockBegin
2
*D26
70
1
10
0
20
0
3
*D26
1

0
LINE
5
1E1
100
AcDbEntity
8
dimensions
6
CONTINUOUS
62
7
370
0
100
AcDbLine
10
252.703477242
20
110.990962765
11
246.984644391
21
109.637698392
0
LINE
5
1E2
100
AcDbEntity
8
dimensions
6
CONTINUOUS
62
7
370
0
100
AcDbLine
10
261.223603005
20
74.9853040845
11
255.504770154
21
73.6320397118
0
LINE
5
1E3
100
AcDbEntity
8
dimensions
6
CONTINUOUS
62
7
370
0
100
AcDbLine
10
248.201051779
20
109.925540479
11
256.721177542
21
73.9198817984
0
SOLID
5
1E4
100
AcDbEntity
8
dimensions
6
CONTINUOUS
62
7
370
0
100
AcDbTrace
10
248.201051779
20
109.925540479
30
0
11
249.181833339
21
107.588585099
31
0
12
248.371638566
22
107.396866307
32
0
13
248.371638566
23
107.396866307
33
0
0
SOLID
5
1E5
100
AcDbEntity
8
dimensions
6
CONTINUOUS
62
7
370
0
100
AcDbTrace
10
256.721177542
20
73.9198817984
30
0
11
255.740395982
21
76.2568371785
31
0
12
256.550590755
22
76.4485559697
32
0
13
256.550590755
23
76.4485559697
33
0
0
MTEXT
5
1E6
100
AcDbEntity
8
dimensions
6
CONTINUOUS
62
7
370
0
100
AcDbMText
10
250.636503578
20
91.490948008
30
0
40
2.5
41
3.05555555556
71
5
72
1
1
37
7
standard
210
0
220
0
230
1
50
283.313184331
73
2
44
1
0
ENDBLK
5
BD
330
BB
100
AcDbEntity
8
0
100
AcDbBlockEnd
0
BLOCK
5
BF
330
BE
100
AcDbEntity
8
0
100
AcDbBlockBegin
2
*D44
70
1
10
0
20
0
3
*D44
1

0
LINE
5
1E7
100
AcDbEntity
8
dimensions
6
CONTINUOUS
62
7
370
0
100
AcDbLine
10
428.736836102
20
78.8510970875
11
428.736836102
21
93.3607261745
0
SOLID
5
1E8
100
AcDbEntity
8
dimensions
6
CONTINUOUS
62
7
370
0
100
AcDbTrace
10
428.736836102
20
83.8510970875
30
0
11
429.15312076
21
81.3510970875
31
0
12
428.320551444
22
81.3510970875
32
0
13
428.320551444
23
81.3510970875
33
0
0
SOLID
5
1E9
100
AcDbEntity
8
dimensions
6
CONTINUOUS
62
7
370
0
100
AcDbTrace
10
428.736836102
20
88.3607261745
30
0
11
428.320551444
21
90.8607261745
31
0
12
429.15312076
22
90.8607261745
32
0
13
429.15312076
23
90.8607261745
33
0
0
MTEXT
5
1EA
100
AcDbEntity
8
dimensions
6
CONTINUOUS
62
7
370
0
100
AcDbMText
10
426.861836102
20
93.9857261745
30
0
40
2.5
41
10
71
5
72
1
1
4.5096
7
standard
210
0
220
0
230
1
50
90
73
2
44
1
0
LINE
5
1EB
100
AcDbEntity
8
dimensions
6
CONTINUOUS
62
7
370
0
100
AcDbLine
10
425.470024487
20
83.8510970875
11
429.986836102
21
83.8510970875
0
LINE
5
1EC
100
AcDbEntity
8
dimensions
6
CONTINUOUS
62
7
370
0
100
AcDbLine
10
425.473015387
20
88.3607261745
11
429.986836102
21
88.3607261745
0
ENDBLK
5
C0
330
BE
100
AcDbEntity
8
0
100
AcDbBlockEnd
0
BLOCK
5
C2
330
C1
100
AcDbEntity
8
0
100
AcDbBlockBegin
2
*D17
70
1
10
0
20
0
3
*D17
1

0
LINE
5
1ED
100
AcDbEntity
8
dimensions
6
CONTINUOUS
62
7
370
0
100
AcDbLine
10
325.760000001
20
-7.36000000002
11
339.260000001
21
-7.36000000002
0
SOLID
5
1EE
100
AcDbEntity
8
dimensions
6
CONTINUOUS
62
7
370
0
100
AcDbTrace
10
325.760000001
20
-7.36000000002
30
0
11
328.260000001
21
-6.94371534225
31
0
12
328.260000001
22
-7.77628465779
32
0
13
328.260000001
23
-7.77628465779
33
0
0
SOLID
5
1EF
100
AcDbEntity
8
dimensions
6
CONTINUOUS
62
7
370
0
100
AcDbTrace
10
339.260000001
20
-7.36000000002
30
0
11
336.760000001
21
-7.77628465779
31
0
12
336.760000001
22
-6.94371534225
32
0
13
336.760000001
23
-6.94371534225
33
0
0
MTEXT
5
1F0
100
AcDbEntity
8
dimensions
6
CONTINUOUS
62
7
370
0
100
AcDbMText
10
332.510000001
20
-5.48500000002
30
0
40
2.5
41
5.27777777778
71
5
72
1
1
13.5
7
standard
210
0
220
0
230
1
50
0
73
2
44
1
0
LINE
5
1F1
100
AcDbEntity
8
dimensions
6
CONTINUOUS
62
7
370
0
100
AcDbLine
10
325.760000001
20
5.33500000011
11
325.760000001
21
-8.61000000002
0
LINE
5
1F2
100
AcDbEntity
8
dimensions
6
CONTINUOUS
62
7
370
0
100
AcDbLine
10
339.260000001
20
5.33500000011
11
339.260000001
21
-8.61000000002
0
ENDBLK
5
C3
330
C1
100
AcDbEntity
8
0
100
AcDbBlockEnd
0
BLOCK
5
C5
330
C4
100
AcDbEntity
8
0
100
AcDbBlockBegin
2
*D4
70
1
10
0
20
0
3
*D4
1

0
LINE
5
1F3
100
AcDbEntity
8
dimensions
6
CONTINUOUS
62
7
370
0
100
AcDbLine
10
151.519232
20
112.5
11
151.519232
21
97.5
0
SOLID
5
1F4
100
AcDbEntity
8
dimensions
6
CONTINUOUS
62
7
370
0
100
AcDbTrace
10
151.519232
20
107.5
30
0
11
151.102947342
21
110
31
0
12
151.935516658
22
110
32
0
13
151.935516658
23
110
33
0
0
SOLID
5
1F5
100
AcDbEntity
8
dimensions
6
CONTINUOUS
62
7
370
0
100
AcDbTrace
10
151.519232
20
102.5
30
0
11
151.935516658
21
100
31
0
12
151.102947342
22
100
32
0
13
151.102947342
23
100
33
0
0
MTEXT
5
1F6
100
AcDbEntity
8
dimensions
6
CONTINUOUS
62
7
370
0
100
AcDbMText
10
149.644232
20
105
30
0
40
2.5
41
1.11111111111
71
5
72
1
1
5
7
standard
210
0
220
0
230
1
50
90
73
2
44
1
0
LINE
5
1F7
100
AcDbEntity
8
dimensions
6
CONTINUOUS
62
7
370
0
100
AcDbLine
10
142.875
20
107.5
11
152.769232
21
107.5
0
LINE
5
1F8
100
AcDbEntity
8
dimensions
6
CONTINUOUS
62
7
370
0
100
AcDbLine
10
142.875
20
102.5
11
152.769232
21
102.5
0
ENDBLK
5
C6
330
C4
100
AcDbEntity
8
0
100
AcDbBlockEnd
0
BLOCK
5
C8
330
C7
100
AcDbEntity
8
0
100
AcDbBlockBegin
2
*D28
70
1
10
0
20
0
3
*D28
1

0
LINE
5
1F9
100
AcDbEntity
8
dimensions
6
CONTINUOUS
62
7
370
0
100
AcDbLine
10
253.778046272
20
149.334323212
11
329.933572487
21
149.334323212
0
SOLID
5
1FA
100
AcDbEntity
8
dimensions
6
CONTINUOUS
62
7
370
0
100
AcDbTrace
10
253.778046272
20
149.334323212
30
0
11
256.278046272
21
149.75060787
31
0
12
256.278046272
22
148.918038554
32
0
13
256.278046272
23
148.918038554
33
0
0
SOLID
5
1FB
100
AcDbEntity
8
dimensions
6
CONTINUOUS
62
7
370
0
100
AcDbTrace
10
329.933572487
20
149.334323212
30
0
11
327.433572487
21
148.918038554
31
0
12
327.433572487
22
149.75060787
32
0
13
327.433572487
23
149.75060787
33
0
0
MTEXT
5
1FC
100
AcDbEntity
8
dimensions
6
CONTINUOUS
62
7
370
0
100
AcDbMText
10
291.85580938
20
151.209323212
30
0
40
2.5
41
11.1111111111
71
5
72
1
1
76.1555
7
standard
210
0
220
0
230
1
50
0
73
2
44
1
0
LINE
5
1FD
100
AcDbEntity
8
dimensions
6
CONTINUOUS
62
7
370
0
100
AcDbLine
10
253.778046272
20
111.960374846
11
253.778046272
21
150.584323212
0
LINE
5
1FE
100
AcDbEntity
8
dimensions
6
CONTINUOUS
62
7
370
0
100
AcDbLine
10
329.933572487
20
111.909866581
11
329.933572487
21
150.584323212
0
ENDBLK
5
C9
330
C7
100
AcDbEntity
8
0
100
AcDbBlockEnd
0
BLOCK
5
CB
330
CA
100
AcDbEntity
8
0
100
AcDbBlockBegin
2
*D46
70
1
10
0
20
0
3
*D46
1

0
LINE
5
1FF
100
AcDbEntity
8
dimensions
6
CONTINUOUS
62
7
370
0
100
AcDbLine
10
87.4086400022
20
107.5
11
87.4086400022
21
134.5
0
SOLID
5
200
100
AcDbEntity
8
dimensions
6
CONTINUOUS
62
7
370
0
100
AcDbTrace
10
87.4086400022
20
107.5
30
0
11
86.9923553444
21
110
31
0
12
87.82492466
22
110
32
0
13
87.82492466
23
110
33
0
0
SOLID
5
201
100
AcDbEntity
8
dimensions
6
CONTINUOUS
62
7
370
0
100
AcDbTrace
10
87.4086400022
20
134.5
30
0
11
87.82492466
21
132
31
0
12
86.9923553444
22
132
32
0
13
86.9923553444
23
132
33
0
0
MTEXT
5
202
100
AcDbEntity
8
dimensions
6
CONTINUOUS
62
7
370
0
100
AcDbMText
10
85.5336400022
20
121
30
0
40
2.5
41
3.05555555556
71
5
72
1
1
27
7
standard
210
0
220
0
230
1
50
90
73
2
44
1
0
LINE
5
203
100
AcDbEntity
8
dimensions
6
CONTINUOUS
62
7
370
0
100
AcDbLine
10
109.625
20
107.5
11
86.1586400022
21
107.5
0
LINE
5
204
100
AcDbEntity
8
dimensions
6
CONTINUOUS
62
7
370
0
100
AcDbLine
10
125.625
20
134.5
11
86.1586400022
21
134.5
0
ENDBLK
5
CC
330
CA
100
AcDbEntity
8
0
100
AcDbBlockEnd
0
BLOCK
5
CE
330
CD
100
AcDbEntity
8
0
100
AcDbBlockBegin
2
*D12
70
1
10
0
20
0
3
*D12
1

0
LINE
5
205
100
AcDbEntity
8
dimensions
6
CONTINUOUS
62
7
370
0
100
AcDbLine
10
96.0921600001
20
116.5
11
96.0921600001
21
102.5
0
SOLID
5
206
100
AcDbEntity
8
dimensions
6
CONTINUOUS
62
7
370
0
100
AcDbTrace
10
96.0921600001
20
111.5
30
0
11
95.6758753423
21
114
31
0
12
96.5084446579
22
114
32
0
13
96.5084446579
23
114
33
0
0
SOLID
5
207
100
AcDbEntity
8
dimensions
6
CONTINUOUS
62
7
370
0
100
AcDbTrace
10
96.0921600001
20
107.5
30
0
11
96.5084446579
21
105
31
0
12
95.6758753423
22
105
32
0
13
95.6758753423
23
105
33
0
0
MTEXT
5
208
100
AcDbEntity
8
dimensions
6
CONTINUOUS
62
7
370
0
100
AcDbMText
10
94.2171600001
20
109.5
30
0
40
2.5
41
1.38888888889
71
5
72
1
1
4
7
standard
210
0
220
0
230
1
50
90
73
2
44
1
0
LINE
5
209
100
AcDbEntity
8
dimensions
6
CONTINUOUS
62
7
370
0
100
AcDbLine
10
107.125
20
111.5
11
94.8421600001
21
111.5
0
LINE
5
20A
100
AcDbEntity
8
dimensions
6
CONTINUOUS
62
7
370
0
100
AcDbLine
10
109.625
20
107.5
11
94.8421600001
21
107.5
0
ENDBLK
5
CF
330
CD
100
AcDbEntity
8
0
100
AcDbBlockEnd
0
BLOCK
5
D1
330
D0
100
AcDbEntity
8
0
100
AcDbBlockBegin
2
*D5
70
1
10
0
20
0
3
*D5
1

0
LINE
5
20B
100
AcDbEntity
8
dimensions
6
CONTINUOUS
62
7
370
0
100
AcDbLine
10
142.761361716
20
70.1406475332
11
156.00680643
21
60.8325920352
0
LINE
5
20C
100
AcDbEntity
8
dimensions
6
CONTINUOUS
62
7
370
0
100
AcDbLine
10
145.923663424
20
74.640630634
11
159.169108138
21
65.332575136
0
LINE
5
20D
100
AcDbEntity
8
dimensions
6
CONTINUOUS
62
7
370
0
100
AcDbLine
10
152.109263263
20
57.4604032408
11
161.021204441
21
70.1421737976
0
SOLID
5
20E
100
AcDbEntity
8
dimensions
6
CONTINUOUS
62
7
370
0
100
AcDbTrace
10
154.984082998
20
61.5512969688
30
0
11
153.88726839
21
59.2665014349
31
0
12
153.206077872
22
59.7451987747
32
0
13
153.206077872
23
59.7451987747
33
0
0
SOLID
5
20F
100
AcDbEntity
8
dimensions
6
CONTINUOUS
62
7
370
0
100
AcDbTrace
10
158.146384706
20
66.0512800696
30
0
11
159.243199314
21
68.3360756035
31
0
12
159.924389832
22
67.8573782637
32
0
13
159.924389832
23
67.8573782637
33
0
0
MTEXT
5
210
100
AcDbEntity
8
dimensions
6
CONTINUOUS
62
7
370
0
100
AcDbMText
10
155.031148704
20
64.87934592
30
0
40
2.5
41
3.88888888889
71
5
72
1
1
5.5
7
standard
210
0
220
0
230
1
50
54.9028925853
73
2
44
1
0
ENDBLK
5
D2
330
D0
100
AcDbEntity
8
0
100
AcDbBlockEnd
0
BLOCK
5
D4
330
D3
100
AcDbEntity
8
0
100
AcDbBlockBegin
2
*D62
70
1
10
0
20
0
3
*D62
1

0
LINE
5
211
100
AcDbEntity
8
dimensions
6
CONTINUOUS
62
7
370
0
100
AcDbLine
10
378.778943762
20
110.266661613
11
376.193769182
21
117.199569878
0
LINE
5
212
100
AcDbEntity
8
dimensions
6
CONTINUOUS
62
7
370
0
100
AcDbLine
10
383.950833109
20
112.195179396
11
381.365658529
21
119.128087661
0
LINE
5
213
100
AcDbEntity
8
dimensions
6
CONTINUOUS
62
7
370
0
100
AcDbLine
10
371.945604477
20
114.281420355
11
386.487285985
21
119.703789144
0
SOLID
5
214
100
AcDbEntity
8
dimensions
6
CONTINUOUS
62
7
370
0
100
AcDbTrace
10
376.630500557
20
116.028345858
30
0
11
374.433496174
21
114.764833034
31
0
12
374.14260886
22
115.544933179
32
0
13
374.14260886
23
115.544933179
33
0
0
SOLID
5
215
100
AcDbEntity
8
dimensions
6
CONTINUOUS
62
7
370
0
100
AcDbTrace
10
381.802389904
20
117.956863641
30
0
11
383.999394288
21
119.220376465
31
0
12
384.290281602
22
118.44027632
32
0
13
384.290281602
23
118.44027632
33
0
0
MTEXT
5
216
100
AcDbEntity
8
dimensions
6
CONTINUOUS
62
7
370
0
100
AcDbMText
10
386.027392925
20
121.533413737
30
0
40
2.5
41
9.16666666667
71
5
72
1
1
5.5197
7
standard
210
0
220
0
230
1
50
20.4497097443
73
2
44
1
0
ENDBLK
5
D5
330
D3
100
AcDbEntity
8
0
100
AcDbBlockEnd
0
BLOCK
5
D7
330
D6
100
AcDbEntity
8
0
100
AcDbBlockBegin
2
*D61
70
1
10
0
20
0
3
*D61
1

0
LINE
5
217
100
AcDbEntity
8
dimensions
6
CONTINUOUS
62
7
370
0
100
AcDbLine
10
101.580800003
20
57.1678404338
11
101.580800003
21
69.5
0
SOLID
5
218
100
AcDbEntity
8
dimensions
6
CONTINUOUS
62
7
370
0
100
AcDbTrace
10
101.580800003
20
57.1678404338
30
0
11
101.164515345
21
59.6678404338
31
0
12
101.997084661
22
59.6678404338
32
0
13
101.997084661
23
59.6678404338
33
0
0
SOLID
5
219
100
AcDbEntity
8
dimensions
6
CONTINUOUS
62
7
370
0
100
AcDbTrace
10
101.580800003
20
69.5
30
0
11
101.997084661
21
67
31
0
12
101.164515345
22
67
32
0
13
101.164515345
23
67
33
0
0
MTEXT
5
21A
100
AcDbEntity
8
dimensions
6
CONTINUOUS
62
7
370
0
100
AcDbMText
10
99.7058000027
20
63.3339202169
30
0
40
2.5
41
11.1111111111
71
5
72
1
1
12.3322
7
standard
210
0
220
0
230
1
50
90
73
2
44
1
0
LINE
5
21B
100
AcDbEntity
8
dimensions
6
CONTINUOUS
62
7
370
0
100
AcDbLine
10
110.125
20
57.1678404338
11
100.330800003
21
57.1678404338
0
LINE
5
21C
100
AcDbEntity
8
dimensions
6
CONTINUOUS
62
7
370
0
100
AcDbLine
10
110.125
20
69.5
11
100.330800003
21
69.5
0
ENDBLK
5
D8
330
D6
100
AcDbEntity
8
0
100
AcDbBlockEnd
0
BLOCK
5
DA
330
D9
100
AcDbEntity
8
0
100
AcDbBlockBegin
2
*D30
70
1
10
0
20
0
3
*D30
1

0
LINE
5
21D
100
AcDbEntity
8
dimensions
6
CONTINUOUS
62
7
370
0
100
AcDbLine
10
253.778046272
20
125.866611211
11
291.860982004
21
125.866611211
0
SOLID
5
21E
100
AcDbEntity
8
dimensions
6
CONTINUOUS
62
7
370
0
100
AcDbTrace
10
253.778046272
20
125.866611211
30
0
11
256.278046272
21
126.282895869
31
0
12
256.278046272
22
125.450326553
32
0
13
256.278046272
23
125.450326553
33
0
0
SOLID
5
21F
100
AcDbEntity
8
dimensions
6
CONTINUOUS
62
7
370
0
100
AcDbTrace
10
291.860982004
20
125.866611211
30
0
11
289.360982004
21
125.450326553
31
0
12
289.360982004
22
126.282895869
32
0
13
289.360982004
23
126.282895869
33
0
0
MTEXT
5
220
100
AcDbEntity
8
dimensions
6
CONTINUOUS
62
7
370
0
100
AcDbMText
10
272.819514138
20
127.741611211
30
0
40
2.5
41
11.6666666667
71
5
72
1
1
38.0829
7
standard
210
0
220
0
230
1
50
0
73
2
44
1
0
LINE
5
221
100
AcDbEntity
8
dimensions
6
CONTINUOUS
62
7
370
0
100
AcDbLine
10
253.778046272
20
111.960374846
11
253.778046272
21
127.116611211
0
LINE
5
222
100
AcDbEntity
8
dimensions
6
CONTINUOUS
62
7
370
0
100
AcDbLine
10
291.860982004
20
119.734318699
11
291.860982004
21
127.116611211
0
ENDBLK
5
DB
330
D9
100
AcDbEntity
8
0
100
AcDbBlockEnd
0
BLOCK
5
DD
330
DC
100
AcDbEntity
8
0
100
AcDbBlockBegin
2
*D8
70
1
10
0
20
0
3
*D8
1

0
LINE
5
223
100
AcDbEntity
8
dimensions
6
CONTINUOUS
62
7
370
0
100
AcDbLine
10
29.20692
20
-26.80544
11
44.20692
21
-26.80544
0
SOLID
5
224
100
AcDbEntity
8
dimensions
6
CONTINUOUS
62
7
370
0
100
AcDbTrace
10
34.20692
20
-26.80544
30
0
11
31.70692
21
-27.2217246578
31
0
12
31.70692
22
-26.3891553422
32
0
13
31.70692
23
-26.3891553422
33
0
0
SOLID
5
225
100
AcDbEntity
8
dimensions
6
CONTINUOUS
62
7
370
0
100
AcDbTrace
10
39.20692
20
-26.80544
30
0
11
41.70692
21
-26.3891553422
31
0
12
41.70692
22
-27.2217246578
32
0
13
41.70692
23
-27.2217246578
33
0
0
MTEXT
5
226
100
AcDbEntity
8
dimensions
6
CONTINUOUS
62
7
370
0
100
AcDbMText
10
36.70692
20
-24.93044
30
0
40
2.5
41
1.11111111111
71
5
72
1
1
5
7
standard
210
0
220
0
230
1
50
0
73
2
44
1
0
LINE
5
227
100
AcDbEntity
8
dimensions
6
CONTINUOUS
62
7
370
0
100
AcDbLine
10
34.20692
20
-11.76324
11
34.20692
21
-28.05544
0
LINE
5
228
100
AcDbEntity
8
dimensions
6
CONTINUOUS
62
7
370
0
100
AcDbLine
10
39.20692
20
-11.76324
11
39.20692
21
-28.05544
0
ENDBLK
5
DE
330
DC
100
AcDbEntity
8
0
100
AcDbBlockEnd
0
BLOCK
5
E0
330
DF
100
AcDbEntity
8
0
100
AcDbBlockBegin
2
*D63
70
1
10
0
20
0
3
*D63
1

0
LINE
5
229
100
AcDbEntity
8
dimensions
6
CONTINUOUS
62
7
370
0
100
AcDbLine
10
391.700318146
20
114.673878059
11
389.956908266
21
122.405501979
0
LINE
5
22A
100
AcDbEntity
8
dimensions
6
CONTINUOUS
62
7
370
0
100
AcDbLine
10
399.504805355
20
116.433717939
11
397.761395474
21
124.165341859
0
LINE
5
22B
100
AcDbEntity
8
dimensions
6
CONTINUOUS
62
7
370
0
100
AcDbLine
10
390.231868088
20
121.186118079
11
398.036355297
21
122.945957959
0
SOLID
5
22C
100
AcDbEntity
8
dimensions
6
CONTINUOUS
62
7
370
0
100
AcDbTrace
10
390.231868088
20
121.186118079
30
0
11
392.579066644
21
122.142126371
31
0
12
392.762205133
22
121.329949076
32
0
13
392.762205133
23
121.329949076
33
0
0
SOLID
5
22D
100
AcDbEntity
8
dimensions
6
CONTINUOUS
62
7
370
0
100
AcDbTrace
10
398.036355297
20
122.945957959
30
0
11
395.689156741
21
121.989949666
31
0
12
395.506018252
22
122.802126962
32
0
13
395.506018252
23
122.802126962
33
0
0
MTEXT
5
22E
100
AcDbEntity
8
dimensions
6
CONTINUOUS
62
7
370
0
100
AcDbMText
10
403.111143114
20
126.01235301
30
0
40
2.5
41
10
71
5
72
1
1
8.0004
7
standard
210
0
220
0
230
1
50
12.7071451421
73
2
44
1
0
ENDBLK
5
E1
330
DF
100
AcDbEntity
8
0
100
AcDbBlockEnd
0
BLOCK
5
E3
330
E2
100
AcDbEntity
8
0
100
AcDbBlockBegin
2
*D18
70
1
10
0
20
0
3
*D18
1

0
LINE
5
22F
100
AcDbEntity
8
dimensions
6
CONTINUOUS
62
7
370
0
100
AcDbLine
10
353.239040001
20
14.9600000001
11
353.239040001
21
0.96000000011
0
SOLID
5
230
100
AcDbEntity
8
dimensions
6
CONTINUOUS
62
7
370
0
100
AcDbTrace
10
353.239040001
20
9.96000000011
30
0
11
352.822755343
21
12.4600000001
31
0
12
353.655324659
22
12.4600000001
32
0
13
353.655324659
23
12.4600000001
33
0
0
SOLID
5
231
100
AcDbEntity
8
dimensions
6
CONTINUOUS
62
7
370
0
100
AcDbTrace
10
353.239040001
20
5.96000000011
30
0
11
353.655324659
21
3.46000000011
31
0
12
352.822755343
22
3.46000000011
32
0
13
352.822755343
23
3.46000000011
33
0
0
MTEXT
5
232
100
AcDbEntity
8
dimensions
6
CONTINUOUS
62
7
370
0
100
AcDbMText
10
351.364040001
20
7.96000000011
30
0
40
2.5
41
1.38888888889
71
5
72
1
1
4
7
standard
210
0
220
0
230
1
50
90
73
2
44
1
0
LINE
5
233
100
AcDbEntity
8
dimensions
6
CONTINUOUS
62
7
370
0
100
AcDbLine
10
343.885000001
20
9.96000000011
11
354.489040001
21
9.96000000011
0
LINE
5
234
100
AcDbEntity
8
dimensions
6
CONTINUOUS
62
7
370
0
100
AcDbLine
10
339.885000001
20
5.96000000011
11
354.489040001
21
5.96000000011
0
ENDBLK
5
E4
330
E2
100
AcDbEntity
8
0
100
AcDbBlockEnd
0
BLOCK
5
E6
330
E5
100
AcDbEntity
8
0
100
AcDbBlockBegin
2
*D59
70
1
10
0
20
0
3
*D59
1

0
LINE
5
235
100
AcDbEntity
8
dimensions
6
CONTINUOUS
62
7
370
0
100
AcDbLine
10
110.25
20
40.1080320011
11
142.25
21
40.1080320011
0
SOLID
5
236
100
AcDbEntity
8
dimensions
6
CONTINUOUS
62
7
370
0
100
AcDbTrace
10
110.25
20
40.1080320011
30
0
11
112.75
21
40.5243166589
31
0
12
112.75
22
39.6917473433
32
0
13
112.75
23
39.6917473433
33
0
0
SOLID
5
237
100
AcDbEntity
8
dimensions
6
CONTINUOUS
62
7
370
0
100
AcDbTrace
10
142.25
20
40.1080320011
30
0
11
139.75
21
39.6917473433
31
0
12
139.75
22
40.5243166589
32
0
13
139.75
23
40.5243166589
33
0
0
MTEXT
5
238
100
AcDbEntity
8
dimensions
6
CONTINUOUS
62
7
370
0
100
AcDbMText
10
126.25
20
41.9830320011
30
0
40
2.5
41
3.05555555556
71
5
72
1
1
32
7
standard
210
0
220
0
230
1
50
0
73
2
44
1
0
LINE
5
239
100
AcDbEntity
8
dimensions
6
CONTINUOUS
62
7
370
0
100
AcDbLine
10
110.25
20
56.375
11
110.25
21
38.8580320011
0
LINE
5
23A
100
AcDbEntity
8
dimensions
6
CONTINUOUS
62
7
370
0
100
AcDbLine
10
142.25
20
56.375
11
142.25
21
38.8580320011
0
ENDBLK
5
E7
330
E5
100
AcDbEntity
8
0
100
AcDbBlockEnd
0
BLOCK
5
E9
330
E8
100
AcDbEntity
8
0
100
AcDbBlockBegin
2
*D50
70
1
10
0
20
0
3
*D50
1

0
LINE
5
23B
100
AcDbEntity
8
dimensions
6
CONTINUOUS
62
7
370
0
100
AcDbLine
10
124.256256003
20
102.5
11
124.256256003
21
117.374377302
0
SOLID
5
23C
100
AcDbEntity
8
dimensions
6
CONTINUOUS
62
7
370
0
100
AcDbTrace
10
124.256256003
20
107.5
30
0
11
124.672540661
21
105
31
0
12
123.839971345
22
105
32
0
13
123.839971345
23
105
33
0
0
SOLID
5
23D
100
AcDbEntity
8
dimensions
6
CONTINUOUS
62
7
370
0
100
AcDbTrace
10
124.256256003
20
112.374377302
30
0
11
123.839971345
21
114.874377302
31
0
12
124.672540661
22
114.874377302
32
0
13
124.672540661
23
114.874377302
33
0
0
MTEXT
5
23E
100
AcDbEntity
8
dimensions
6
CONTINUOUS
62
7
370
0
100
AcDbMText
10
122.381256003
20
118.27715508
30
0
40
2.5
41
10.5555555556
71
5
72
1
1
4.8744
7
standard
210
0
220
0
230
1
50
90
73
2
44
1
0
LINE
5
23F
100
AcDbEntity
8
dimensions
6
CONTINUOUS
62
7
370
0
100
AcDbLine
10
125.625
20
107.5
11
123.006256003
21
107.5
0
LINE
5
240
100
AcDbEntity
8
dimensions
6
CONTINUOUS
62
7
370
0
100
AcDbLine
10
125.625578976
20
112.374377302
11
123.006256003
21
112.374377302
0
ENDBLK
5
EA
330
E8
100
AcDbEntity
8
0
100
AcDbBlockEnd
0
BLOCK
5
EC
330
EB
100
AcDbEntity
8
0
100
AcDbBlockBegin
2
*D34
70
1
10
0
20
0
3
*D34
1

0
LINE
5
241
100
AcDbEntity
8
dimensions
6
CONTINUOUS
62
7
370
0
100
AcDbLine
10
322.31370192
20
76.5741596325
11
329.713871415
21
74.8126667215
0
LINE
5
242
100
AcDbEntity
8
dimensions
6
CONTINUOUS
62
7
370
0
100
AcDbLine
10
323.124176863
20
79.9790282595
11
330.524346358
21
78.2175353485
0
LINE
5
243
100
AcDbEntity
8
dimensions
6
CONTINUOUS
62
7
370
0
100
AcDbLine
10
327.340025558
20
70.2380240197
11
330.466143195
21
83.3710887237
0
SOLID
5
244
100
AcDbEntity
8
dimensions
6
CONTINUOUS
62
7
370
0
100
AcDbTrace
10
328.497846905
20
75.1021220582
30
0
11
328.323906109
21
72.5736763863
31
0
12
327.513966354
22
72.7664696916
32
0
13
327.513966354
23
72.7664696916
33
0
0
SOLID
5
245
100
AcDbEntity
8
dimensions
6
CONTINUOUS
62
7
370
0
100
AcDbTrace
10
329.308321848
20
78.5069906852
30
0
11
329.482262644
21
81.0354363571
31
0
12
330.292202399
22
80.8426430518
32
0
13
330.292202399
23
80.8426430518
33
0
0
MTEXT
5
246
100
AcDbEntity
8
dimensions
6
CONTINUOUS
62
7
370
0
100
AcDbMText
10
328.079276609
20
81.4407796268
30
0
40
2.5
41
3.88888888889
71
5
72
1
1
3.5
7
standard
210
0
220
0
230
1
50
76.6108156677
73
2
44
1
0
ENDBLK
5
ED
330
EB
100
AcDbEntity
8
0
100
AcDbBlockEnd
0
BLOCK
5
EF
330
EE
100
AcDbEntity
8
0
100
AcDbBlockBegin
2
*D47
70
1
10
0
20
0
3
*D47
1

0
LINE
5
247
100
AcDbEntity
8
dimensions
6
CONTINUOUS
62
7
370
0
100
AcDbLine
10
126.25
20
141.516800004
11
108.25
21
141.516800004
0
SOLID
5
248
100
AcDbEntity
8
dimensions
6
CONTINUOUS
62
7
370
0
100
AcDbTrace
10
126.25
20
141.516800004
30
0
11
123.75
21
141.100515346
31
0
12
123.75
22
141.933084662
32
0
13
123.75
23
141.933084662
33
0
0
SOLID
5
249
100
AcDbEntity
8
dimensions
6
CONTINUOUS
62
7
370
0
100
AcDbTrace
10
108.25
20
141.516800004
30
0
11
110.75
21
141.933084662
31
0
12
110.75
22
141.100515346
32
0
13
110.75
23
141.100515346
33
0
0
MTEXT
5
24A
100
AcDbEntity
8
dimensions
6
CONTINUOUS
62
7
370
0
100
AcDbMText
10
117.25
20
143.391800004
30
0
40
2.5
41
2.5
71
5
72
1
1
18
7
standard
210
0
220
0
230
1
50
360
73
2
44
1
0
LINE
5
24B
100
AcDbEntity
8
dimensions
6
CONTINUOUS
62
7
370
0
100
AcDbLine
10
126.25
20
135.125
11
126.25
21
142.766800004
0
LINE
5
24C
100
AcDbEntity
8
dimensions
6
CONTINUOUS
62
7
370
0
100
AcDbLine
10
108.25
20
125.855406792
11
108.25
21
142.766800004
0
ENDBLK
5
F0
330
EE
100
AcDbEntity
8
0
100
AcDbBlockEnd
0
BLOCK
5
F2
330
F1
100
AcDbEntity
8
0
100
AcDbBlockBegin
2
*D56
70
1
10
0
20
0
3
*D56
1

0
LINE
5
24D
100
AcDbEntity
8
dimensions
6
CONTINUOUS
62
7
370
0
100
AcDbLine
10
37.035704321
20
108.532000003
11
37.035704321
21
121.532000003
0
SOLID
5
24E
100
AcDbEntity
8
dimensions
6
CONTINUOUS
62
7
370
0
100
AcDbTrace
10
37.035704321
20
113.532000003
30
0
11
37.4519889788
21
111.032000003
31
0
12
36.6194196632
22
111.032000003
32
0
13
36.6194196632
23
111.032000003
33
0
0
SOLID
5
24F
100
AcDbEntity
8
dimensions
6
CONTINUOUS
62
7
370
0
100
AcDbTrace
10
37.035704321
20
116.532000003
30
0
11
36.6194196632
21
119.032000003
31
0
12
37.4519889788
22
119.032000003
32
0
13
37.4519889788
23
119.032000003
33
0
0
MTEXT
5
250
100
AcDbEntity
8
dimensions
6
CONTINUOUS
62
7
370
0
100
AcDbMText
10
35.160704321
20
115.032000003
30
0
40
2.5
41
1.11111111111
71
5
72
1
1
3
7
standard
210
0
220
0
230
1
50
90
73
2
44
1
0
LINE
5
251
100
AcDbEntity
8
dimensions
6
CONTINUOUS
62
7
370
0
100
AcDbLine
10
33.0510000005
20
113.532000003
11
38.285704321
21
113.532000003
0
LINE
5
252
100
AcDbEntity
8
dimensions
6
CONTINUOUS
62
7
370
0
100
AcDbLine
10
33.0510000005
20
116.532000003
11
38.285704321
21
116.532000003
0
ENDBLK
5
F3
330
F1
100
AcDbEntity
8
0
100
AcDbBlockEnd
0
BLOCK
5
F5
330
F4
100
AcDbEntity
8
0
100
AcDbBlockBegin
2
*D6
70
1
10
0
20
0
3
*D6
1

0
LINE
5
253
100
AcDbEntity
8
dimensions
6
CONTINUOUS
62
7
370
0
100
AcDbLine
10
109.982142857
20
77.0646924393
11
103.118092837
21
91.5353804628
0
LINE
5
254
100
AcDbEntity
8
dimensions
6
CONTINUOUS
62
7
370
0
100
AcDbLine
10
106.819865197
20
75.5646924393
11
99.9558151772
21
90.0353804628
0
LINE
5
255
100
AcDbEntity
8
dimensions
6
CONTINUOUS
62
7
370
0
100
AcDbLine
10
108.171346637
20
92.5488527271
11
95.9739899484
21
86.7631384412
0
SOLID
5
256
100
AcDbEntity
8
dimensions
6
CONTINUOUS
62
7
370
0
100
AcDbTrace
10
103.653807123
20
90.4059955842
30
0
11
105.73416917
21
91.8535406338
31
0
12
106.090984591
22
91.1013076775
32
0
13
106.090984591
23
91.1013076775
33
0
0
SOLID
5
257
100
AcDbEntity
8
dimensions
6
CONTINUOUS
62
7
370
0
100
AcDbTrace
10
100.491529463
20
88.9059955842
30
0
11
98.4111674162
21
87.4584505345
31
0
12
98.0543519952
22
88.2106834908
32
0
13
98.0543519952
23
88.2106834908
33
0
0
MTEXT
5
258
100
AcDbEntity
8
dimensions
6
CONTINUOUS
62
7
370
0
100
AcDbMText
10
105.171749056
20
93.2012633793
30
0
40
2.5
41
3.88888888889
71
5
72
1
1
3.5
7
standard
210
0
220
0
230
1
50
25.3769335263
73
2
44
1
0
ENDBLK
5
F6
330
F4
100
AcDbEntity
8
0
100
AcDbBlockEnd
0
BLOCK
5
F8
330
F7
100
AcDbEntity
8
0
100
AcDbBlockBegin
2
*D31
70
1
10
0
20
0
3
*D31
1

0
LINE
5
259
100
AcDbEntity
8
dimensions
6
CONTINUOUS
62
7
370
0
100
AcDbLine
10
342.020185896
20
111.284866581
11
342.020185896
21
119.109318698
0
SOLID
5
25A
100
AcDbEntity
8
dimensions
6
CONTINUOUS
62
7
370
0
100
AcDbTrace
10
342.020185896
20
111.284866581
30
0
11
341.603901238
21
113.784866581
31
0
12
342.436470554
22
113.784866581
32
0
13
342.436470554
23
113.784866581
33
0
0
SOLID
5
25B
100
AcDbEntity
8
dimensions
6
CONTINUOUS
62
7
370
0
100
AcDbTrace
10
342.020185896
20
119.109318698
30
0
11
342.436470554
21
116.609318698
31
0
12
341.603901238
22
116.609318698
32
0
13
341.603901238
23
116.609318698
33
0
0
MTEXT
5
25C
100
AcDbEntity
8
dimensions
6
CONTINUOUS
62
7
370
0
100
AcDbMText
10
340.145185896
20
124.734318699
30
0
40
2.5
41
10
71
5
72
1
1
7.8245
7
standard
210
0
220
0
230
1
50
90
73
2
44
1
0
LINE
5
25D
100
AcDbEntity
8
dimensions
6
CONTINUOUS
62
7
370
0
100
AcDbLine
10
330.558572487
20
111.284866581
11
343.270185896
21
111.284866581
0
LINE
5
25E
100
AcDbEntity
8
dimensions
6
CONTINUOUS
62
7
370
0
100
AcDbLine
10
292.485982004
20
119.109318698
11
343.270185896
21
119.109318698
0
ENDBLK
5
F9
330
F7
100
AcDbEntity
8
0
100
AcDbBlockEnd
0
BLOCK
5
FB
330
FA
100
AcDbEntity
8
0
100
AcDbBlockBegin
2
*D2
70
1
10
0
20
0
3
*D2
1

0
LINE
5
25F
100
AcDbEntity
8
dimensions
6
CONTINUOUS
62
7
370
0
100
AcDbLine
10
161.73236224
20
102.5
11
161.73236224
21
116.5
0
SOLID
5
260
100
AcDbEntity
8
dimensions
6
CONTINUOUS
62
7
370
0
100
AcDbTrace
10
161.73236224
20
107.5
30
0
11
162.148646898
21
105
31
0
12
161.316077582
22
105
32
0
13
161.316077582
23
105
33
0
0
SOLID
5
261
100
AcDbEntity
8
dimensions
6
CONTINUOUS
62
7
370
0
100
AcDbTrace
10
161.73236224
20
111.5
30
0
11
161.316077582
21
114
31
0
12
162.148646898
22
114
32
0
13
162.148646898
23
114
33
0
0
MTEXT
5
262
100
AcDbEntity
8
dimensions
6
CONTINUOUS
62
7
370
0
100
AcDbMText
10
159.85736224
20
109.5
30
0
40
2.5
41
1.38888888889
71
5
72
1
1
4
7
standard
210
0
220
0
230
1
50
90
73
2
44
1
0
LINE
5
263
100
AcDbEntity
8
dimensions
6
CONTINUOUS
62
7
370
0
100
AcDbLine
10
142.875
20
107.5
11
162.98236224
21
107.5
0
LINE
5
264
100
AcDbEntity
8
dimensions
6
CONTINUOUS
62
7
370
0
100
AcDbLine
10
145.375
20
111.5
11
162.98236224
21
111.5
0
ENDBLK
5
FC
330
FA
100
AcDbEntity
8
0
100
AcDbBlockEnd
0
BLOCK
5
FE
330
FD
100
AcDbEntity
8
0
100
AcDbBlockBegin
2
*D29
70
1
10
0
20
0
3
*D29
1

0
LINE
5
265
100
AcDbEntity
8
dimensions
6
CONTINUOUS
62
7
370
0
100
AcDbLine
10
285.864224576
20
134.189683211
11
297.864221936
21
134.189683211
0
SOLID
5
266
100
AcDbEntity
8
dimensions
6
CONTINUOUS
62
7
370
0
100
AcDbTrace
10
285.864224576
20
134.189683211
30
0
11
288.364224576
21
134.605967869
31
0
12
288.364224576
22
133.773398553
32
0
13
288.364224576
23
133.773398553
33
0
0
SOLID
5
267
100
AcDbEntity
8
dimensions
6
CONTINUOUS
62
7
370
0
100
AcDbTrace
10
297.864221936
20
134.189683211
30
0
11
295.364221936
21
133.773398553
31
0
12
295.364221936
22
134.605967869
32
0
13
295.364221936
23
134.605967869
33
0
0
MTEXT
5
268
100
AcDbEntity
8
dimensions
6
CONTINUOUS
62
7
370
0
100
AcDbMText
10
291.864223256
20
136.064683211
30
0
40
2.5
41
2.5
71
5
72
1
1
12
7
standard
210
0
220
0
230
1
50
0
73
2
44
1
0
LINE
5
269
100
AcDbEntity
8
dimensions
6
CONTINUOUS
62
7
370
0
100
AcDbLine
10
285.864224576
20
124.625404357
11
285.864224576
21
135.439683211
0
LINE
5
26A
100
AcDbEntity
8
dimensions
6
CONTINUOUS
62
7
370
0
100
AcDbLine
10
297.864221936
20
124.617445657
11
297.864221936
21
135.439683211
0
ENDBLK
5
FF
330
FD
100
AcDbEntity
8
0
100
AcDbBlockEnd
0
BLOCK
5
101
330
100
100
AcDbEntity
8
0
100
AcDbBlockBegin
2
*D20
70
1
10
0
20
0
3
*D20
1

0
LINE
5
26B
100
AcDbEntity
8
dimensions
6
CONTINUOUS
62
7
370
0
100
AcDbLine
10
250.375
20
0.0419430400002
11
264.375
21
0.0419430400002
0
SOLID
5
26C
100
AcDbEntity
8
dimensions
6
CONTINUOUS
62
7
370
0
100
AcDbTrace
10
250.375
20
0.0419430400002
30
0
11
252.875
21
0.458227697773
31
0
12
252.875
22
-0.374341617773
32
0
13
252.875
23
-0.374341617773
33
0
0
SOLID
5
26D
100
AcDbEntity
8
dimensions
6
CONTINUOUS
62
7
370
0
100
AcDbTrace
10
264.375
20
0.0419430400002
30
0
11
261.875
21
-0.374341617773
31
0
12
261.875
22
0.458227697773
32
0
13
261.875
23
0.458227697773
33
0
0
MTEXT
5
26E
100
AcDbEntity
8
dimensions
6
CONTINUOUS
62
7
370
0
100
AcDbMText
10
257.375
20
1.91694304
30
0
40
2.5
41
2.77777777778
71
5
72
1
1
14
7
standard
210
0
220
0
230
1
50
0
73
2
44
1
0
LINE
5
26F
100
AcDbEntity
8
dimensions
6
CONTINUOUS
62
7
370
0
100
AcDbLine
10
250.375
20
6.66
11
250.375
21
-1.20805696
0
LINE
5
270
100
AcDbEntity
8
dimensions
6
CONTINUOUS
62
7
370
0
100
AcDbLine
10
264.375
20
6.66
11
264.375
21
-1.20805696
0
ENDBLK
5
102
330
100
100
AcDbEntity
8
0
100
AcDbBlockEnd
0
BLOCK
5
104
330
103
100
AcDbEntity
8
0
100
AcDbBlockBegin
2
*D57
70
1
10
0
20
0
3
*D57
1

0
LINE
5
271
100
AcDbEntity
8
dimensions
6
CONTINUOUS
62
7
370
0
100
AcDbLine
10
13.1197829124
20
114.532000003
11
13.1197829124
21
129.032000003
0
SOLID
5
272
100
AcDbEntity
8
dimensions
6
CONTINUOUS
62
7
370
0
100
AcDbTrace
10
13.1197829124
20
119.532000003
30
0
11
13.5360675701
21
117.032000003
31
0
12
12.7034982546
22
117.032000003
32
0
13
12.7034982546
23
117.032000003
33
0
0
SOLID
5
273
100
AcDbEntity
8
dimensions
6
CONTINUOUS
62
7
370
0
100
AcDbTrace
10
13.1197829124
20
124.032000003
30
0
11
12.7034982546
21
126.532000003
31
0
12
13.5360675701
22
126.532000003
32
0
13
13.5360675701
23
126.532000003
33
0
0
MTEXT
5
274
100
AcDbEntity
8
dimensions
6
CONTINUOUS
62
7
370
0
100
AcDbMText
10
11.2447829124
20
121.782000003
30
0
40
2.5
41
4.16666666667
71
5
72
1
1
4.5
7
standard
210
0
220
0
230
1
50
90
73
2
44
1
0
LINE
5
275
100
AcDbEntity
8
dimensions
6
CONTINUOUS
62
7
370
0
100
AcDbLine
10
15.3010000005
20
119.532000003
11
11.8697829124
21
119.532000003
0
LINE
5
276
100
AcDbEntity
8
dimensions
6
CONTINUOUS
62
7
370
0
100
AcDbLine
10
15.3010000005
20
124.032000003
11
11.8697829124
21
124.032000003
0
ENDBLK
5
105
330
103
100
AcDbEntity
8
0
100
AcDbBlockEnd
0
ENDSEC
0
SECTION
2
ENTITIES
0
DIMENSION
5
277
100
AcDbEntity
8
dimensions
6
ByLayer
62
256
370
-1
100
AcDbDimension
2
*D1
10
144.75
20
146.56
30
0
11
126.25
21
148.435
31
0
70
32
71
5
72
0
3
Standard
53
0
210
0
220
0
230
1
100
AcDbAlignedDimension
13
107.75
23
124.5
33
0
14
144.75
24
124.5
34
0
100
AcDbRotatedDimension
0
DIMENSION
5
278
100
AcDbEntity
8
dimensions
6
ByLayer
62
256
370
-1
100
AcDbDimension
2
*D2
10
161.73236224
20
111.5
30
0
11
159.85736224
21
109.5
31
0
70
32
71
5
72
0
3
Standard
53
0
210
0
220
0
230
1
100
AcDbAlignedDimension
13
142.25
23
107.5
33
0
14
144.75
24
111.5
34
0
50
90
100
AcDbRotatedDimension
0
DIMENSION
5
279
100
AcDbEntity
8
dimensions
6
ByLayer
62
256
370
-1
100
AcDbDimension
2
*D3
10
104.387837952
20
109.5
30
0
11
102.512837952
21
108.5
31
0
70
32
71
5
72
0
3
Standard
53
0
210
0
220
0
230
1
100
AcDbAlignedDimension
13
110.25
23
107.5
33
0
14
107.75
24
109.5
34
0
50
90
100
AcDbRotatedDimension
0
DIMENSION
5
27A
100
AcDbEntity
8
dimensions
6
ByLayer
62
256
370
-1
100
AcDbDimension
2
*D4
10
151.519232
20
102.5
30
0
11
149.644232
21
105
31
0
70
32
71
5
72
0
3
Standard
53
0
210
0
220
0
230
1
100
AcDbAlignedDimension
13
142.25
23
107.5
33
0
14
142.25
24
102.5
34
0
50
90
100
AcDbRotatedDimension
0
MTEXT
5
27B
100
AcDbEntity
8
text
6
ByLayer
62
256
370
-1
100
AcDbMText
10
149.76
20
94.592
30
0
40
2
41
57.0000020571
71
1
72
1
1
5 cm wide web on outside reinforce for\Pback pack straps to attach between web\Pand back panel
7
standard
210
0
220
0
230
1
50
0
73
2
44
1
0
LINE
5
27C
100
AcDbEntity
8
0
6
ByLayer
62
256
370
-1
100
AcDbLine
10
110.25
20
70.5
11
107.08772234
21
75
0
LINE
5
27D
100
AcDbEntity
8
0
6
ByLayer
62
256
370
-1
100
AcDbLine
10
107.08772234
20
75
11
110.25
21
76.5
0
LINE
5
27E
100
AcDbEntity
8
0
6
ByLayer
62
256
370
-1
100
AcDbLine
10
142.25
20
70.5
11
145.412301708
21
74.9999831008
0
LINE
5
27F
100
AcDbEntity
8
0
6
ByLayer
62
256
370
-1
100
AcDbLine
10
145.412301708
20
74.9999831008
11
142.25
21
76.5
0
DIMENSION
5
280
100
AcDbEntity
8
dimensions
6
ByLayer
62
256
370
-1
100
AcDbDimension
2
*D5
10
158.146384706
20
66.0512800696
30
0
11
155.031148704
21
64.87934592
31
0
70
33
71
5
72
0
3
Standard
53
0
210
0
220
0
230
1
100
AcDbAlignedDimension
13
142.25
23
70.5
33
0
14
145.412301708
24
74.9999831008
34
0
0
DIMENSION
5
281
100
AcDbEntity
8
dimensions
6
ByLayer
62
256
370
-1
100
AcDbDimension
2
*D6
10
100.491529463
20
88.9059955842
30
0
11
101.269096864
21
91.3500729031
31
0
70
33
71
5
72
0
3
Standard
53
0
210
0
220
0
230
1
100
AcDbAlignedDimension
13
110.25
23
76.5
33
0
14
107.08772234
24
75
34
0
0
MTEXT
5
282
100
AcDbEntity
8
text
6
ByLayer
62
256
370
-1
100
AcDbMText
10
107.2128
20
29.696
30
0
40
2
41
35.7777777778
71
1
72
1
1
back panel with top cover
7
standard
210
0
220
0
230
1
50
0
73
2
44
1
0
MTEXT
5
283
100
AcDbEntity
8
text
6
ByLayer
62
256
370
-1
100
AcDbMText
10
82.88
20
78.08
30
0
40
1.5
41
23.3755730009
71
1
72
1
1
triangle attachment\Ppoint for back pack\Pstraps and belly strap
7
standard
210
0
220
0
230
1
50
0
73
2
44
1
0
MTEXT
5
284
100
AcDbEntity
8
text
6
ByLayer
62
256
370
-1
100
AcDbMText
10
119.9104
20
64.2048
30
0
40
2
41
13.7222232508
71
1
72
1
1
bottom\Pvinal lined\Pon outside
7
standard
210
0
220
0
230
1
50
0
73
2
44
1
0
LINE
5
285
100
AcDbEntity
8
0
6
CONTINUOUS
62
256
370
-1
100
AcDbLine
10
110.25
20
107.5
11
142.25
21
107.5
0
LINE
5
286
100
AcDbEntity
8
0
6
CONTINUOUS
62
256
370
-1
100
AcDbLine
10
110.25
20
102.5
11
142.25
21
102.5
0
MTEXT
5
287
100
AcDbEntity
8
text
6
ByLayer
62
256
370
-1
100
AcDbMText
10
118.912
20
95.744
30
0
40
1
41
7.11149208314
71
1
72
1
1
1mm plasic\Pand foam \Ppadding \Psandwiched\Pfor back\Psupport
7
standard
210
0
220
0
230
1
50
0
73
2
44
1
0
LWPOLYLINE
5
288
100
AcDbEntity
8
0
6
ByLayer
62
256
370
-1
100
AcDbPolyline
90
164
70
0
43
0
10
138.5168896
20
104.6478848
10
138.5168896
20
104.595456
10
138.6217472
20
104.5430272
10
138.6217472
20
104.4905984
10
138.6217472
20
104.4381696
10
138.674176
20
104.4381696
10
138.674176
20
104.3857408
10
138.7266048
20
104.333312
10
138.7266048
20
104.2808832
10
138.7266048
20
104.2284544
10
138.7790336
20
104.1760256
10
138.8314624
20
104.071168
10
138.8838912
20
103.9663104
10
138.93632
20
103.9138816
10
138.93632
20
103.809024
10
138.9887488
20
103.7041664
10
139.0411776
20
103.5993088
10
139.0936064
20
103.4944512
10
139.0936064
20
103.3371648
10
139.1460352
20
103.2323072
10
139.1460352
20
103.1274496
10
139.198464
20
103.0750208
10
139.198464
20
102.9177344
10
139.198464
20
102.8128768
10
139.198464
20
102.760448
10
139.198464
20
102.6555904
10
139.2508928
20
102.5507328
10
139.2508928
20
102.4458752
10
139.2508928
20
102.3410176
10
139.3033216
20
102.23616
10
139.3033216
20
102.1313024
10
139.3033216
20
102.0264448
10
139.3557504
20
101.8691584
10
139.3557504
20
101.7643008
10
139.3557504
20
101.6594432
10
139.3557504
20
101.5021568
10
139.3557504
20
101.3972992
10
139.3557504
20
101.2400128
10
139.4081792
20
101.1351552
10
139.4081792
20
101.0302976
10
139.460608
20
100.8730112
10
139.460608
20
100.7157248
10
139.5130368
20
100.5584384
10
139.5130368
20
100.4535808
10
139.5130368
20
100.3487232
10
139.5654656
20
100.2438656
10
139.6178944
20
100.139008
10
139.6178944
20
100.0865792
10
139.6703232
20
99.9817216
10
139.6703232
20
99.9292928
10
139.722752
20
99.876864
10
139.7751808
20
99.7720064
10
139.8276096
20
99.7720064
10
139.8276096
20
99.6671488
10
139.8800384
20
99.61472
10
139.8800384
20
99.5622912
10
139.984896
20
99.4574336
10
140.0373248
20
99.352576
10
140.1421824
20
99.2477184
10
140.24704
20
99.1428608
10
140.2994688
20
99.0380032
10
140.4567552
20
98.9331456
10
140.5616128
20
98.7758592
10
140.7188992
20
98.6710016
10
140.8237568
20
98.566144
10
140.9286144
20
98.4088576
10
141.033472
20
98.3564288
10
141.1907584
20
98.2515712
10
141.295616
20
98.1467136
10
141.4529024
20
98.041856
10
141.55776
20
97.9894272
10
141.6626176
20
97.8845696
10
141.7674752
20
97.8321408
10
141.8723328
20
97.7272832
10
141.9771904
20
97.7272832
10
142.082048
20
97.6748544
10
142.1344768
20
97.6224256
10
142.2393344
20
97.5699968
10
142.25
20
97.4651392
10
142.25
20
97.4127104
10
142.25
20
97.3602816
10
142.25
20
97.255424
10
142.7636224
20
97.1505664
10
142.86848
20
97.1505664
10
142.9733376
20
97.0981376
10
143.0781952
20
96.99328
10
143.1830528
20
96.9408512
10
143.2879104
20
96.8884224
10
143.392768
20
96.7835648
10
143.4451968
20
96.7835648
10
143.5500544
20
96.731136
10
143.6024832
20
96.6787072
10
143.654912
20
96.6262784
10
143.7597696
20
96.6262784
10
143.8121984
20
96.5738496
10
143.8646272
20
96.5214208
10
143.917056
20
96.5214208
10
144.0219136
20
96.468992
10
144.0743424
20
96.468992
10
144.1267712
20
96.4165632
10
144.2316288
20
96.3641344
10
144.2840576
20
96.3117056
10
144.441344
20
96.3117056
10
144.4937728
20
96.2592768
10
144.5462016
20
96.206848
10
144.5986304
20
96.206848
10
144.703488
20
96.1544192
10
144.7559168
20
96.1019904
10
144.8607744
20
96.1019904
10
144.9132032
20
96.0495616
10
145.0180608
20
96.0495616
10
145.1229184
20
95.9971328
10
145.1753472
20
95.944704
10
145.227776
20
95.944704
10
145.3326336
20
95.8922752
10
145.4374912
20
95.8922752
10
145.48992
20
95.8398464
10
145.5947776
20
95.8398464
10
145.6472064
20
95.7874176
10
145.752064
20
95.7874176
10
145.8044928
20
95.7349888
10
145.9093504
20
95.68256
10
146.014208
20
95.68256
10
146.0666368
20
95.6301312
10
146.1190656
20
95.5777024
10
146.2239232
20
95.5777024
10
146.3287808
20
95.5252736
10
146.4336384
20
95.4728448
10
146.538496
20
95.4728448
10
146.538496
20
95.420416
10
146.5909248
20
95.420416
10
146.6433536
20
95.420416
10
146.6957824
20
95.420416
10
146.6957824
20
95.3679872
10
146.7482112
20
95.3155584
10
146.80064
20
95.3155584
10
146.9054976
20
95.2631296
10
146.9579264
20
95.2107008
10
147.0103552
20
95.2107008
10
147.062784
20
95.158272
10
147.1152128
20
95.158272
10
147.1676416
20
95.1058432
10
147.2724992
20
95.1058432
10
147.2724992
20
95.0534144
10
147.3773568
20
95.0534144
10
147.4297856
20
95.0009856
10
147.5346432
20
95.0009856
10
147.5346432
20
94.9485568
10
147.587072
20
94.9485568
10
147.6395008
20
94.9485568
10
147.6919296
20
94.896128
10
147.7443584
20
94.896128
10
147.7967872
20
94.8436992
10
147.849216
20
94.8436992
10
147.9016448
20
94.8436992
10
147.9540736
20
94.7912704
10
148.0065024
20
94.7388416
10
148.0589312
20
94.7388416
10
148.0589312
20
94.6864128
10
148.11136
20
94.6864128
10
148.11136
20
94.633984
10
148.1637888
20
94.633984
10
148.1637888
20
94.5815552
10
148.2686464
20
94.5815552
0
LWPOLYLINE
5
289
100
AcDbEntity
8
0
6
ByLayer
62
256
370
-1
100
AcDbPolyline
90
39
70
0
43
0
10
131.23584
20
73.64608
10
131.39968
20
73.64608
10
131.64544
20
73.64608
10
131.97312
20
73.48224
10
132.13696
20
73.40032
10
132.3008
20
73.40032
10
132.46464
20
73.40032
10
132.54656
20
73.3184
10
132.62848
20
73.3184
10
132.7104
20
73.3184
10
132.79232
20
73.3184
10
132.95616
20
73.23648
10
133.12
20
73.15456
10
133.28384
20
73.15456
10
133.44768
20
73.07264
10
133.61152
20
72.99072
10
133.69344
20
72.9088
10
133.85728
20
72.9088
10
133.85728
20
72.82688
10
133.9392
20
72.82688
10
134.10304
20
72.74496
10
134.18496
20
72.66304
10
134.26688
20
72.66304
10
134.3488
20
72.66304
10
134.43072
20
72.58112
10
134.51264
20
72.58112
10
134.59456
20
72.58112
10
134.59456
20
72.4992
10
134.67648
20
72.4992
10
134.7584
20
72.41728
10
134.84032
20
72.41728
10
134.84032
20
72.33536
10
135.00416
20
72.33536
10
135.168
20
72.33536
10
135.168
20
72.25344
10
135.24992
20
72.25344
10
135.33184
20
72.25344
10
135.41376
20
72.17152
10
135.49568
20
72.17152
0
LWPOLYLINE
5
28A
100
AcDbEntity
8
0
6
ByLayer
62
256
370
-1
100
AcDbPolyline
90
28
70
0
43
0
10
104.20224
20
75.93984
10
104.28416
20
75.776
10
104.36608
20
75.776
10
104.36608
20
75.69408
10
104.448
20
75.61216
10
104.52992
20
75.61216
10
104.52992
20
75.53024
10
104.61184
20
75.53024
10
104.69376
20
75.44832
10
104.77568
20
75.44832
10
104.8576
20
75.3664
10
104.93952
20
75.3664
10
105.02144
20
75.3664
10
105.02144
20
75.28448
10
105.10336
20
75.28448
10
105.10336
20
75.20256
10
105.18528
20
75.20256
10
105.2672
20
75.20256
10
105.2672
20
75.12064
10
105.34912
20
75.12064
10
105.43104
20
75.12064
10
105.51296
20
75.03872
10
105.59488
20
75.03872
10
105.6768
20
74.9568
10
105.75872
20
74.9568
10
105.84064
20
74.87488
10
105.92256
20
74.87488
10
106.00448
20
74.87488
0
LWPOLYLINE
5
28B
100
AcDbEntity
8
0
6
ByLayer
62
256
370
-1
100
AcDbPolyline
90
68
70
0
43
0
10
116.76942336
20
64.692944896
10
116.76942336
20
64.7466319872
10
116.823110451
20
64.8003190784
10
116.849953997
20
64.827162624
10
116.903641088
20
64.8808497152
10
116.957328179
20
64.9345368064
10
117.01101527
20
64.961380352
10
117.064702362
20
64.9882238976
10
117.118389453
20
65.0419109888
10
117.19892009
20
65.09559808
10
117.252607181
20
65.1492851712
10
117.333137818
20
65.1761287168
10
117.386824909
20
65.2029722624
10
117.467355546
20
65.229815808
10
117.547886182
20
65.2566593536
10
117.628416819
20
65.3103464448
10
117.68210391
20
65.3371899904
10
117.762634547
20
65.3371899904
10
117.816321638
20
65.364033536
10
117.896852275
20
65.364033536
10
117.950539366
20
65.364033536
10
118.004226458
20
65.364033536
10
118.057913549
20
65.3908770816
10
118.138444186
20
65.3908770816
10
118.192131277
20
65.3908770816
10
118.272661914
20
65.3908770816
10
118.326349005
20
65.3908770816
10
118.380036096
20
65.3908770816
10
118.433723187
20
65.3908770816
10
118.487410278
20
65.3908770816
10
118.54109737
20
65.3908770816
10
118.567940915
20
65.3371899904
10
118.621628006
20
65.3103464448
10
118.675315098
20
65.2835028992
10
118.702158643
20
65.2566593536
10
118.729002189
20
65.2029722624
10
118.78268928
20
65.1761287168
10
118.809532826
20
65.09559808
10
118.836376371
20
65.0419109888
10
118.863219917
20
64.9882238976
10
118.916907008
20
64.9345368064
10
118.916907008
20
64.9076932608
10
118.943750554
20
64.8540061696
10
118.970594099
20
64.827162624
10
118.970594099
20
64.7734755328
10
118.997437645
20
64.692944896
10
118.997437645
20
64.6392578048
10
119.02428119
20
64.6124142592
10
119.02428119
20
64.558727168
10
119.051124736
20
64.4781965312
10
119.077968282
20
64.4513529856
10
119.104811827
20
64.3976658944
10
119.104811827
20
64.3439788032
10
119.131655373
20
64.290291712
10
119.158498918
20
64.2634481664
10
119.158498918
20
64.2097610752
10
119.158498918
20
64.1829175296
10
119.185342464
20
64.156073984
10
119.185342464
20
64.1292304384
10
119.21218601
20
64.1023868928
10
119.21218601
20
64.0486998016
10
119.239029555
20
64.0486998016
10
119.239029555
20
63.9950127104
10
119.239029555
20
63.9681691648
10
119.265873101
20
63.9681691648
10
119.292716646
20
63.9681691648
10
119.319560192
20
63.9681691648
10
119.346403738
20
64.0755433472
0
MTEXT
5
28C
100
AcDbEntity
8
text
6
ByLayer
62
256
370
-1
100
AcDbMText
10
168.75
20
76.5625
30
0
40
1
41
12.0555565841
71
1
72
1
1
edge trim added\Pall inside exposed\Pseams
7
standard
210
0
220
0
230
1
50
0
73
2
44
1
0
LINE
5
28D
100
AcDbEntity
8
0
6
ByLayer
62
256
370
-1
100
AcDbLine
10
34.20692
20
-11.13824
11
34.20692
21
-6.13824000001
0
LINE
5
28E
100
AcDbEntity
8
0
6
ByLayer
62
256
370
-1
100
AcDbLine
10
70.20692
20
-6.13824000001
11
72.70692
21
-7.38824000001
0
LINE
5
28F
100
AcDbEntity
8
0
6
ByLayer
62
256
370
-1
100
AcDbLine
10
70.20692
20
-11.13824
11
72.70692
21
-9.88824000001
0
LINE
5
290
100
AcDbEntity
8
0
6
ByLayer
62
256
370
-1
100
AcDbLine
10
72.70692
20
-7.38824000001
11
75.20692
21
-7.38824000001
0
LINE
5
291
100
AcDbEntity
8
0
6
ByLayer
62
256
370
-1
100
AcDbLine
10
75.20692
20
-7.38824000001
11
75.20692
21
-9.88824000001
0
LINE
5
292
100
AcDbEntity
8
0
6
ByLayer
62
256
370
-1
100
AcDbLine
10
75.20692
20
-9.88824000001
11
72.70692
21
-9.88824000001
0
LINE
5
293
100
AcDbEntity
8
0
6
ByLayer
62
256
370
-1
100
AcDbLine
10
75.70692
20
-7.38824000001
11
133.70692
21
-7.38824000001
0
LINE
5
294
100
AcDbEntity
8
0
6
ByLayer
62
256
370
-1
100
AcDbLine
10
133.70692
20
-7.38824000001
11
133.70692
21
-9.88824000001
0
LINE
5
295
100
AcDbEntity
8
0
6
ByLayer
62
256
370
-1
100
AcDbLine
10
133.70692
20
-9.88824000001
11
75.70692
21
-9.88824000001
0
LINE
5
296
100
AcDbEntity
8
0
6
ByLayer
62
256
370
-1
100
AcDbLine
10
75.70692
20
-9.88824000001
11
75.70692
21
-7.38824000001
0
LINE
5
297
100
AcDbEntity
8
0
6
ByLayer
62
256
370
-1
100
AcDbLine
10
34.20692
20
-6.13824000001
11
70.20692
21
-6.13824000001
0
LINE
5
298
100
AcDbEntity
8
0
6
ByLayer
62
256
370
-1
100
AcDbLine
10
34.20692
20
-11.13824
11
70.20692
21
-11.13824
0
LINE
5
299
100
AcDbEntity
8
0
6
DOT2
62
256
370
-1
100
AcDbLine
10
39.20692
20
-11.13824
11
39.20692
21
-6.13824000001
0
MTEXT
5
29A
100
AcDbEntity
8
text
6
ByLayer
62
256
370
-1
100
AcDbMText
10
51.11882
20
-13.0224
30
0
40
1
41
6.61111111111
71
1
72
1
1
strap pad\P5 cm wid\P1 cm thick \Pfoam
7
standard
210
0
220
0
230
1
50
0
73
2
44
1
0
LINE
5
29B
100
AcDbEntity
8
0
6
DOT2
62
256
370
-1
100
AcDbLine
10
70.20692
20
-6.13824000001
11
70.20692
21
-11.13824
0
MTEXT
5
29C
100
AcDbEntity
8
text
6
ByLayer
62
256
370
-1
100
AcDbMText
10
73.941732
20
0.199487999998
30
0
40
1
41
6.19444495873
71
1
72
1
1
adjusting\Pslip clip\Pfor strap
7
standard
210
0
220
0
230
1
50
0
73
2
44
1
0
MTEXT
5
29D
100
AcDbEntity
8
text
6
ByLayer
62
256
370
-1
100
AcDbMText
10
80.36426
20
-10.81056
30
0
40
1
41
6.19444444444
71
1
72
1
1
strap 2.5\Pweb 58cm\Plong\Pfolded\Pends
7
standard
210
0
220
0
230
1
50
0
73
2
44
1
0
MTEXT
5
29E
100
AcDbEntity
8
text
6
ByLayer
62
256
370
-1
100
AcDbMText
10
35.0625
20
5
30
0
40
1
41
12.3611111111
71
1
72
1
1
backpakc padded\Pstrap attach to\P5 cm reinforcing \Ppoint on top\Pback of back pack\Phere
7
standard
210
0
220
0
230
1
50
0
73
2
44
1
0
MTEXT
5
29F
100
AcDbEntity
8
text
6
ByLayer
62
256
370
-1
100
AcDbMText
10
133.70692
20
-9.88824000001
30
0
40
1
41
9.97260319425
71
1
72
1
1
strap attached\Pto triangle bit\Pon back pack\Phere
7
standard
210
0
220
0
230
1
50
0
73
2
44
1
0
DIMENSION
5
2A0
100
AcDbEntity
8
dimensions
6
ByLayer
62
256
370
-1
100
AcDbDimension
2
*D7
10
70.20692
20
-23.22144
30
0
11
54.70692
21
-21.34644
31
0
70
32
71
5
72
0
3
Standard
53
0
210
0
220
0
230
1
100
AcDbAlignedDimension
13
39.20692
23
-11.13824
33
0
14
70.20692
24
-11.13824
34
0
100
AcDbRotatedDimension
0
DIMENSION
5
2A1
100
AcDbEntity
8
dimensions
6
ByLayer
62
256
370
-1
100
AcDbDimension
2
*D8
10
39.20692
20
-26.80544
30
0
11
36.70692
21
-24.93044
31
0
70
32
71
5
72
0
3
Standard
53
0
210
0
220
0
230
1
100
AcDbAlignedDimension
13
34.20692
23
-11.13824
33
0
14
39.20692
24
-11.13824
34
0
100
AcDbRotatedDimension
0
DIMENSION
5
2A2
100
AcDbEntity
8
dimensions
6
ByLayer
62
256
370
-1
100
AcDbDimension
2
*D9
10
75.20692
20
-31.51584
30
0
11
54.70692
21
-29.64084
31
0
70
32
71
5
72
0
3
Standard
53
0
210
0
220
0
230
1
100
AcDbAlignedDimension
13
34.20692
23
-11.13824
33
0
14
75.20692
24
-9.88824000001
34
0
100
AcDbRotatedDimension
0
DIMENSION
5
2A3
100
AcDbEntity
8
dimensions
6
ByLayer
62
256
370
-1
100
AcDbDimension
2
*D10
10
133.70692
20
-5.633216
30
0
11
104.70692
21
-3.758216
31
0
70
32
71
5
72
0
3
Standard
53
0
210
0
220
0
230
1
100
AcDbAlignedDimension
13
75.70692
23
-7.38824000001
33
0
14
133.70692
24
-7.38824000001
34
0
100
AcDbRotatedDimension
0
DIMENSION
5
2A4
100
AcDbEntity
8
dimensions
6
ByLayer
62
256
370
-1
100
AcDbDimension
2
*D11
10
28.9053928
20
-6.13824000001
30
0
11
27.0303928
21
-8.63824000001
31
0
70
32
71
5
72
0
3
Standard
53
0
210
0
220
0
230
1
100
AcDbAlignedDimension
13
34.20692
23
-11.13824
33
0
14
34.20692
24
-6.13824000001
34
0
50
90
100
AcDbRotatedDimension
0
MTEXT
5
2A5
100
AcDbEntity
8
text
6
ByLayer
62
256
370
-1
100
AcDbMText
10
252.447
20
-7.587
30
0
40
1
41
9.83333333333
71
1
72
1
1
pocket backing\Pwith top cover
7
standard
210
0
220
0
230
1
50
0
73
2
44
1
0
MTEXT
5
2A6
100
AcDbEntity
8
text
6
ByLayer
62
256
370
-1
100
AcDbMText
10
86.5
20
-26
30
0
40
2
41
34.0555576127
71
1
72
1
1
back pack padded straps
7
standard
210
0
220
0
230
1
50
0
73
2
44
1
0
DIMENSION
5
2A7
100
AcDbEntity
8
dimensions
6
ByLayer
62
256
370
-1
100
AcDbDimension
2
*D12
10
96.0921600001
20
107.5
30
0
11
94.2171600001
21
109.5
31
0
70
32
71
5
3
Standard
53
0
210
0
220
0
230
1
100
AcDbAlignedDimension
13
107.75
23
111.5
33
0
14
110.25
24
107.5
34
0
50
90
100
AcDbRotatedDimension
0
MTEXT
5
2A8
100
AcDbEntity
8
text
6
ByLayer
62
256
370
-1
100
AcDbMText
10
7.95800000002
20
101.448
30
0
40
2
41
47.0555565841
71
1
72
1
1
top cover backed with vinal inside
7
standard
210
0
220
0
230
1
50
0
73
2
44
1
0
DIMENSION
5
2A9
100
AcDbEntity
8
dimensions
6
ByLayer
62
256
370
-1
100
AcDbDimension
2
*D13
10
75.20692
20
-26.804224
30
0
11
72.70692
21
-24.929224
31
0
70
32
71
5
3
Standard
53
0
210
0
220
0
230
1
100
AcDbAlignedDimension
13
70.20692
23
-11.13824
33
0
14
75.20692
24
-9.88824000001
34
0
100
AcDbRotatedDimension
0
LINE
5
2AA
100
AcDbEntity
8
0
6
ByLayer
62
256
370
-1
100
AcDbLine
10
321.760000001
20
32.9600000001
11
343.260000001
21
32.9600000001
0
LINE
5
2AB
100
AcDbEntity
8
0
6
ByLayer
62
256
370
-1
100
AcDbLine
10
321.760000001
20
9.96000000011
11
321.760000001
21
32.9600000001
0
LINE
5
2AC
100
AcDbEntity
8
0
6
ByLayer
62
256
370
-1
100
AcDbLine
10
343.260000001
20
32.9600000001
11
343.260000001
21
9.96000000011
0
LINE
5
2AD
100
AcDbEntity
8
0
6
ByLayer
62
256
370
-1
100
AcDbLine
10
321.760000001
20
33.9600000001
11
343.260000001
21
33.9600000001
0
LINE
5
2AE
100
AcDbEntity
8
0
6
DOT2
62
256
370
-1
100
AcDbLine
10
321.760000001
20
32.4600000001
11
343.260000001
21
32.4600000001
0
LINE
5
2AF
100
AcDbEntity
8
0
6
DOT2
62
256
370
-1
100
AcDbLine
10
321.760000001
20
33.4600000001
11
343.260000001
21
33.4600000001
0
LINE
5
2B0
100
AcDbEntity
8
0
6
ByLayer
62
256
370
-1
100
AcDbLine
10
321.760000001
20
33.9600000001
11
321.760000001
21
32.9600000001
0
LINE
5
2B1
100
AcDbEntity
8
0
6
ByLayer
62
256
370
-1
100
AcDbLine
10
343.260000001
20
33.9600000001
11
343.260000001
21
32.9600000001
0
DIMENSION
5
2B2
100
AcDbEntity
8
dimensions
6
ByLayer
62
256
370
-1
100
AcDbDimension
2
*D14
10
358.809600001
20
9.96000000011
30
0
11
356.934600001
21
21.4600000001
31
0
70
32
71
5
3
Standard
53
0
210
0
220
0
230
1
100
AcDbAlignedDimension
13
343.260000001
23
32.9600000001
33
0
14
343.260000001
24
9.96000000011
34
0
50
90
100
AcDbRotatedDimension
0
DIMENSION
5
2B3
100
AcDbEntity
8
dimensions
6
ByLayer
62
256
370
-1
100
AcDbDimension
2
*D15
10
343.260000001
20
42.4345600001
30
0
11
332.510000001
21
44.3095600001
31
0
70
32
71
5
3
Standard
53
0
210
0
220
0
230
1
100
AcDbAlignedDimension
13
321.760000001
23
33.9600000001
33
0
14
343.260000001
24
33.9600000001
34
0
100
AcDbRotatedDimension
0
LINE
5
2B4
100
AcDbEntity
8
0
6
DOT2
62
256
370
-1
100
AcDbLine
10
323.260000001
20
9.96000000011
11
323.260000001
21
32.9600000001
0
LINE
5
2B5
100
AcDbEntity
8
0
6
DOT2
62
256
370
-1
100
AcDbLine
10
341.760000001
20
32.9600000001
11
341.760000001
21
9.96000000011
0
LINE
5
2B6
100
AcDbEntity
8
0
6
ByLayer
62
256
370
-1
100
AcDbLine
10
321.760000001
20
9.96000000011
11
325.760000001
21
9.96000000011
0
LINE
5
2B7
100
AcDbEntity
8
0
6
ByLayer
62
256
370
-1
100
AcDbLine
10
325.760000001
20
9.96000000011
11
325.760000001
21
5.96000000011
0
LINE
5
2B8
100
AcDbEntity
8
0
6
ByLayer
62
256
370
-1
100
AcDbLine
10
325.760000001
20
5.96000000011
11
339.260000001
21
5.96000000011
0
LINE
5
2B9
100
AcDbEntity
8
0
6
ByLayer
62
256
370
-1
100
AcDbLine
10
339.260000001
20
5.96000000011
11
339.260000001
21
9.96000000011
0
LINE
5
2BA
100
AcDbEntity
8
0
6
ByLayer
62
256
370
-1
100
AcDbLine
10
339.260000001
20
9.96000000011
11
343.260000001
21
9.96000000011
0
LINE
5
2BB
100
AcDbEntity
8
0
6
DOT2
62
256
370
-1
100
AcDbLine
10
319.760000001
20
7.96000000011
11
319.760000001
21
33.9600000001
0
LINE
5
2BC
100
AcDbEntity
8
0
6
DOT2
62
256
370
-1
100
AcDbLine
10
345.260000001
20
33.9600000001
11
345.260000001
21
7.96000000011
0
LINE
5
2BD
100
AcDbEntity
8
0
6
DOT2
62
256
370
-1
100
AcDbLine
10
323.760000001
20
3.96000000011
11
341.260000001
21
3.96000000011
0
LINE
5
2BE
100
AcDbEntity
8
0
6
DOT2
62
256
370
-1
100
AcDbLine
10
319.760000001
20
7.96000000011
11
323.760000001
21
7.96000000011
0
LINE
5
2BF
100
AcDbEntity
8
0
6
DOT2
62
256
370
-1
100
AcDbLine
10
341.260000001
20
7.96000000011
11
345.260000001
21
7.96000000011
0
LINE
5
2C0
100
AcDbEntity
8
0
6
DOT2
62
256
370
-1
100
AcDbLine
10
323.760000001
20
7.96000000011
11
323.760000001
21
3.96000000011
0
LINE
5
2C1
100
AcDbEntity
8
0
6
DOT2
62
256
370
-1
100
AcDbLine
10
341.260000001
20
7.96000000011
11
341.260000001
21
3.96000000011
0
LINE
5
2C2
100
AcDbEntity
8
0
6
DOT2
62
256
370
-1
100
AcDbLine
10
319.760000001
20
33.9600000001
11
321.760000001
21
33.9600000001
0
LINE
5
2C3
100
AcDbEntity
8
0
6
DOT2
62
256
370
-1
100
AcDbLine
10
343.260000001
20
33.9600000001
11
345.260000001
21
33.9600000001
0
DIMENSION
5
2C4
100
AcDbEntity
8
dimensions
6
ByLayer
62
256
370
-1
100
AcDbDimension
2
*D16
10
325.760000001
20
-1.90054400001
30
0
11
323.760000001
21
-0.0255440000063
31
0
70
32
71
5
3
Standard
53
0
210
0
220
0
230
1
100
AcDbAlignedDimension
13
321.760000001
23
9.96000000011
33
0
14
325.760000001
24
5.96000000011
34
0
100
AcDbRotatedDimension
0
DIMENSION
5
2C5
100
AcDbEntity
8
dimensions
6
ByLayer
62
256
370
-1
100
AcDbDimension
2
*D17
10
339.260000001
20
-7.36000000002
30
0
11
332.510000001
21
-5.48500000002
31
0
70
32
71
5
3
Standard
53
0
210
0
220
0
230
1
100
AcDbAlignedDimension
13
325.760000001
23
5.96000000011
33
0
14
339.260000001
24
5.96000000011
34
0
100
AcDbRotatedDimension
0
DIMENSION
5
2C6
100
AcDbEntity
8
dimensions
6
ByLayer
62
256
370
-1
100
AcDbDimension
2
*D18
10
353.239040001
20
5.96000000011
30
0
11
351.364040001
21
7.96000000011
31
0
70
32
71
5
3
Standard
53
0
210
0
220
0
230
1
100
AcDbAlignedDimension
13
343.260000001
23
9.96000000011
33
0
14
339.260000001
24
5.96000000011
34
0
50
90
100
AcDbRotatedDimension
0
LINE
5
2C7
100
AcDbEntity
8
0
6
ByLayer
62
256
370
-1
100
AcDbLine
10
331.260000001
20
31.4600000001
11
333.760000001
21
31.4600000001
0
LINE
5
2C8
100
AcDbEntity
8
0
6
ByLayer
62
256
370
-1
100
AcDbLine
10
333.760000001
20
31.4600000001
11
333.760000001
21
13.4600000001
0
LINE
5
2C9
100
AcDbEntity
8
0
6
ByLayer
62
256
370
-1
100
AcDbLine
10
333.760000001
20
13.4600000001
11
331.260000001
21
13.4600000001
0
LINE
5
2CA
100
AcDbEntity
8
0
6
ByLayer
62
256
370
-1
100
AcDbLine
10
331.260000001
20
13.4600000001
11
331.260000001
21
31.4600000001
0
MTEXT
5
2CB
100
AcDbEntity
8
text
6
ByLayer
62
256
370
-1
100
AcDbMText
10
335.649177601
20
32.3485696001
30
0
40
0.75
41
5.79166666667
71
1
72
1
1
3 fold edge
7
standard
210
0
220
0
230
1
50
0
73
2
44
1
0
LINE
5
2CC
100
AcDbEntity
8
0
6
DOT2
62
256
370
-1
100
AcDbLine
10
331.760000001
20
16.9600000001
11
333.260000001
21
16.9600000001
0
LINE
5
2CD
100
AcDbEntity
8
0
6
DOT2
62
256
370
-1
100
AcDbLine
10
333.260000001
20
16.9600000001
11
333.260000001
21
13.9600000001
0
LINE
5
2CE
100
AcDbEntity
8
0
6
DOT2
62
256
370
-1
100
AcDbLine
10
333.260000001
20
13.9600000001
11
331.760000001
21
13.9600000001
0
LINE
5
2CF
100
AcDbEntity
8
0
6
DOT2
62
256
370
-1
100
AcDbLine
10
331.760000001
20
13.9600000001
11
331.760000001
21
16.9600000001
0
LINE
5
2D0
100
AcDbEntity
8
0
6
DOT2
62
256
370
-1
100
AcDbLine
10
331.760000001
20
16.9600000001
11
333.260000001
21
13.9600000001
0
LINE
5
2D1
100
AcDbEntity
8
0
6
DOT2
62
256
370
-1
100
AcDbLine
10
332
20
13.9600000001
11
333.260000001
21
16.9600000001
0
MTEXT
5
2D2
100
AcDbEntity
8
text
6
ByLayer
62
256
370
-1
100
AcDbMText
10
322.306048001
20
23.3308160001
30
0
40
0.75
41
8.70861944807
71
1
72
1
1
stich line outside
7
standard
210
0
220
0
230
1
50
90
73
2
44
1
0
MTEXT
5
2D3
100
AcDbEntity
8
text
6
ByLayer
62
256
370
-1
100
AcDbMText
10
340.852736001
20
21.6924160001
30
0
40
0.75
41
8.70861944807
71
1
72
1
1
stich line outside
7
standard
210
0
220
0
230
1
50
90
73
2
44
1
0
MTEXT
5
2D4
100
AcDbEntity
8
text
6
ByLayer
62
256
370
-1
100
AcDbMText
10
345.571328001
20
18.6777600001
30
0
40
0.75
41
13.1041666667
71
1
72
1
1
flap folded under backing
7
standard
210
0
220
0
230
1
50
90
73
2
44
1
0
MTEXT
5
2D5
100
AcDbEntity
8
text
6
ByLayer
62
256
370
-1
100
AcDbMText
10
318.439424001
20
17.8257920001
30
0
40
0.75
41
13.1041666667
71
1
72
1
1
flap folded under backing
7
standard
210
0
220
0
230
1
50
90
73
2
44
1
0
DIMENSION
5
2D6
100
AcDbEntity
8
dimensions
6
ByLayer
62
256
370
-1
100
AcDbDimension
2
*D19
10
338.231296001
20
13.4600000001
30
0
11
336.356296001
21
11.7100000001
31
0
70
32
71
5
3
Standard
53
0
210
0
220
0
230
1
100
AcDbAlignedDimension
13
339.260000001
23
9.96000000011
33
0
14
333.760000001
24
13.4600000001
34
0
50
90
100
AcDbRotatedDimension
0
MTEXT
5
2D7
100
AcDbEntity
8
text
6
ByLayer
62
256
370
-1
100
AcDbMText
10
334.102528001
20
28.5081600001
30
0
40
0.75
41
5.14611906235
71
1
72
1
1
strap with\PMale \Pconnector
7
standard
210
0
220
0
230
1
50
0
73
2
44
1
0
MTEXT
5
2D8
100
AcDbEntity
8
text
6
ByLayer
62
256
370
-1
100
AcDbMText
10
328.663040001
20
-11.22304
30
0
40
1
41
8.52777777778
71
1
72
1
1
pocket outer\Pshell
7
standard
210
0
220
0
230
1
50
0
73
2
44
1
0
LINE
5
2D9
100
AcDbEntity
8
0
6
ByLayer
62
256
370
-1
100
AcDbLine
10
250.375
20
7.285
11
264.375
21
7.285
0
LINE
5
2DA
100
AcDbEntity
8
0
6
ByLayer
62
256
370
-1
100
AcDbLine
10
250.375
20
30.785
11
249.875
21
30.785
0
LINE
5
2DB
100
AcDbEntity
8
0
6
ByLayer
62
256
370
-1
100
AcDbLine
10
250.375
20
7.285
11
250.375
21
30.785
0
DIMENSION
5
2DC
100
AcDbEntity
8
dimensions
6
ByLayer
62
256
370
-1
100
AcDbDimension
2
*D20
10
264.375
20
0.0419430400002
30
0
11
257.375
21
1.91694304
31
0
70
32
71
5
72
0
3
Standard
53
0
210
0
220
0
230
1
100
AcDbAlignedDimension
13
250.375
23
7.285
33
0
14
264.375
24
7.285
34
0
100
AcDbRotatedDimension
0
LINE
5
2DD
100
AcDbEntity
8
0
6
ByLayer
62
256
370
-1
100
AcDbLine
10
264.375
20
30.785
11
264.875
21
30.785
0
LINE
5
2DE
100
AcDbEntity
8
0
6
ByLayer
62
256
370
-1
100
AcDbLine
10
257.375
20
29.285
11
257.375
21
33.285
0
LINE
5
2DF
100
AcDbEntity
8
0
6
ByLayer
62
256
370
-1
100
AcDbLine
10
259.375
20
31.285
11
255.375
21
31.285
0
ARC
5
2E0
100
AcDbEntity
8
0
6
ByLayer
62
256
370
-1
100
AcDbCircle
10
257.375
20
31.285
40
11.5
100
AcDbArc
50
10.0154101683
51
169.984589832
0
LINE
5
2E1
100
AcDbEntity
8
0
6
ByLayer
62
256
370
-1
100
AcDbLine
10
264.375
20
7.285
11
264.375
21
30.785
0
LINE
5
2E2
100
AcDbEntity
8
0
6
DOT2
62
256
370
-1
100
AcDbLine
10
250.375
20
6.285
11
264.375
21
6.285
0
DIMENSION
5
2E3
100
AcDbEntity
8
dimensions
6
ByLayer
62
256
370
-1
100
AcDbDimension
2
*D21
10
271.843328001
20
30.785
30
0
11
269.968328001
21
19.035
31
0
70
32
71
5
72
0
3
Standard
53
0
210
0
220
0
230
1
100
AcDbAlignedDimension
13
264.375
23
7.285
33
0
14
264.875
24
30.785
34
0
50
90
100
AcDbRotatedDimension
0
DIMENSION
5
2E4
100
AcDbEntity
8
dimensions
6
ByLayer
62
256
370
-1
100
AcDbDimension
2
*D22
10
275.841024001
20
33.285
30
0
11
273.966024001
21
32.035
31
0
70
32
71
5
72
0
3
Standard
53
0
210
0
220
0
230
1
100
AcDbAlignedDimension
13
264.875
23
30.785
33
0
14
268.699751653
24
33.285
34
0
50
90
100
AcDbRotatedDimension
0
DIMENSION
5
2E5
100
AcDbEntity
8
dimensions
6
ByLayer
62
256
370
-1
100
AcDbDimension
2
*D23
10
241.106944001
20
33.285
30
0
11
239.231944001
21
20.285
31
0
70
32
71
5
72
0
3
Standard
53
0
210
0
220
0
230
1
100
AcDbAlignedDimension
13
250.375
23
7.285
33
0
14
246.050248347
24
33.285
34
0
50
90
100
AcDbRotatedDimension
0
DIMENSION
5
2E6
100
AcDbEntity
8
dimensions
6
ByLayer
62
256
370
-1
100
AcDbDimension
2
*D24
10
257.375
20
31.285
30
0
11
259.936645291
21
36.7636949543
31
0
70
36
71
5
72
0
3
Standard
53
0
210
0
220
0
230
1
100
AcDbRadialDimension
15
265.23552196
25
39.6791762258
35
0
40
0
0
DIMENSION
5
2E7
100
AcDbEntity
8
dimensions
6
ByLayer
62
256
370
-1
100
AcDbDimension
2
*D25
10
281.935872001
20
31.285
30
0
11
280.060872001
21
19.285
31
0
70
32
71
5
72
0
3
Standard
53
0
210
0
220
0
230
1
100
AcDbAlignedDimension
13
264.375
23
7.285
33
0
14
257.375
24
31.285
34
0
50
90
100
AcDbRotatedDimension
0
LINE
5
2E8
100
AcDbEntity
8
0
6
ByLayer
62
256
370
-1
100
AcDbLine
10
246.050248347
20
33.285
11
249.875
21
31.785
0
LINE
5
2E9
100
AcDbEntity
8
0
6
ByLayer
62
256
370
-1
100
AcDbLine
10
264.875
20
31.785
11
268.699751653
21
33.285
0
LINE
5
2EA
100
AcDbEntity
8
0
6
ByLayer
62
256
370
-1
100
AcDbLine
10
249.875
20
30.785
11
249.875
21
31.785
0
LINE
5
2EB
100
AcDbEntity
8
0
6
ByLayer
62
256
370
-1
100
AcDbLine
10
264.875
20
30.785
11
264.875
21
31.785
0
ARC
5
2EC
100
AcDbEntity
8
0
6
DOT2
62
256
370
-1
100
AcDbCircle
10
257.375
20
31.285
40
11
100
AcDbArc
50
9.48984264896
51
170.510157351
0
LINE
5
2ED
100
AcDbEntity
8
0
6
DOT2
62
256
370
-1
100
AcDbLine
10
251.375
20
7.285
11
251.375
21
30.785
0
LINE
5
2EE
100
AcDbEntity
8
0
6
DOT2
62
256
370
-1
100
AcDbLine
10
263.375
20
7.285
11
263.375
21
30.785
0
MTEXT
5
2EF
100
AcDbEntity
8
text
6
CONTINUOUS
62
256
370
-1
100
AcDbMText
10
251.710668801
20
20.3948032001
30
0
40
0.75
41
5.22945239569
71
1
72
1
1
stich point\Poutside
7
standard
210
0
220
0
230
1
50
90
73
2
44
1
0
LINE
5
2F0
100
AcDbEntity
8
dimensions
6
ByLayer
62
256
370
-1
100
AcDbLine
10
318.546345757
20
142.472925838
11
318.314781487
21
141.50010623
0
ARC
5
2F1
100
AcDbEntity
8
bogus2
6
ByLayer
62
256
370
-1
100
AcDbCircle
10
291.898024791
20
22.2568259547
40
95.8525140449
100
AcDbArc
50
109.850092564
51
110.089192355
0
LINE
5
2F2
100
AcDbEntity
8
dimensions
6
ByLayer
62
256
370
-1
100
AcDbLine
10
265.058426171
20
72.350327252
11
264.597878832
21
74.2965790726
0
LINE
5
2F3
100
AcDbEntity
8
dimensions
6
ByLayer
62
256
370
-1
100
AcDbLine
10
319.074779019
20
74.257980808
11
318.591331122
21
72.3172906907
0
LINE
5
2F4
100
AcDbEntity
8
dimensions
6
ByLayer
62
256
370
-1
100
AcDbLine
10
317.860234949
20
73.5191978612
11
319.805875192
21
73.0560736375
0
ARC
5
2F5
100
AcDbEntity
8
dimensions
6
ByLayer
62
256
370
-1
100
AcDbCircle
10
291.758513731
20
-35.3906473216
40
112
100
AcDbArc
50
103.401509646
51
104.424651967
0
LINE
5
2F6
100
AcDbEntity
8
0
6
ByLayer
62
256
370
-1
100
AcDbLine
10
285.334165894
20
78.6785871584
11
283.834102965
21
78.5842017198
0
LINE
5
2F7
100
AcDbEntity
8
0
6
ByLayer
62
256
370
-1
100
AcDbLine
10
283.834102965
20
78.5842017198
11
283.832274497
21
75.8272681938
0
LINE
5
2F8
100
AcDbEntity
8
0
6
ByLayer
62
256
370
-1
100
AcDbLine
10
283.832274497
20
75.8272681938
11
285.332338993
21
75.9240160351
0
LINE
5
2F9
100
AcDbEntity
8
0
6
ByLayer
62
256
370
-1
100
AcDbLine
10
285.332338993
20
75.9240160351
11
285.334165894
21
78.6785871584
0
LINE
5
2FA
100
AcDbEntity
8
0
6
ByLayer
62
256
370
-1
100
AcDbLine
10
285.334165894
20
78.6785871584
11
283.832274497
21
75.8272681938
0
LINE
5
2FB
100
AcDbEntity
8
0
6
ByLayer
62
256
370
-1
100
AcDbLine
10
285.332338993
20
75.9240160351
11
283.834102965
21
78.5842017198
0
LINE
5
2FC
100
AcDbEntity
8
0
6
ByLayer
62
256
370
-1
100
AcDbLine
10
299.832270978
20
75.8166565928
11
298.332336134
21
75.9153941093
0
LINE
5
2FD
100
AcDbEntity
8
0
6
ByLayer
62
256
370
-1
100
AcDbLine
10
298.332336134
20
75.9153941093
11
298.334163035
21
78.6699652325
0
LINE
5
2FE
100
AcDbEntity
8
0
6
ByLayer
62
256
370
-1
100
AcDbLine
10
298.334163035
20
78.6699652325
11
299.834099446
21
78.5735901187
0
LINE
5
2FF
100
AcDbEntity
8
0
6
ByLayer
62
256
370
-1
100
AcDbLine
10
299.834099446
20
78.5735901187
11
299.832270978
21
75.8166565928
0
LINE
5
300
100
AcDbEntity
8
0
6
ByLayer
62
256
370
-1
100
AcDbLine
10
299.832270978
20
75.8166565928
11
298.334163035
21
78.6699652325
0
LINE
5
301
100
AcDbEntity
8
0
6
ByLayer
62
256
370
-1
100
AcDbLine
10
299.834099446
20
78.5735901187
11
298.332336134
21
75.9153941093
0
LINE
5
302
100
AcDbEntity
8
0
6
ByLayer
62
256
370
-1
100
AcDbLine
10
285.336158714
20
81.6833286766
11
283.838091617
21
84.5982247188
0
LINE
5
303
100
AcDbEntity
8
0
6
ByLayer
62
256
370
-1
100
AcDbLine
10
283.838091617
20
84.5982247188
11
283.83609741
21
81.5913932643
0
LINE
5
304
100
AcDbEntity
8
0
6
ByLayer
62
256
370
-1
100
AcDbLine
10
283.83609741
20
81.5913932643
11
285.338151377
21
84.6878330453
0
LINE
5
305
100
AcDbEntity
8
0
6
ByLayer
62
256
370
-1
100
AcDbLine
10
285.338151377
20
84.6878330453
11
285.336158714
21
81.6833286766
0
LINE
5
306
100
AcDbEntity
8
0
6
ByLayer
62
256
370
-1
100
AcDbLine
10
285.336158714
20
81.6833286766
11
283.83609741
21
81.5913932643
0
LINE
5
307
100
AcDbEntity
8
0
6
ByLayer
62
256
370
-1
100
AcDbLine
10
285.338151377
20
84.6878330453
11
283.838091617
21
84.5982247188
0
LINE
5
308
100
AcDbEntity
8
0
6
ByLayer
62
256
370
-1
100
AcDbLine
10
299.836093891
20
81.5807816632
11
298.336155855
21
81.6747067507
0
LINE
5
309
100
AcDbEntity
8
0
6
ByLayer
62
256
370
-1
100
AcDbLine
10
298.336155855
20
81.6747067507
11
298.338148518
21
84.6792111195
0
LINE
5
30A
100
AcDbEntity
8
0
6
ByLayer
62
256
370
-1
100
AcDbLine
10
298.338148518
20
84.6792111195
11
299.838088098
21
84.5876131177
0
LINE
5
30B
100
AcDbEntity
8
0
6
ByLayer
62
256
370
-1
100
AcDbLine
10
299.838088098
20
84.5876131177
11
299.836093891
21
81.5807816632
0
LINE
5
30C
100
AcDbEntity
8
0
6
ByLayer
62
256
370
-1
100
AcDbLine
10
299.836093891
20
81.5807816632
11
298.338148518
21
84.6792111195
0
LINE
5
30D
100
AcDbEntity
8
0
6
ByLayer
62
256
370
-1
100
AcDbLine
10
299.838088098
20
84.5876131177
11
298.336155855
21
81.6747067507
0
LINE
5
30E
100
AcDbEntity
8
0
6
ByLayer
62
256
370
-1
100
AcDbLine
10
285.341140102
20
89.194182476
11
283.841082517
21
89.1078538057
0
LINE
5
30F
100
AcDbEntity
8
0
6
ByLayer
62
256
370
-1
100
AcDbLine
10
283.841082517
20
89.1078538057
11
283.843076199
21
92.1138951413
0
LINE
5
310
100
AcDbEntity
8
0
6
ByLayer
62
256
370
-1
100
AcDbLine
10
283.843076199
20
92.1138951413
11
285.34313242
21
92.1981663833
0
LINE
5
311
100
AcDbEntity
8
0
6
ByLayer
62
256
370
-1
100
AcDbLine
10
285.34313242
20
92.1981663833
11
285.341140102
21
89.194182476
0
LINE
5
312
100
AcDbEntity
8
0
6
ByLayer
62
256
370
-1
100
AcDbLine
10
285.341140102
20
89.194182476
11
283.843076199
21
92.1138951413
0
LINE
5
313
100
AcDbEntity
8
0
6
ByLayer
62
256
370
-1
100
AcDbLine
10
285.34313242
20
92.1981663833
11
283.841082517
21
89.1078538057
0
LINE
5
314
100
AcDbEntity
8
0
6
ByLayer
62
256
370
-1
100
AcDbLine
10
299.841078998
20
89.0972422047
11
298.341137243
21
89.1855605501
0
LINE
5
315
100
AcDbEntity
8
0
6
ByLayer
62
256
370
-1
100
AcDbLine
10
298.341137243
20
89.1855605501
11
298.34312956
21
92.1895444574
0
LINE
5
316
100
AcDbEntity
8
0
6
ByLayer
62
256
370
-1
100
AcDbLine
10
298.34312956
20
92.1895444574
11
299.84307268
21
92.1032835402
0
LINE
5
317
100
AcDbEntity
8
0
6
ByLayer
62
256
370
-1
100
AcDbLine
10
299.84307268
20
92.1032835402
11
299.841078998
21
89.0972422047
0
LINE
5
318
100
AcDbEntity
8
0
6
ByLayer
62
256
370
-1
100
AcDbLine
10
299.841078998
20
89.0972422047
11
298.34312956
21
92.1895444574
0
LINE
5
319
100
AcDbEntity
8
0
6
ByLayer
62
256
370
-1
100
AcDbLine
10
298.341137243
20
89.1855605501
11
299.84307268
21
92.1032835402
0
LINE
5
31A
100
AcDbEntity
8
0
6
ByLayer
62
256
370
-1
100
AcDbLine
10
283.364149679
20
123.888304998
11
285.864224576
21
124.000404357
0
LINE
5
31B
100
AcDbEntity
8
0
6
ByLayer
62
256
370
-1
100
AcDbLine
10
297.864221936
20
123.992445657
11
300.36414594
21
123.877030172
0
ARC
5
31C
100
AcDbEntity
8
0
6
ByLayer
62
256
370
-1
100
AcDbCircle
10
264.828152501
20
73.3234531623
40
2
100
AcDbArc
50
194.581000775
51
286.977227939
0
ARC
5
31D
100
AcDbEntity
8
0
6
ByLayer
62
256
370
-1
100
AcDbCircle
10
318.833055071
20
73.2876357493
40
2
100
AcDbArc
50
256.011688457
51
346.610942741
0
ARC
5
31E
100
AcDbEntity
8
0
6
DOT2
62
256
370
-1
100
AcDbCircle
10
264.828152501
20
73.3234531623
40
2.5
100
AcDbArc
50
194.581000775
51
286.977227939
0
ARC
5
31F
100
AcDbEntity
8
0
6
DOT2
62
256
370
-1
100
AcDbCircle
10
291.758513731
20
-35.3906473216
40
109.5
100
AcDbArc
50
76.0109250478
51
103.843135504
0
ARC
5
320
100
AcDbEntity
8
0
6
DOT2
62
256
370
-1
100
AcDbCircle
10
318.833055071
20
73.2876357493
40
2.5
100
AcDbArc
50
256.011688457
51
346.610942741
0
LINE
5
321
100
AcDbEntity
8
0
6
ByLayer
62
256
370
-1
100
AcDbLine
10
265.679870207
20
78.409451211
11
260.498712648
21
100.304784192
0
LINE
5
322
100
AcDbEntity
8
0
6
ByLayer
62
256
370
-1
100
AcDbLine
10
274.122475392
20
103.528615562
11
279.30363295
21
81.633282581
0
LINE
5
323
100
AcDbEntity
8
0
6
ByLayer
62
256
370
-1
100
AcDbLine
10
304.368609928
20
81.6166588566
11
309.578805991
21
103.50510003
0
LINE
5
324
100
AcDbEntity
8
0
6
ByLayer
62
256
370
-1
100
AcDbLine
10
317.988084436
20
78.3747590845
11
323.198280498
21
100.263200258
0
LINE
5
325
100
AcDbEntity
8
0
6
ByLayer
62
256
370
-1
100
AcDbLine
10
279.30363295
20
81.633282581
11
265.679870207
21
78.409451211
0
LINE
5
326
100
AcDbEntity
8
0
6
ByLayer
62
256
370
-1
100
AcDbLine
10
260.498712648
20
100.304784192
11
274.122475392
21
103.528615562
0
LINE
5
327
100
AcDbEntity
8
0
6
ByLayer
62
256
370
-1
100
AcDbLine
10
317.988084436
20
78.3747590845
11
304.368609928
21
81.6166588566
0
LINE
5
328
100
AcDbEntity
8
0
6
ByLayer
62
256
370
-1
100
AcDbLine
10
323.198280498
20
100.263200258
11
309.578805991
21
103.50510003
0
LINE
5
329
100
AcDbEntity
8
0
6
DOT2
62
256
370
-1
100
AcDbLine
10
281.422590023
20
81.3639854868
11
261.960071818
21
76.7585121012
0
LINE
5
32A
100
AcDbEntity
8
0
6
DOT2
62
256
370
-1
100
AcDbLine
10
281.422590023
20
81.3639854868
11
280.61663218
21
84.7699261728
0
LINE
5
32B
100
AcDbEntity
8
0
6
DOT2
62
256
370
-1
100
AcDbLine
10
280.61663218
20
84.7699261728
11
261.154113975
21
80.1644527871
0
LINE
5
32C
100
AcDbEntity
8
0
6
DOT2
62
256
370
-1
100
AcDbLine
10
257.239461597
20
96.7075932617
11
276.701979803
21
101.313066647
0
LINE
5
32D
100
AcDbEntity
8
0
6
DOT2
62
256
370
-1
100
AcDbLine
10
276.701979803
20
101.313066647
11
275.89602196
21
104.719007333
0
LINE
5
32E
100
AcDbEntity
8
0
6
DOT2
62
256
370
-1
100
AcDbLine
10
275.89602196
20
104.719007333
11
256.433503755
21
100.113533948
0
LINE
5
32F
100
AcDbEntity
8
0
6
DOT2
62
256
370
-1
100
AcDbLine
10
321.705689665
20
76.7188873009
11
302.249297511
21
81.3501726897
0
LINE
5
330
100
AcDbEntity
8
0
6
DOT2
62
256
370
-1
100
AcDbLine
10
302.249297511
20
81.3501726897
11
303.059772454
21
84.7550413167
0
LINE
5
331
100
AcDbEntity
8
0
6
DOT2
62
256
370
-1
100
AcDbLine
10
303.059772454
20
84.7550413167
11
322.516164608
21
80.1237559279
0
LINE
5
332
100
AcDbEntity
8
0
6
DOT2
62
256
370
-1
100
AcDbLine
10
326.452757188
20
96.6616892587
11
306.996365034
21
101.292974648
0
LINE
5
333
100
AcDbEntity
8
0
6
DOT2
62
256
370
-1
100
AcDbLine
10
306.996365034
20
101.292974648
11
307.806839977
21
104.697843274
0
LINE
5
334
100
AcDbEntity
8
0
6
DOT2
62
256
370
-1
100
AcDbLine
10
307.806839977
20
104.697843274
11
327.263232131
21
100.066557886
0
LINE
5
335
100
AcDbEntity
8
0
6
DASHED2
62
256
370
-1
100
AcDbLine
10
267.139559072
20
78.7548617149
11
261.958401513
21
100.650194696
0
LINE
5
336
100
AcDbEntity
8
0
6
DASHED2
62
256
370
-1
100
AcDbLine
10
272.662786526
20
103.183205058
11
277.843944085
21
81.287872077
0
LINE
5
337
100
AcDbEntity
8
0
6
DASHED2
62
256
370
-1
100
AcDbLine
10
305.82783934
20
81.2693124525
11
311.038035402
21
103.157753626
0
LINE
5
338
100
AcDbEntity
8
0
6
DASHED2
62
256
370
-1
100
AcDbLine
10
316.528855024
20
78.7221054886
11
321.739051087
21
100.610546662
0
CIRCLE
5
339
100
AcDbEntity
8
0
6
ByLayer
62
256
370
-1
100
AcDbCircle
10
324.532509374
20
112.346083415
40
0.75
0
CIRCLE
5
33A
100
AcDbEntity
8
0
6
ByLayer
62
256
370
-1
100
AcDbCircle
10
316.885419768
20
114.767706109
40
0.75
0
CIRCLE
5
33B
100
AcDbEntity
8
0
6
ByLayer
62
256
370
-1
100
AcDbCircle
10
309.083219154
20
116.537695323
40
0.75
0
CIRCLE
5
33C
100
AcDbEntity
8
0
6
ByLayer
62
256
370
-1
100
AcDbCircle
10
301.125491859
20
117.654304789
40
0.75
0
CIRCLE
5
33D
100
AcDbEntity
8
0
6
ByLayer
62
256
370
-1
100
AcDbCircle
10
291.860318779
20
118.109318918
40
0.75
0
CIRCLE
5
33E
100
AcDbEntity
8
0
6
ByLayer
62
256
370
-1
100
AcDbCircle
10
282.594550297
20
117.666594976
40
0.75
0
CIRCLE
5
33F
100
AcDbEntity
8
0
6
ByLayer
62
256
370
-1
100
AcDbCircle
10
274.635348877
20
116.560542019
40
0.75
0
CIRCLE
5
340
100
AcDbEntity
8
0
6
ByLayer
62
256
370
-1
100
AcDbCircle
10
266.830807324
20
114.80090359
40
0.75
0
CIRCLE
5
341
100
AcDbEntity
8
0
6
ByLayer
62
256
370
-1
100
AcDbCircle
10
259.180512285
20
112.389426508
40
0.75
0
CIRCLE
5
342
100
AcDbEntity
8
0
6
ByLayer
62
256
370
-1
100
AcDbCircle
10
324.532509374
20
112.346083415
40
0.5
0
CIRCLE
5
343
100
AcDbEntity
8
0
6
ByLayer
62
256
370
-1
100
AcDbCircle
10
316.885419768
20
114.767706109
40
0.5
0
CIRCLE
5
344
100
AcDbEntity
8
0
6
ByLayer
62
256
370
-1
100
AcDbCircle
10
309.083219154
20
116.537695323
40
0.5
0
CIRCLE
5
345
100
AcDbEntity
8
0
6
ByLayer
62
256
370
-1
100
AcDbCircle
10
301.125491859
20
117.654304789
40
0.5
0
CIRCLE
5
346
100
AcDbEntity
8
0
6
ByLayer
62
256
370
-1
100
AcDbCircle
10
291.860318779
20
118.109318918
40
0.5
0
CIRCLE
5
347
100
AcDbEntity
8
0
6
ByLayer
62
256
370
-1
100
AcDbCircle
10
282.594550297
20
117.666594976
40
0.5
0
CIRCLE
5
348
100
AcDbEntity
8
0
6
ByLayer
62
256
370
-1
100
AcDbCircle
10
274.635348877
20
116.560542019
40
0.5
0
CIRCLE
5
349
100
AcDbEntity
8
0
6
ByLayer
62
256
370
-1
100
AcDbCircle
10
266.830807324
20
114.80090359
40
0.5
0
CIRCLE
5
34A
100
AcDbEntity
8
0
6
ByLayer
62
256
370
-1
100
AcDbCircle
10
259.180512285
20
112.389426508
40
0.5
0
LINE
5
34B
100
AcDbEntity
8
dimensions
6
ByLayer
62
256
370
-1
100
AcDbLine
10
324.720412757
20
112.2775829
11
324.344463475
21
112.414191712
0
LINE
5
34C
100
AcDbEntity
8
dimensions
6
ByLayer
62
256
370
-1
100
AcDbLine
10
324.48619652
20
112.151519494
11
324.578822228
21
112.540647337
0
LINE
5
34D
100
AcDbEntity
8
dimensions
6
ByLayer
62
256
370
-1
100
AcDbLine
10
316.839106914
20
114.573142187
11
316.931732622
21
114.96227003
0
LINE
5
34E
100
AcDbEntity
8
dimensions
6
ByLayer
62
256
370
-1
100
AcDbLine
10
317.078392609
20
114.715156263
11
316.692337709
21
114.819853193
0
LINE
5
34F
100
AcDbEntity
8
dimensions
6
ByLayer
62
256
370
-1
100
AcDbLine
10
309.129532008
20
116.732259244
11
309.0369063
21
116.343131401
0
LINE
5
350
100
AcDbEntity
8
dimensions
6
ByLayer
62
256
370
-1
100
AcDbLine
10
309.279902119
20
116.501421209
11
308.886460902
21
116.573558972
0
LINE
5
351
100
AcDbEntity
8
dimensions
6
ByLayer
62
256
370
-1
100
AcDbLine
10
301.079179005
20
117.459740867
11
301.171804713
21
117.84886871
0
LINE
5
352
100
AcDbEntity
8
dimensions
6
ByLayer
62
256
370
-1
100
AcDbLine
10
301.324521999
20
117.634632346
11
300.926421109
21
117.673561901
0
LINE
5
353
100
AcDbEntity
8
dimensions
6
ByLayer
62
256
370
-1
100
AcDbLine
10
292.060318478
20
118.108971898
11
291.637099713
21
118.109275405
0
LINE
5
354
100
AcDbEntity
8
dimensions
6
ByLayer
62
256
370
-1
100
AcDbLine
10
291.860186134
20
117.909318962
11
291.860451424
21
118.309318874
0
LINE
5
355
100
AcDbEntity
8
dimensions
6
ByLayer
62
256
370
-1
100
AcDbLine
10
282.640605031
20
117.471969794
11
282.548495563
21
117.861220158
0
LINE
5
356
100
AcDbEntity
8
dimensions
6
ByLayer
62
256
370
-1
100
AcDbLine
10
282.395494202
20
117.647186551
11
282.793646457
21
117.685588021
0
LINE
5
357
100
AcDbEntity
8
dimensions
6
ByLayer
62
256
370
-1
100
AcDbLine
10
274.68140361
20
116.365916837
11
274.589294143
21
116.755167201
0
LINE
5
358
100
AcDbEntity
8
dimensions
6
ByLayer
62
256
370
-1
100
AcDbLine
10
274.438617971
20
116.524528832
11
274.8321545
21
116.596144638
0
LINE
5
359
100
AcDbEntity
8
dimensions
6
ByLayer
62
256
370
-1
100
AcDbLine
10
266.637764956
20
114.748609765
11
267.02395838
21
114.852794513
0
LINE
5
35A
100
AcDbEntity
8
dimensions
6
ByLayer
62
256
370
-1
100
AcDbLine
10
266.876862058
20
114.606278408
11
266.78475259
21
114.995528772
0
LINE
5
35B
100
AcDbEntity
8
dimensions
6
ByLayer
62
256
370
-1
100
AcDbLine
10
259.226567019
20
112.194801326
11
259.134457551
21
112.58405169
0
LINE
5
35C
100
AcDbEntity
8
dimensions
6
ByLayer
62
256
370
-1
100
AcDbLine
10
258.992518209
20
112.321175299
11
259.368648361
21
112.457285311
0
DIMENSION
5
35D
100
AcDbEntity
8
dimensions
6
ByLayer
62
256
370
-1
100
AcDbDimension
2
*D26
10
256.721177542
20
73.9198817984
30
0
11
250.636503578
21
91.490948008
31
0
70
33
71
5
3
Standard
53
0
210
0
220
0
230
1
100
AcDbAlignedDimension
13
253.311680936
23
111.134883808
33
0
14
261.831806699
24
75.1292251278
34
0
0
LINE
5
35E
100
AcDbEntity
8
dimensions
6
ByLayer
62
256
370
-1
100
AcDbLine
10
263.236801786
20
71.364755164
11
263.467003352
21
70.3916121945
0
LINE
5
35F
100
AcDbEntity
8
dimensions
6
ByLayer
62
256
370
-1
100
AcDbLine
10
263.835998299
20
71.0032889309
11
262.867806839
21
70.7530784276
0
LINE
5
360
100
AcDbEntity
8
dimensions
6
ByLayer
62
256
370
-1
100
AcDbLine
10
319.790276904
20
70.8311815682
11
320.765622116
21
70.6104969117
0
ARC
5
361
100
AcDbEntity
8
0
6
ByLayer
62
256
370
-1
100
AcDbCircle
10
291.796746989
20
22.2568259547
40
94.8525140449
100
AcDbArc
50
66.6024907704
51
113.321509229
0
LINE
5
362
100
AcDbEntity
8
0
6
ByLayer
62
256
370
-1
100
AcDbLine
10
300.36414594
20
123.877030172
11
300.330915872
21
73.7732840913
0
LINE
5
363
100
AcDbEntity
8
0
6
ByLayer
62
256
370
-1
100
AcDbLine
10
297.831026451
20
73.9408421462
11
297.864221936
21
123.992445657
0
LINE
5
364
100
AcDbEntity
8
0
6
ByLayer
62
256
370
-1
100
AcDbLine
10
285.864224576
20
124.000404357
11
285.83102909
21
73.948800847
0
LINE
5
365
100
AcDbEntity
8
0
6
ByLayer
62
256
370
-1
100
AcDbLine
10
283.330919611
20
73.7845589174
11
283.364149679
21
123.888304998
0
LINE
5
366
100
AcDbEntity
8
0
6
ByLayer
62
256
370
-1
100
AcDbLine
10
300.330915872
20
73.7732840913
11
297.831026451
21
73.9408421462
0
LINE
5
367
100
AcDbEntity
8
0
6
ByLayer
62
256
370
-1
100
AcDbLine
10
285.83102909
20
73.948800847
11
283.330919611
21
73.7845589174
0
LINE
5
368
100
AcDbEntity
8
0
6
DOT2
62
256
370
-1
100
AcDbLine
10
321.265104732
20
72.7087277727
11
330.9874599
21
113.553102267
0
LINE
5
369
100
AcDbEntity
8
0
6
DOT2
62
256
370
-1
100
AcDbLine
10
262.408084224
20
72.6939028736
11
252.727168487
21
113.605006466
0
LINE
5
36A
100
AcDbEntity
8
0
6
ByLayer
62
256
370
-1
100
AcDbLine
10
320.778694928
20
72.8245099074
11
329.933572487
21
111.284866581
0
LINE
5
36B
100
AcDbEntity
8
0
6
ByLayer
62
256
370
-1
100
AcDbLine
10
262.881899778
20
72.862909639
11
253.778046272
21
111.335374846
0
ARC
5
36C
100
AcDbEntity
8
0
6
DOT2
62
256
370
-1
100
AcDbCircle
10
291.796746989
20
22.2568259547
40
98.8525140449
100
AcDbArc
50
66.7173378991
51
113.2066621
0
ARC
5
36D
100
AcDbEntity
8
0
6
DOT2
62
256
370
-1
100
AcDbCircle
10
291.796746989
20
22.2568259547
40
99.3525140449
100
AcDbArc
50
66.7676246489
51
113.15637535
0
ARC
5
36E
100
AcDbEntity
8
0
6
ByLayer
62
256
370
-1
100
AcDbCircle
10
291.758513731
20
-35.3906473216
40
114.5
100
AcDbArc
50
75.0230252289
51
104.900974771
0
ARC
5
36F
100
AcDbEntity
8
0
6
ByLayer
62
256
370
-1
100
AcDbCircle
10
291.758513731
20
-35.3906473216
40
110
100
AcDbArc
50
76.0109250478
51
103.913067176
0
DIMENSION
5
370
100
AcDbEntity
8
dimensions
6
ByLayer
62
256
370
-1
100
AcDbDimension
2
*D27
10
264.828152501
20
73.3234531623
30
0
11
266.711623837
21
68.2710475272
31
0
70
36
71
5
3
Standard
53
0
210
0
220
0
230
1
100
AcDbRadialDimension
15
264.831504841
25
71.3234559719
35
0
40
0
0
ARC
5
371
100
AcDbEntity
8
0
6
ByLayer
62
256
370
-1
100
AcDbCircle
10
291.796746989
20
22.2568259547
40
96.8525140449
100
AcDbArc
50
66.8112235816
51
113.112776418
0
DIMENSION
5
372
100
AcDbEntity
8
dimensions
6
ByLayer
62
256
370
-1
100
AcDbDimension
2
*D28
10
329.933572487
20
149.334323212
30
0
11
291.85580938
21
151.209323212
31
0
70
32
71
5
3
Standard
53
0
210
0
220
0
230
1
100
AcDbAlignedDimension
13
253.778046272
23
111.335374846
33
0
14
329.933572487
24
111.284866581
34
0
100
AcDbRotatedDimension
0
DIMENSION
5
373
100
AcDbEntity
8
dimensions
6
ByLayer
62
256
370
-1
100
AcDbDimension
2
*D29
10
297.864221936
20
134.189683211
30
0
11
291.864223256
21
136.064683211
31
0
70
32
71
5
3
Standard
53
0
210
0
220
0
230
1
100
AcDbAlignedDimension
13
285.864224576
23
124.000404357
33
0
14
297.864221936
24
123.992445657
34
0
100
AcDbRotatedDimension
0
DIMENSION
5
374
100
AcDbEntity
8
dimensions
6
ByLayer
62
256
370
-1
100
AcDbDimension
2
*D30
10
291.860982004
20
125.866611211
30
0
11
272.819514138
21
127.741611211
31
0
70
32
71
5
3
Standard
53
0
210
0
220
0
230
1
100
AcDbAlignedDimension
13
253.778046272
23
111.335374846
33
0
14
291.860982004
24
119.109318699
34
0
100
AcDbRotatedDimension
0
DIMENSION
5
375
100
AcDbEntity
8
dimensions
6
ByLayer
62
256
370
-1
100
AcDbDimension
2
*D31
10
342.020185896
20
119.109318698
30
0
11
340.145185896
21
115.19709264
31
0
70
32
71
5
3
Standard
53
0
210
0
220
0
230
1
100
AcDbAlignedDimension
13
329.933572487
23
111.284866581
33
0
14
291.860982004
24
119.109318698
34
0
50
90
100
AcDbRotatedDimension
0
DIMENSION
5
376
100
AcDbEntity
8
dimensions
6
ByLayer
62
256
370
-1
100
AcDbDimension
2
*D32
10
320.27794951
20
58.9103232095
30
0
11
291.81492604
21
60.7853232095
31
0
70
32
71
5
3
Standard
53
0
210
0
220
0
230
1
100
AcDbAlignedDimension
13
263.351902569
23
70.8781836793
33
0
14
320.27794951
24
70.7208392399
34
0
100
AcDbRotatedDimension
0
DIMENSION
5
377
100
AcDbEntity
8
dimensions
6
ByLayer
62
256
370
-1
100
AcDbDimension
2
*D33
10
246.870105894
20
74.6093284807
30
0
11
244.995105894
21
72.6650838603
31
0
70
32
71
5
3
Standard
53
0
210
0
220
0
230
1
100
AcDbAlignedDimension
13
320.27794951
23
70.7208392399
33
0
14
291.831475953
24
74.6093284807
34
0
50
90
100
AcDbRotatedDimension
0
DIMENSION
5
378
100
AcDbEntity
8
dimensions
6
ByLayer
62
256
370
-1
100
AcDbDimension
2
*D34
10
329.308321848
20
78.5069906852
30
0
11
327.079047612
21
77.2387393768
31
0
70
33
71
5
3
Standard
53
0
210
0
220
0
230
1
100
AcDbAlignedDimension
13
321.705689665
23
76.7188873009
33
0
14
322.516164608
24
80.1237559279
34
0
0
DIMENSION
5
379
100
AcDbEntity
8
dimensions
6
ByLayer
62
256
370
-1
100
AcDbDimension
2
*D35
10
338.958715621
20
93.6848443175
30
0
11
335.166382566
21
85.850060657
31
0
70
33
71
5
3
Standard
53
0
210
0
220
0
230
1
100
AcDbAlignedDimension
13
322.516164608
23
80.1237559279
33
0
14
326.452757188
24
96.6616892587
34
0
0
DIMENSION
5
37A
100
AcDbEntity
8
dimensions
6
ByLayer
62
256
370
-1
100
AcDbDimension
2
*D36
10
350.06375197
20
106.493196811
30
0
11
343.94735207
21
88.8948265609
31
0
70
33
71
5
3
Standard
53
0
210
0
220
0
230
1
100
AcDbAlignedDimension
13
321.348846218
23
75.2197600699
33
0
14
329.933572487
24
111.284866581
34
0
0
DIMENSION
5
37B
100
AcDbEntity
8
dimensions
6
ByLayer
62
256
370
-1
100
AcDbDimension
2
*D37
10
339.160784318
20
70.9799108716
30
0
11
336.801299199
21
69.1646334622
31
0
70
33
71
5
3
Standard
53
0
210
0
220
0
230
1
100
AcDbAlignedDimension
13
320.27794951
23
70.7208392399
33
0
14
321.348846218
24
75.2197600699
34
0
0
DIMENSION
5
37C
100
AcDbEntity
8
dimensions
6
ByLayer
62
256
370
-1
100
AcDbDimension
2
*D38
10
324.502437891
20
105.742067472
30
0
11
318.126883643
21
109.187054122
31
0
70
33
71
5
3
Standard
53
0
210
0
220
0
230
1
100
AcDbAlignedDimension
13
309.578805991
23
103.50510003
33
0
14
323.198280498
24
100.263200258
34
0
0
DIMENSION
5
37D
100
AcDbEntity
8
dimensions
6
ByLayer
62
256
370
-1
100
AcDbDimension
2
*D39
10
311.430514247
20
104.806587953
30
0
11
317.215205095
21
105.357021235
31
0
70
33
71
5
3
Standard
53
0
210
0
220
0
230
1
100
AcDbAlignedDimension
13
321.739051087
23
100.610546662
33
0
14
311.038035402
24
103.157753626
34
0
0
DIMENSION
5
37E
100
AcDbEntity
8
dimensions
6
ByLayer
62
256
370
-1
100
AcDbDimension
2
*D40
10
276.068727212
20
103.9891629
30
0
11
280.483917073
21
93.47325954
31
0
70
33
71
5
3
Standard
53
0
210
0
220
0
230
1
100
AcDbAlignedDimension
13
279.30363295
23
81.633282581
33
0
14
274.122475392
24
103.528615562
34
0
0
DIMENSION
5
37F
100
AcDbEntity
8
dimensions
6
ByLayer
62
256
370
-1
100
AcDbDimension
2
*D41
10
334.053309702
20
98.4502876757
30
0
11
331.824035466
21
97.1820363669
31
0
70
33
71
5
3
Standard
53
0
210
0
220
0
230
1
100
AcDbAlignedDimension
13
326.452757188
23
96.6616892587
33
0
14
327.263232131
24
100.066557886
34
0
0
ARC
5
380
100
AcDbEntity
8
bogus2
6
ByLayer
62
256
370
-1
100
AcDbCircle
10
416.904961181
20
21.5203099245
40
95.8525140449
100
AcDbArc
50
109.850092564
51
110.089192355
0
LINE
5
381
100
AcDbEntity
8
dimensions
6
ByLayer
62
256
370
-1
100
AcDbLine
10
390.06536256
20
71.6138112219
11
389.604815221
21
73.5600630424
0
LINE
5
382
100
AcDbEntity
8
dimensions
6
ByLayer
62
256
370
-1
100
AcDbLine
10
444.081715408
20
73.5214647778
11
443.598267512
21
71.5807746605
0
LINE
5
383
100
AcDbEntity
8
dimensions
6
ByLayer
62
256
370
-1
100
AcDbLine
10
442.867171339
20
72.782681831
11
444.812811581
21
72.3195576073
0
ARC
5
384
100
AcDbEntity
8
dimensions
6
ByLayer
62
256
370
-1
100
AcDbCircle
10
416.76545012
20
-36.1271633518
40
112
100
AcDbArc
50
103.401509646
51
104.424651967
0
LINE
5
385
100
AcDbEntity
8
0
6
ByLayer
62
256
370
-1
100
AcDbLine
10
410.341102283
20
77.9420711282
11
408.841039354
21
77.8476856896
0
LINE
5
386
100
AcDbEntity
8
0
6
ByLayer
62
256
370
-1
100
AcDbLine
10
408.841039354
20
77.8476856896
11
408.839210887
21
75.0907521636
0
LINE
5
387
100
AcDbEntity
8
0
6
ByLayer
62
256
370
-1
100
AcDbLine
10
408.839210887
20
75.0907521636
11
410.339275382
21
75.1875000049
0
LINE
5
388
100
AcDbEntity
8
0
6
ByLayer
62
256
370
-1
100
AcDbLine
10
410.339275382
20
75.1875000049
11
410.341102283
21
77.9420711282
0
LINE
5
389
100
AcDbEntity
8
0
6
ByLayer
62
256
370
-1
100
AcDbLine
10
410.341102283
20
77.9420711282
11
408.839210887
21
75.0907521636
0
LINE
5
38A
100
AcDbEntity
8
0
6
ByLayer
62
256
370
-1
100
AcDbLine
10
410.339275382
20
75.1875000049
11
408.841039354
21
77.8476856896
0
LINE
5
38B
100
AcDbEntity
8
0
6
ByLayer
62
256
370
-1
100
AcDbLine
10
424.839207368
20
75.0801405626
11
423.339272523
21
75.1788780791
0
LINE
5
38C
100
AcDbEntity
8
0
6
ByLayer
62
256
370
-1
100
AcDbLine
10
423.339272523
20
75.1788780791
11
423.341099424
21
77.9334492023
0
LINE
5
38D
100
AcDbEntity
8
0
6
ByLayer
62
256
370
-1
100
AcDbLine
10
423.341099424
20
77.9334492023
11
424.841035835
21
77.8370740885
0
LINE
5
38E
100
AcDbEntity
8
0
6
ByLayer
62
256
370
-1
100
AcDbLine
10
424.841035835
20
77.8370740885
11
424.839207368
21
75.0801405626
0
LINE
5
38F
100
AcDbEntity
8
0
6
ByLayer
62
256
370
-1
100
AcDbLine
10
424.839207368
20
75.0801405626
11
423.341099424
21
77.9334492023
0
LINE
5
390
100
AcDbEntity
8
0
6
ByLayer
62
256
370
-1
100
AcDbLine
10
424.841035835
20
77.8370740885
11
423.339272523
21
75.1788780791
0
LINE
5
391
100
AcDbEntity
8
0
6
ByLayer
62
256
370
-1
100
AcDbLine
10
410.343095103
20
80.9468126464
11
408.845028006
21
83.8617086886
0
LINE
5
392
100
AcDbEntity
8
0
6
ByLayer
62
256
370
-1
100
AcDbLine
10
408.845028006
20
83.8617086886
11
408.8430338
21
80.8548772341
0
LINE
5
393
100
AcDbEntity
8
0
6
ByLayer
62
256
370
-1
100
AcDbLine
10
408.8430338
20
80.8548772341
11
410.345087766
21
83.9513170152
0
LINE
5
394
100
AcDbEntity
8
0
6
ByLayer
62
256
370
-1
100
AcDbLine
10
410.345087766
20
83.9513170152
11
410.343095103
21
80.9468126464
0
LINE
5
395
100
AcDbEntity
8
0
6
ByLayer
62
256
370
-1
100
AcDbLine
10
410.343095103
20
80.9468126464
11
408.8430338
21
80.8548772341
0
LINE
5
396
100
AcDbEntity
8
0
6
ByLayer
62
256
370
-1
100
AcDbLine
10
410.345087766
20
83.9513170152
11
408.845028006
21
83.8617086886
0
LINE
5
397
100
AcDbEntity
8
0
6
ByLayer
62
256
370
-1
100
AcDbLine
10
424.843030281
20
80.844265633
11
423.343092244
21
80.9381907205
0
LINE
5
398
100
AcDbEntity
8
0
6
ByLayer
62
256
370
-1
100
AcDbLine
10
423.343092244
20
80.9381907205
11
423.345084907
21
83.9426950893
0
LINE
5
399
100
AcDbEntity
8
0
6
ByLayer
62
256
370
-1
100
AcDbLine
10
423.345084907
20
83.9426950893
11
424.845024487
21
83.8510970875
0
LINE
5
39A
100
AcDbEntity
8
0
6
ByLayer
62
256
370
-1
100
AcDbLine
10
424.845024487
20
83.8510970875
11
424.843030281
21
80.844265633
0
LINE
5
39B
100
AcDbEntity
8
0
6
ByLayer
62
256
370
-1
100
AcDbLine
10
424.843030281
20
80.844265633
11
423.345084907
21
83.9426950893
0
LINE
5
39C
100
AcDbEntity
8
0
6
ByLayer
62
256
370
-1
100
AcDbLine
10
424.845024487
20
83.8510970875
11
423.343092244
21
80.9381907205
0
LINE
5
39D
100
AcDbEntity
8
0
6
ByLayer
62
256
370
-1
100
AcDbLine
10
410.348076491
20
88.4576664458
11
408.848018906
21
88.3713377755
0
LINE
5
39E
100
AcDbEntity
8
0
6
ByLayer
62
256
370
-1
100
AcDbLine
10
408.848018906
20
88.3713377755
11
408.850012588
21
91.3773791111
0
LINE
5
39F
100
AcDbEntity
8
0
6
ByLayer
62
256
370
-1
100
AcDbLine
10
408.850012588
20
91.3773791111
11
410.350068809
21
91.4616503531
0
LINE
5
3A0
100
AcDbEntity
8
0
6
ByLayer
62
256
370
-1
100
AcDbLine
10
410.350068809
20
91.4616503531
11
410.348076491
21
88.4576664458
0
LINE
5
3A1
100
AcDbEntity
8
0
6
ByLayer
62
256
370
-1
100
AcDbLine
10
410.348076491
20
88.4576664458
11
408.850012588
21
91.3773791111
0
LINE
5
3A2
100
AcDbEntity
8
0
6
ByLayer
62
256
370
-1
100
AcDbLine
10
410.350068809
20
91.4616503531
11
408.848018906
21
88.3713377755
0
LINE
5
3A3
100
AcDbEntity
8
0
6
ByLayer
62
256
370
-1
100
AcDbLine
10
424.848015387
20
88.3607261745
11
423.348073632
21
88.4490445199
0
LINE
5
3A4
100
AcDbEntity
8
0
6
ByLayer
62
256
370
-1
100
AcDbLine
10
423.348073632
20
88.4490445199
11
423.35006595
21
91.4530284272
0
LINE
5
3A5
100
AcDbEntity
8
0
6
ByLayer
62
256
370
-1
100
AcDbLine
10
423.35006595
20
91.4530284272
11
424.850009069
21
91.36676751
0
LINE
5
3A6
100
AcDbEntity
8
0
6
ByLayer
62
256
370
-1
100
AcDbLine
10
424.850009069
20
91.36676751
11
424.848015387
21
88.3607261745
0
LINE
5
3A7
100
AcDbEntity
8
0
6
ByLayer
62
256
370
-1
100
AcDbLine
10
424.848015387
20
88.3607261745
11
423.35006595
21
91.4530284272
0
LINE
5
3A8
100
AcDbEntity
8
0
6
ByLayer
62
256
370
-1
100
AcDbLine
10
423.348073632
20
88.4490445199
11
424.850009069
21
91.36676751
0
LINE
5
3A9
100
AcDbEntity
8
0
6
ByLayer
62
256
370
-1
100
AcDbLine
10
408.371086068
20
123.151788968
11
410.871160965
21
123.263888327
0
LINE
5
3AA
100
AcDbEntity
8
0
6
ByLayer
62
256
370
-1
100
AcDbLine
10
422.871158326
20
123.255929626
11
425.371082329
21
123.140514142
0
ARC
5
3AB
100
AcDbEntity
8
0
6
ByLayer
62
256
370
-1
100
AcDbCircle
10
389.835088891
20
72.5869371321
40
2
100
AcDbArc
50
194.581000775
51
286.977227939
0
ARC
5
3AC
100
AcDbEntity
8
0
6
ByLayer
62
256
370
-1
100
AcDbCircle
10
443.83999146
20
72.5511197191
40
2
100
AcDbArc
50
256.011688457
51
346.610942741
0
ARC
5
3AD
100
AcDbEntity
8
0
6
DOT2
62
256
370
-1
100
AcDbCircle
10
389.835088891
20
72.5869371321
40
2.5
100
AcDbArc
50
194.581000775
51
286.977227939
0
ARC
5
3AE
100
AcDbEntity
8
0
6
DOT2
62
256
370
-1
100
AcDbCircle
10
416.76545012
20
-36.1271633518
40
109.5
100
AcDbArc
50
76.0109250478
51
103.843135504
0
ARC
5
3AF
100
AcDbEntity
8
0
6
DOT2
62
256
370
-1
100
AcDbCircle
10
443.83999146
20
72.5511197191
40
2.5
100
AcDbArc
50
256.011688457
51
346.610942741
0
LINE
5
3B0
100
AcDbEntity
8
0
6
ByLayer
62
256
370
-1
100
AcDbLine
10
390.686806596
20
77.6729351808
11
385.505649037
21
99.5682681618
0
LINE
5
3B1
100
AcDbEntity
8
0
6
ByLayer
62
256
370
-1
100
AcDbLine
10
399.129411781
20
102.792099532
11
404.31056934
21
80.8967665508
0
LINE
5
3B2
100
AcDbEntity
8
0
6
ByLayer
62
256
370
-1
100
AcDbLine
10
429.375546317
20
80.8801428264
11
434.58574238
21
102.768584
0
LINE
5
3B3
100
AcDbEntity
8
0
6
ByLayer
62
256
370
-1
100
AcDbLine
10
442.995020825
20
77.6382430543
11
448.205216888
21
99.5266842274
0
LINE
5
3B4
100
AcDbEntity
8
0
6
ByLayer
62
256
370
-1
100
AcDbLine
10
404.31056934
20
80.8967665508
11
390.686806596
21
77.6729351808
0
LINE
5
3B5
100
AcDbEntity
8
0
6
ByLayer
62
256
370
-1
100
AcDbLine
10
385.505649037
20
99.5682681618
11
399.129411781
21
102.792099532
0
LINE
5
3B6
100
AcDbEntity
8
0
6
ByLayer
62
256
370
-1
100
AcDbLine
10
442.995020825
20
77.6382430543
11
429.375546317
21
80.8801428264
0
LINE
5
3B7
100
AcDbEntity
8
0
6
ByLayer
62
256
370
-1
100
AcDbLine
10
448.205216888
20
99.5266842274
11
434.58574238
21
102.768584
0
LINE
5
3B8
100
AcDbEntity
8
0
6
DOT2
62
256
370
-1
100
AcDbLine
10
406.429526412
20
80.6274694566
11
386.967008207
21
76.021996071
0
LINE
5
3B9
100
AcDbEntity
8
0
6
DOT2
62
256
370
-1
100
AcDbLine
10
406.429526412
20
80.6274694566
11
405.62356857
21
84.0334101426
0
LINE
5
3BA
100
AcDbEntity
8
0
6
DOT2
62
256
370
-1
100
AcDbLine
10
405.62356857
20
84.0334101426
11
386.161050364
21
79.4279367569
0
LINE
5
3BB
100
AcDbEntity
8
0
6
DOT2
62
256
370
-1
100
AcDbLine
10
382.246397987
20
95.9710772315
11
401.708916192
21
100.576550617
0
LINE
5
3BC
100
AcDbEntity
8
0
6
DOT2
62
256
370
-1
100
AcDbLine
10
401.708916192
20
100.576550617
11
400.902958349
21
103.982491303
0
LINE
5
3BD
100
AcDbEntity
8
0
6
DOT2
62
256
370
-1
100
AcDbLine
10
400.902958349
20
103.982491303
11
381.440440144
21
99.3770179174
0
LINE
5
3BE
100
AcDbEntity
8
0
6
DOT2
62
256
370
-1
100
AcDbLine
10
446.712626054
20
75.9823712707
11
427.2562339
21
80.6136566595
0
LINE
5
3BF
100
AcDbEntity
8
0
6
DOT2
62
256
370
-1
100
AcDbLine
10
427.2562339
20
80.6136566595
11
428.066708843
21
84.0185252865
0
LINE
5
3C0
100
AcDbEntity
8
0
6
DOT2
62
256
370
-1
100
AcDbLine
10
428.066708843
20
84.0185252865
11
447.523100997
21
79.3872398977
0
LINE
5
3C1
100
AcDbEntity
8
0
6
DOT2
62
256
370
-1
100
AcDbLine
10
451.459693577
20
95.9251732285
11
432.003301423
21
100.556458617
0
LINE
5
3C2
100
AcDbEntity
8
0
6
DOT2
62
256
370
-1
100
AcDbLine
10
432.003301423
20
100.556458617
11
432.813776366
21
103.961327244
0
LINE
5
3C3
100
AcDbEntity
8
0
6
DOT2
62
256
370
-1
100
AcDbLine
10
432.813776366
20
103.961327244
11
452.27016852
21
99.3300418555
0
LINE
5
3C4
100
AcDbEntity
8
0
6
DASHED2
62
256
370
-1
100
AcDbLine
10
392.146495461
20
78.0183456847
11
386.965337902
21
99.9136786658
0
LINE
5
3C5
100
AcDbEntity
8
0
6
DASHED2
62
256
370
-1
100
AcDbLine
10
397.669722915
20
102.446689028
11
402.850880474
21
80.5513560469
0
LINE
5
3C6
100
AcDbEntity
8
0
6
DASHED2
62
256
370
-1
100
AcDbLine
10
430.834775729
20
80.5327964223
11
436.044971791
21
102.421237595
0
LINE
5
3C7
100
AcDbEntity
8
0
6
DASHED2
62
256
370
-1
100
AcDbLine
10
441.535791414
20
77.9855894584
11
446.745987476
21
99.8740306316
0
CIRCLE
5
3C8
100
AcDbEntity
8
0
6
ByLayer
62
256
370
-1
100
AcDbCircle
10
449.539445763
20
111.609567385
40
0.75
0
CIRCLE
5
3C9
100
AcDbEntity
8
0
6
ByLayer
62
256
370
-1
100
AcDbCircle
10
441.892356157
20
114.031190079
40
0.75
0
CIRCLE
5
3CA
100
AcDbEntity
8
0
6
ByLayer
62
256
370
-1
100
AcDbCircle
10
434.090155543
20
115.801179293
40
0.75
0
CIRCLE
5
3CB
100
AcDbEntity
8
0
6
ByLayer
62
256
370
-1
100
AcDbCircle
10
426.132428249
20
116.917788758
40
0.75
0
CIRCLE
5
3CC
100
AcDbEntity
8
0
6
ByLayer
62
256
370
-1
100
AcDbCircle
10
416.867255168
20
117.372802888
40
0.75
0
CIRCLE
5
3CD
100
AcDbEntity
8
0
6
ByLayer
62
256
370
-1
100
AcDbCircle
10
407.601486686
20
116.930078946
40
0.75
0
CIRCLE
5
3CE
100
AcDbEntity
8
0
6
ByLayer
62
256
370
-1
100
AcDbCircle
10
399.642285266
20
115.824025989
40
0.75
0
CIRCLE
5
3CF
100
AcDbEntity
8
0
6
ByLayer
62
256
370
-1
100
AcDbCircle
10
391.837743713
20
114.06438756
40
0.75
0
CIRCLE
5
3D0
100
AcDbEntity
8
0
6
ByLayer
62
256
370
-1
100
AcDbCircle
10
384.187448674
20
111.652910478
40
0.75
0
CIRCLE
5
3D1
100
AcDbEntity
8
0
6
ByLayer
62
256
370
-1
100
AcDbCircle
10
449.539445763
20
111.609567385
40
0.5
0
CIRCLE
5
3D2
100
AcDbEntity
8
0
6
ByLayer
62
256
370
-1
100
AcDbCircle
10
441.892356157
20
114.031190079
40
0.5
0
CIRCLE
5
3D3
100
AcDbEntity
8
0
6
ByLayer
62
256
370
-1
100
AcDbCircle
10
434.090155543
20
115.801179293
40
0.5
0
CIRCLE
5
3D4
100
AcDbEntity
8
0
6
ByLayer
62
256
370
-1
100
AcDbCircle
10
426.132428249
20
116.917788758
40
0.5
0
CIRCLE
5
3D5
100
AcDbEntity
8
0
6
ByLayer
62
256
370
-1
100
AcDbCircle
10
416.867255168
20
117.372802888
40
0.5
0
CIRCLE
5
3D6
100
AcDbEntity
8
0
6
ByLayer
62
256
370
-1
100
AcDbCircle
10
407.601486686
20
116.930078946
40
0.5
0
CIRCLE
5
3D7
100
AcDbEntity
8
0
6
ByLayer
62
256
370
-1
100
AcDbCircle
10
399.642285266
20
115.824025989
40
0.5
0
CIRCLE
5
3D8
100
AcDbEntity
8
0
6
ByLayer
62
256
370
-1
100
AcDbCircle
10
391.837743713
20
114.06438756
40
0.5
0
CIRCLE
5
3D9
100
AcDbEntity
8
0
6
ByLayer
62
256
370
-1
100
AcDbCircle
10
384.187448674
20
111.652910478
40
0.5
0
LINE
5
3DA
100
AcDbEntity
8
dimensions
6
ByLayer
62
256
370
-1
100
AcDbLine
10
449.727349147
20
111.54106687
11
449.351399864
21
111.677675682
0
LINE
5
3DB
100
AcDbEntity
8
dimensions
6
ByLayer
62
256
370
-1
100
AcDbLine
10
449.493132909
20
111.415003464
11
449.585758617
21
111.804131307
0
LINE
5
3DC
100
AcDbEntity
8
dimensions
6
ByLayer
62
256
370
-1
100
AcDbLine
10
441.846043304
20
113.836626157
11
441.938669011
21
114.225754
0
LINE
5
3DD
100
AcDbEntity
8
dimensions
6
ByLayer
62
256
370
-1
100
AcDbLine
10
442.085328998
20
113.978640233
11
441.699274098
21
114.083337162
0
LINE
5
3DE
100
AcDbEntity
8
dimensions
6
ByLayer
62
256
370
-1
100
AcDbLine
10
434.136468397
20
115.995743214
11
434.043842689
21
115.606615371
0
LINE
5
3DF
100
AcDbEntity
8
dimensions
6
ByLayer
62
256
370
-1
100
AcDbLine
10
434.286838508
20
115.764905179
11
433.893397291
21
115.837042942
0
LINE
5
3E0
100
AcDbEntity
8
dimensions
6
ByLayer
62
256
370
-1
100
AcDbLine
10
426.086115395
20
116.723224837
11
426.178741102
21
117.11235268
0
LINE
5
3E1
100
AcDbEntity
8
dimensions
6
ByLayer
62
256
370
-1
100
AcDbLine
10
426.331458388
20
116.898116316
11
425.933357498
21
116.937045871
0
LINE
5
3E2
100
AcDbEntity
8
dimensions
6
ByLayer
62
256
370
-1
100
AcDbLine
10
417.067254867
20
117.372455867
11
416.644036103
21
117.372759375
0
LINE
5
3E3
100
AcDbEntity
8
dimensions
6
ByLayer
62
256
370
-1
100
AcDbLine
10
416.867122523
20
117.172802932
11
416.867387813
21
117.572802844
0
LINE
5
3E4
100
AcDbEntity
8
dimensions
6
ByLayer
62
256
370
-1
100
AcDbLine
10
407.64754142
20
116.735453764
11
407.555431952
21
117.124704128
0
LINE
5
3E5
100
AcDbEntity
8
dimensions
6
ByLayer
62
256
370
-1
100
AcDbLine
10
407.402430591
20
116.910670521
11
407.800582846
21
116.949071991
0
LINE
5
3E6
100
AcDbEntity
8
dimensions
6
ByLayer
62
256
370
-1
100
AcDbLine
10
399.68834
20
115.629400807
11
399.596230532
21
116.018651171
0
LINE
5
3E7
100
AcDbEntity
8
dimensions
6
ByLayer
62
256
370
-1
100
AcDbLine
10
399.445554361
20
115.788012802
11
399.839090889
21
115.859628608
0
LINE
5
3E8
100
AcDbEntity
8
dimensions
6
ByLayer
62
256
370
-1
100
AcDbLine
10
391.644701345
20
114.012093735
11
392.03089477
21
114.116278483
0
LINE
5
3E9
100
AcDbEntity
8
dimensions
6
ByLayer
62
256
370
-1
100
AcDbLine
10
391.883798447
20
113.869762378
11
391.79168898
21
114.259012742
0
LINE
5
3EA
100
AcDbEntity
8
dimensions
6
ByLayer
62
256
370
-1
100
AcDbLine
10
384.233503408
20
111.458285296
11
384.14139394
21
111.84753566
0
LINE
5
3EB
100
AcDbEntity
8
dimensions
6
ByLayer
62
256
370
-1
100
AcDbLine
10
383.999454598
20
111.584659269
11
384.37558475
21
111.720769281
0
LINE
5
3EC
100
AcDbEntity
8
dimensions
6
ByLayer
62
256
370
-1
100
AcDbLine
10
388.243738176
20
70.6282391338
11
388.473939741
21
69.6550961643
0
LINE
5
3ED
100
AcDbEntity
8
dimensions
6
ByLayer
62
256
370
-1
100
AcDbLine
10
388.842934689
20
70.2667729007
11
387.874743228
21
70.0165623974
0
LINE
5
3EE
100
AcDbEntity
8
dimensions
6
ByLayer
62
256
370
-1
100
AcDbLine
10
444.797213293
20
70.094665538
11
445.772558505
21
69.8739808815
0
LINE
5
3EF
100
AcDbEntity
8
dimensions
6
ByLayer
62
256
370
-1
100
AcDbLine
10
445.400668034
20
70.4707330136
11
445.169103764
21
69.4979134059
0
ARC
5
3F0
100
AcDbEntity
8
0
6
ByLayer
62
256
370
-1
100
AcDbCircle
10
416.803683378
20
21.5203099245
40
94.8525140449
100
AcDbArc
50
66.6024907704
51
113.321509229
0
LINE
5
3F1
100
AcDbEntity
8
0
6
ByLayer
62
256
370
-1
100
AcDbLine
10
425.371082329
20
123.140514142
11
425.337852261
21
73.0367680611
0
LINE
5
3F2
100
AcDbEntity
8
0
6
ByLayer
62
256
370
-1
100
AcDbLine
10
422.83796284
20
73.204326116
11
422.871158326
21
123.255929626
0
LINE
5
3F3
100
AcDbEntity
8
0
6
ByLayer
62
256
370
-1
100
AcDbLine
10
410.871160965
20
123.263888327
11
410.837965479
21
73.2122848168
0
LINE
5
3F4
100
AcDbEntity
8
0
6
ByLayer
62
256
370
-1
100
AcDbLine
10
408.337856
20
73.0480428873
11
408.371086068
21
123.151788968
0
LINE
5
3F5
100
AcDbEntity
8
0
6
ByLayer
62
256
370
-1
100
AcDbLine
10
425.337852261
20
73.0367680611
11
422.83796284
21
73.204326116
0
LINE
5
3F6
100
AcDbEntity
8
0
6
ByLayer
62
256
370
-1
100
AcDbLine
10
410.837965479
20
73.2122848168
11
408.337856
21
73.0480428873
0
LINE
5
3F7
100
AcDbEntity
8
0
6
DOT2
62
256
370
-1
100
AcDbLine
10
446.272041121
20
71.9722117425
11
455.994396289
21
112.816586237
0
LINE
5
3F8
100
AcDbEntity
8
0
6
DOT2
62
256
370
-1
100
AcDbLine
10
387.415020613
20
71.9573868434
11
377.734104877
21
112.868490436
0
LINE
5
3F9
100
AcDbEntity
8
0
6
ByLayer
62
256
370
-1
100
AcDbLine
10
445.785631317
20
72.0879938772
11
454.940508876
21
110.548350551
0
LINE
5
3FA
100
AcDbEntity
8
0
6
ByLayer
62
256
370
-1
100
AcDbLine
10
387.888836167
20
72.1263936088
11
378.784982661
21
110.598858816
0
ARC
5
3FB
100
AcDbEntity
8
0
6
DOT2
62
256
370
-1
100
AcDbCircle
10
416.803683378
20
21.5203099245
40
98.8525140449
100
AcDbArc
50
66.7173378991
51
113.2066621
0
ARC
5
3FC
100
AcDbEntity
8
0
6
DOT2
62
256
370
-1
100
AcDbCircle
10
416.803683378
20
21.5203099245
40
99.3525140449
100
AcDbArc
50
66.7676246489
51
113.15637535
0
ARC
5
3FD
100
AcDbEntity
8
0
6
ByLayer
62
256
370
-1
100
AcDbCircle
10
416.76545012
20
-36.1271633518
40
114.5
100
AcDbArc
50
75.0230252289
51
104.900974771
0
ARC
5
3FE
100
AcDbEntity
8
0
6
ByLayer
62
256
370
-1
100
AcDbCircle
10
416.76545012
20
-36.1271633518
40
110
100
AcDbArc
50
76.0109250478
51
103.913067176
0
ARC
5
3FF
100
AcDbEntity
8
0
6
ByLayer
62
256
370
-1
100
AcDbCircle
10
416.803683378
20
21.5203099245
40
96.8525140449
100
AcDbArc
50
66.8112235816
51
113.112776418
0
DIMENSION
5
400
100
AcDbEntity
8
dimensions
6
ByLayer
62
256
370
-1
100
AcDbDimension
2
*D42
10
415.120447596
20
75.1875000049
30
0
11
413.245447596
21
76.703488774
31
0
70
32
71
5
3
Standard
53
0
210
0
220
0
230
1
100
AcDbAlignedDimension
13
410.841286376
23
78.219477543
33
0
14
410.339275382
24
75.1875000049
34
0
50
90
100
AcDbRotatedDimension
0
DIMENSION
5
401
100
AcDbEntity
8
dimensions
6
ByLayer
62
256
370
-1
100
AcDbDimension
2
*D43
10
421.160245357
20
80.9381907205
30
0
11
419.285245357
21
79.5748547814
31
0
70
32
71
5
3
Standard
53
0
210
0
220
0
230
1
100
AcDbAlignedDimension
13
422.841283737
23
78.2115188422
33
0
14
423.343092244
24
80.9381907205
34
0
50
90
100
AcDbRotatedDimension
0
DIMENSION
5
402
100
AcDbEntity
8
dimensions
6
ByLayer
62
256
370
-1
100
AcDbDimension
2
*D44
10
428.736836102
20
88.3607261745
30
0
11
426.861836102
21
86.105911631
31
0
70
32
71
5
3
Standard
53
0
210
0
220
0
230
1
100
AcDbAlignedDimension
13
424.845024487
23
83.8510970875
33
0
14
424.848015387
24
88.3607261745
34
0
50
90
100
AcDbRotatedDimension
0
DIMENSION
5
403
100
AcDbEntity
8
dimensions
6
ByLayer
62
256
370
-1
100
AcDbDimension
2
*D45
10
472.4777859
20
123.140514142
30
0
11
470.6027859
21
98.0886411016
31
0
70
32
71
5
3
Standard
53
0
210
0
220
0
230
1
100
AcDbAlignedDimension
13
425.337852261
23
73.0367680611
33
0
14
425.371082329
24
123.140514142
34
0
50
90
100
AcDbRotatedDimension
0
MTEXT
5
404
100
AcDbEntity
8
text
6
ByLayer
62
256
370
-1
100
AcDbMText
10
264.974425895
20
98.4070272104
30
0
40
1.5
41
9
71
1
72
1
1
attach \Ppockets\Pat these \Prectangle\Poutside
7
standard
210
0
220
0
230
1
50
0
73
2
44
1
0
DIMENSION
5
405
100
AcDbEntity
8
dimensions
6
ByLayer
62
256
370
-1
100
AcDbDimension
2
*D46
10
87.4086400022
20
134.5
30
0
11
85.5336400022
21
121
31
0
70
32
71
5
3
Standard
53
0
210
0
220
0
230
1
100
AcDbAlignedDimension
13
110.25
23
107.5
33
0
14
126.25
24
134.5
34
0
50
90
100
AcDbRotatedDimension
0
ARC
5
406
100
AcDbEntity
8
0
6
ByLayer
62
256
370
-1
100
AcDbCircle
10
110.625
20
111.6875
40
2.3811076429
100
AcDbArc
50
183.731396999
51
229.398705355
0
ARC
5
407
100
AcDbEntity
8
0
6
ByLayer
62
256
370
-1
100
AcDbCircle
10
106.5
20
106.25
40
4.45284707521
100
AcDbArc
50
18.4349488229
51
55.3048464688
0
ARC
5
408
100
AcDbEntity
8
0
6
ByLayer
62
256
370
-1
100
AcDbCircle
10
146
20
106.25
40
4.45284707521
100
AcDbArc
50
124.695153531
51
161.565051177
0
ARC
5
409
100
AcDbEntity
8
0
6
ByLayer
62
256
370
-1
100
AcDbCircle
10
141.875
20
111.6875
40
2.3811076429
100
AcDbArc
50
310.601294645
51
356.268603001
0
LINE
5
40A
100
AcDbEntity
8
0
6
ByLayer
62
256
370
-1
100
AcDbLine
10
110.75
20
70.5
11
110.75
21
107.5
0
LINE
5
40B
100
AcDbEntity
8
0
6
ByLayer
62
256
370
-1
100
AcDbLine
10
141.75
20
70.5
11
141.75
21
107.5
0
LINE
5
40C
100
AcDbEntity
8
0
6
ByLayer
62
256
370
-1
100
AcDbLine
10
108.25
20
111.5
11
108.25
21
125.230406792
0
LINE
5
40D
100
AcDbEntity
8
0
6
ByLayer
62
256
370
-1
100
AcDbLine
10
144.25
20
111.5
11
144.25
21
125.267167451
0
ARC
5
40E
100
AcDbEntity
8
0
6
ByLayer
62
256
370
-1
100
AcDbCircle
10
126.263157895
20
112.363157895
40
22.1368460157
100
AcDbArc
50
90.0340559753
51
144.460832017
0
ARC
5
40F
100
AcDbEntity
8
0
6
ByLayer
62
256
370
-1
100
AcDbCircle
10
126.236842105
20
112.363157895
40
22.1368460157
100
AcDbArc
50
35.5391679834
51
89.9659440248
0
LINE
5
410
100
AcDbEntity
8
0
6
DOT2
62
256
370
-1
100
AcDbLine
10
110.25
20
70.5
11
110.25
21
107.5
0
LINE
5
411
100
AcDbEntity
8
0
6
DOT2
62
256
370
-1
100
AcDbLine
10
142.25
20
70.5
11
142.25
21
107.5
0
ARC
5
412
100
AcDbEntity
8
0
6
DOT2
62
256
370
-1
100
AcDbCircle
10
106.5
20
106.25
40
3.95284707521
100
AcDbArc
50
18.4349488229
51
55.3048464688
0
ARC
5
413
100
AcDbEntity
8
0
6
DOT2
62
256
370
-1
100
AcDbCircle
10
146
20
106.25
40
3.95284707521
100
AcDbArc
50
124.695153531
51
161.565051177
0
ARC
5
414
100
AcDbEntity
8
0
6
DOT2
62
256
370
-1
100
AcDbCircle
10
110.625
20
111.6875
40
2.8811076429
100
AcDbArc
50
183.731396999
51
229.398705355
0
ARC
5
415
100
AcDbEntity
8
0
6
DOT2
62
256
370
-1
100
AcDbCircle
10
141.875
20
111.6875
40
2.8811076429
100
AcDbArc
50
310.601294645
51
356.268603001
0
LINE
5
416
100
AcDbEntity
8
0
6
DOT2
62
256
370
-1
100
AcDbLine
10
144.75
20
111.5
11
144.75
21
125.426980709
0
LINE
5
417
100
AcDbEntity
8
0
6
DOT2
62
256
370
-1
100
AcDbLine
10
107.75
20
111.5
11
107.75
21
125.389660967
0
ARC
5
418
100
AcDbEntity
8
0
6
DOT2
62
256
370
-1
100
AcDbCircle
10
126.263157895
20
112.363157895
40
22.6368460157
100
AcDbArc
50
90.0340559753
51
144.868445504
0
ARC
5
419
100
AcDbEntity
8
0
6
DOT2
62
256
370
-1
100
AcDbCircle
10
126.236842105
20
112.363157895
40
22.6368460157
100
AcDbArc
50
35.1315544959
51
89.9659440248
0
LINE
5
41A
100
AcDbEntity
8
0
6
ByLayer
62
256
370
-1
100
AcDbLine
10
117.75
20
107.5
11
117.75
21
134.5
0
LINE
5
41B
100
AcDbEntity
8
0
6
ByLayer
62
256
370
-1
100
AcDbLine
10
117.75
20
134.5
11
120.25
21
134.5
0
LINE
5
41C
100
AcDbEntity
8
0
6
ByLayer
62
256
370
-1
100
AcDbLine
10
120.25
20
134.5
11
120.25
21
107.5
0
LINE
5
41D
100
AcDbEntity
8
0
6
ByLayer
62
256
370
-1
100
AcDbLine
10
132.25
20
107.5
11
132.25
21
134.5
0
LINE
5
41E
100
AcDbEntity
8
0
6
ByLayer
62
256
370
-1
100
AcDbLine
10
132.25
20
134.5
11
134.75
21
134.5
0
LINE
5
41F
100
AcDbEntity
8
0
6
ByLayer
62
256
370
-1
100
AcDbLine
10
134.75
20
134.5
11
134.75
21
107.5
0
DIMENSION
5
420
100
AcDbEntity
8
dimensions
6
ByLayer
62
256
370
-1
100
AcDbDimension
2
*D47
10
108.25
20
141.516800004
30
0
11
117.25
21
143.391800004
31
0
70
32
71
5
3
Standard
53
0
210
0
220
0
230
1
100
AcDbAlignedDimension
13
126.25
23
134.5
33
0
14
108.25
24
125.230406792
34
0
100
AcDbRotatedDimension
0
DIMENSION
5
421
100
AcDbEntity
8
dimensions
6
ByLayer
62
256
370
-1
100
AcDbDimension
2
*D48
10
82.048000002
20
134.999999912
30
0
11
80.173000002
21
121.249999956
31
0
70
32
71
5
3
Standard
53
0
210
0
220
0
230
1
100
AcDbAlignedDimension
13
110.75
23
107.5
33
0
14
126.250297194
24
134.999999912
34
0
50
90
100
AcDbRotatedDimension
0
DIMENSION
5
422
100
AcDbEntity
8
dimensions
6
ByLayer
62
256
370
-1
100
AcDbDimension
2
*D49
10
126.236842105
20
112.363157895
30
0
11
133.224461589
21
121.149441912
31
0
70
36
71
5
3
Standard
53
0
210
0
220
0
230
1
100
AcDbRadialDimension
15
142.715992372
25
127.144144262
35
0
40
0
0
LINE
5
423
100
AcDbEntity
8
dimensions
6
ByLayer
62
256
370
-1
100
AcDbLine
10
126.250578976
20
111.374377302
11
126.250578976
21
113.374377302
0
LINE
5
424
100
AcDbEntity
8
dimensions
6
ByLayer
62
256
370
-1
100
AcDbLine
10
125.2506127
20
112.382589899
11
127.250545252
21
112.366164706
0
DIMENSION
5
425
100
AcDbEntity
8
dimensions
6
ByLayer
62
256
370
-1
100
AcDbDimension
2
*D50
10
124.256256003
20
112.374377302
30
0
11
122.381256003
21
109.937188651
31
0
70
32
71
5
3
Standard
53
0
210
0
220
0
230
1
100
AcDbAlignedDimension
13
126.25
23
107.5
33
0
14
126.250578976
24
112.374377302
34
0
50
90
100
AcDbRotatedDimension
0
DIMENSION
5
426
100
AcDbEntity
8
dimensions
6
ByLayer
62
256
370
-1
100
AcDbDimension
2
*D51
10
93.4490931223
20
125.230406792
30
0
11
91.5740931223
21
118.38147318
31
0
70
32
71
5
3
Standard
53
0
210
0
220
0
230
1
100
AcDbAlignedDimension
13
108.248940053
23
111.532539569
33
0
14
108.25
24
125.230406792
34
0
50
90
100
AcDbRotatedDimension
0
DIMENSION
5
427
100
AcDbEntity
8
dimensions
6
ByLayer
62
256
370
-1
100
AcDbDimension
2
*D52
10
150.942515204
20
134.5
30
0
11
149.067515204
21
129.883583725
31
0
70
32
71
5
3
Standard
53
0
210
0
220
0
230
1
100
AcDbAlignedDimension
13
144.25
23
125.267167451
33
0
14
126.25
24
134.5
34
0
50
90
100
AcDbRotatedDimension
0
LINE
5
428
100
AcDbEntity
8
0
6
CONTINUOUS
62
256
370
-1
100
AcDbLine
10
8.17600000021
20
108.032000003
11
40.1760000002
21
108.032000003
0
ARC
5
429
100
AcDbEntity
8
0
6
ByLayer
62
256
370
-1
100
AcDbCircle
10
8.55100000021
20
112.219500003
40
2.3811076429
100
AcDbArc
50
183.731396999
51
229.398705355
0
ARC
5
42A
100
AcDbEntity
8
0
6
ByLayer
62
256
370
-1
100
AcDbCircle
10
4.42600000021
20
106.782000003
40
4.45284707521
100
AcDbArc
50
18.4349488229
51
55.3048464688
0
ARC
5
42B
100
AcDbEntity
8
0
6
ByLayer
62
256
370
-1
100
AcDbCircle
10
43.9260000002
20
106.782000003
40
4.45284707521
100
AcDbArc
50
124.695153531
51
161.565051177
0
ARC
5
42C
100
AcDbEntity
8
0
6
ByLayer
62
256
370
-1
100
AcDbCircle
10
39.8010000002
20
112.219500003
40
2.3811076429
100
AcDbArc
50
310.601294645
51
356.268603001
0
LINE
5
42D
100
AcDbEntity
8
0
6
ByLayer
62
256
370
-1
100
AcDbLine
10
6.17600000021
20
112.032000003
11
6.17600000021
21
125.762406795
0
LINE
5
42E
100
AcDbEntity
8
0
6
ByLayer
62
256
370
-1
100
AcDbLine
10
42.1760000002
20
112.032000003
11
42.1760000002
21
125.799167453
0
ARC
5
42F
100
AcDbEntity
8
0
6
ByLayer
62
256
370
-1
100
AcDbCircle
10
24.1891578952
20
112.895157898
40
22.1368460157
100
AcDbArc
50
90.0340559753
51
144.460832017
0
ARC
5
430
100
AcDbEntity
8
0
6
ByLayer
62
256
370
-1
100
AcDbCircle
10
24.1628421052
20
112.895157898
40
22.1368460157
100
AcDbArc
50
35.5391679834
51
89.9659440248
0
ARC
5
431
100
AcDbEntity
8
0
6
DOT2
62
256
370
-1
100
AcDbCircle
10
4.42600000021
20
106.782000003
40
3.95284707521
100
AcDbArc
50
18.4349488229
51
55.3048464688
0
ARC
5
432
100
AcDbEntity
8
0
6
DOT2
62
256
370
-1
100
AcDbCircle
10
43.9260000002
20
106.782000003
40
3.95284707521
100
AcDbArc
50
124.695153531
51
161.565051177
0
ARC
5
433
100
AcDbEntity
8
0
6
DOT2
62
256
370
-1
100
AcDbCircle
10
8.55100000021
20
112.219500003
40
2.8811076429
100
AcDbArc
50
183.731396999
51
229.398705355
0
ARC
5
434
100
AcDbEntity
8
0
6
DOT2
62
256
370
-1
100
AcDbCircle
10
39.8010000002
20
112.219500003
40
2.8811076429
100
AcDbArc
50
310.601294645
51
356.268603001
0
LINE
5
435
100
AcDbEntity
8
0
6
DOT2
62
256
370
-1
100
AcDbLine
10
42.6760000002
20
112.032000003
11
42.6760000002
21
125.958980712
0
LINE
5
436
100
AcDbEntity
8
0
6
DOT2
62
256
370
-1
100
AcDbLine
10
5.67600000021
20
112.032000003
11
5.67600000021
21
125.92166097
0
ARC
5
437
100
AcDbEntity
8
0
6
DOT2
62
256
370
-1
100
AcDbCircle
10
24.1891578952
20
112.895157898
40
22.6368460157
100
AcDbArc
50
90.0340559753
51
144.868445504
0
ARC
5
438
100
AcDbEntity
8
0
6
DOT2
62
256
370
-1
100
AcDbCircle
10
24.1628421052
20
112.895157898
40
22.6368460157
100
AcDbArc
50
35.1315544959
51
89.9659440248
0
LINE
5
439
100
AcDbEntity
8
0
6
ByLayer
62
256
370
-1
100
AcDbLine
10
15.6760000005
20
108.032000003
11
15.6760000005
21
135.032000003
0
LINE
5
43A
100
AcDbEntity
8
0
6
ByLayer
62
256
370
-1
100
AcDbLine
10
15.6760000005
20
135.032000003
11
18.1760000005
21
135.032000003
0
LINE
5
43B
100
AcDbEntity
8
0
6
ByLayer
62
256
370
-1
100
AcDbLine
10
18.1760000005
20
135.032000003
11
18.1760000005
21
108.032000003
0
LINE
5
43C
100
AcDbEntity
8
0
6
ByLayer
62
256
370
-1
100
AcDbLine
10
30.1760000005
20
108.032000003
11
30.1760000005
21
135.032000003
0
LINE
5
43D
100
AcDbEntity
8
0
6
ByLayer
62
256
370
-1
100
AcDbLine
10
30.1760000005
20
135.032000003
11
32.6760000005
21
135.032000003
0
LINE
5
43E
100
AcDbEntity
8
0
6
ByLayer
62
256
370
-1
100
AcDbLine
10
32.6760000005
20
135.032000003
11
32.6760000005
21
108.032000003
0
ARC
5
43F
100
AcDbEntity
8
text
6
ByLayer
62
256
370
-1
100
AcDbCircle
10
24.1835245045
20
107.946826626
40
3
100
AcDbArc
50
0
51
180
0
ARC
5
440
100
AcDbEntity
8
text
6
ByLayer
62
256
370
-1
100
AcDbCircle
10
24.1835245045
20
107.946826626
40
5
100
AcDbArc
50
0
51
180
0
LINE
5
441
100
AcDbEntity
8
0
6
ByLayer
62
256
370
-1
100
AcDbLine
10
15.9260000005
20
110.532000003
11
15.9260000005
21
113.532000003
0
LINE
5
442
100
AcDbEntity
8
0
6
ByLayer
62
256
370
-1
100
AcDbLine
10
15.9260000005
20
113.532000003
11
17.9260000005
21
113.532000003
0
LINE
5
443
100
AcDbEntity
8
0
6
ByLayer
62
256
370
-1
100
AcDbLine
10
17.9260000005
20
113.532000003
11
17.9260000005
21
110.532000003
0
LINE
5
444
100
AcDbEntity
8
0
6
ByLayer
62
256
370
-1
100
AcDbLine
10
17.9260000005
20
110.532000003
11
15.9260000005
21
110.532000003
0
LINE
5
445
100
AcDbEntity
8
0
6
ByLayer
62
256
370
-1
100
AcDbLine
10
15.9260000005
20
110.532000003
11
17.9260000005
21
113.532000003
0
LINE
5
446
100
AcDbEntity
8
0
6
ByLayer
62
256
370
-1
100
AcDbLine
10
15.9260000005
20
113.532000003
11
17.9260000005
21
110.532000003
0
LINE
5
447
100
AcDbEntity
8
0
6
ByLayer
62
256
370
-1
100
AcDbLine
10
30.4260000005
20
113.532000003
11
32.4260000005
21
113.532000003
0
LINE
5
448
100
AcDbEntity
8
0
6
ByLayer
62
256
370
-1
100
AcDbLine
10
32.4260000005
20
113.532000003
11
32.4260000005
21
110.532000003
0
LINE
5
449
100
AcDbEntity
8
0
6
ByLayer
62
256
370
-1
100
AcDbLine
10
32.4260000005
20
110.532000003
11
30.4260000005
21
110.532000003
0
LINE
5
44A
100
AcDbEntity
8
0
6
ByLayer
62
256
370
-1
100
AcDbLine
10
30.4260000005
20
110.532000003
11
30.4260000005
21
113.532000003
0
LINE
5
44B
100
AcDbEntity
8
0
6
ByLayer
62
256
370
-1
100
AcDbLine
10
30.4260000005
20
113.532000003
11
32.4260000005
21
110.532000003
0
LINE
5
44C
100
AcDbEntity
8
0
6
ByLayer
62
256
370
-1
100
AcDbLine
10
30.4260000005
20
110.532000003
11
32.4260000005
21
113.532000003
0
LINE
5
44D
100
AcDbEntity
8
0
6
ByLayer
62
256
370
-1
100
AcDbLine
10
15.9260000005
20
116.532000003
11
17.9260000005
21
116.532000003
0
LINE
5
44E
100
AcDbEntity
8
0
6
ByLayer
62
256
370
-1
100
AcDbLine
10
17.9260000005
20
116.532000003
11
17.9260000005
21
119.532000003
0
LINE
5
44F
100
AcDbEntity
8
0
6
ByLayer
62
256
370
-1
100
AcDbLine
10
15.9260000005
20
116.532000003
11
15.9260000005
21
119.532000003
0
LINE
5
450
100
AcDbEntity
8
0
6
ByLayer
62
256
370
-1
100
AcDbLine
10
15.9260000005
20
119.532000003
11
17.9260000005
21
119.532000003
0
LINE
5
451
100
AcDbEntity
8
0
6
ByLayer
62
256
370
-1
100
AcDbLine
10
17.9260000005
20
119.532000003
11
15.9260000005
21
116.532000003
0
LINE
5
452
100
AcDbEntity
8
0
6
ByLayer
62
256
370
-1
100
AcDbLine
10
15.9260000005
20
116.532000003
11
17.9260000005
21
116.532000003
0
LINE
5
453
100
AcDbEntity
8
0
6
ByLayer
62
256
370
-1
100
AcDbLine
10
17.9260000005
20
116.532000003
11
15.9260000005
21
119.532000003
0
LINE
5
454
100
AcDbEntity
8
0
6
ByLayer
62
256
370
-1
100
AcDbLine
10
32.4260000005
20
116.532000003
11
32.4260000005
21
119.532000003
0
LINE
5
455
100
AcDbEntity
8
0
6
ByLayer
62
256
370
-1
100
AcDbLine
10
32.4260000005
20
119.532000003
11
30.4260000005
21
119.532000003
0
LINE
5
456
100
AcDbEntity
8
0
6
ByLayer
62
256
370
-1
100
AcDbLine
10
30.4260000005
20
119.532000003
11
30.4260000005
21
116.532000003
0
LINE
5
457
100
AcDbEntity
8
0
6
ByLayer
62
256
370
-1
100
AcDbLine
10
30.4260000005
20
116.532000003
11
32.4260000005
21
116.532000003
0
LINE
5
458
100
AcDbEntity
8
0
6
ByLayer
62
256
370
-1
100
AcDbLine
10
32.4260000005
20
116.532000003
11
30.4260000005
21
119.532000003
0
LINE
5
459
100
AcDbEntity
8
0
6
ByLayer
62
256
370
-1
100
AcDbLine
10
32.4260000005
20
119.532000003
11
30.4260000005
21
116.532000003
0
LINE
5
45A
100
AcDbEntity
8
0
6
ByLayer
62
256
370
-1
100
AcDbLine
10
15.9260000005
20
124.032000003
11
17.9260000005
21
124.032000003
0
LINE
5
45B
100
AcDbEntity
8
0
6
ByLayer
62
256
370
-1
100
AcDbLine
10
15.9260000005
20
124.032000003
11
15.9260000005
21
127.032000003
0
LINE
5
45C
100
AcDbEntity
8
0
6
ByLayer
62
256
370
-1
100
AcDbLine
10
15.9260000005
20
127.032000003
11
17.9260000005
21
127.032000003
0
LINE
5
45D
100
AcDbEntity
8
0
6
ByLayer
62
256
370
-1
100
AcDbLine
10
17.9260000005
20
127.032000003
11
17.9260000005
21
124.032000003
0
LINE
5
45E
100
AcDbEntity
8
0
6
ByLayer
62
256
370
-1
100
AcDbLine
10
17.9260000005
20
124.032000003
11
15.9260000005
21
127.032000003
0
LINE
5
45F
100
AcDbEntity
8
0
6
ByLayer
62
256
370
-1
100
AcDbLine
10
17.9260000005
20
127.032000003
11
15.9260000005
21
124.032000003
0
LINE
5
460
100
AcDbEntity
8
0
6
ByLayer
62
256
370
-1
100
AcDbLine
10
30.4260000005
20
124.032000003
11
32.4260000005
21
124.032000003
0
LINE
5
461
100
AcDbEntity
8
0
6
ByLayer
62
256
370
-1
100
AcDbLine
10
32.4260000005
20
124.032000003
11
32.4260000005
21
127.032000003
0
LINE
5
462
100
AcDbEntity
8
0
6
ByLayer
62
256
370
-1
100
AcDbLine
10
32.4260000005
20
127.032000003
11
30.4260000005
21
127.032000003
0
LINE
5
463
100
AcDbEntity
8
0
6
ByLayer
62
256
370
-1
100
AcDbLine
10
30.4260000005
20
127.032000003
11
30.4260000005
21
124.032000003
0
LINE
5
464
100
AcDbEntity
8
0
6
ByLayer
62
256
370
-1
100
AcDbLine
10
30.4260000005
20
124.032000003
11
32.4260000005
21
127.032000003
0
LINE
5
465
100
AcDbEntity
8
0
6
ByLayer
62
256
370
-1
100
AcDbLine
10
30.4260000005
20
127.032000003
11
32.4260000005
21
124.032000003
0
LINE
5
466
100
AcDbEntity
8
0
6
ByLayer
62
256
370
-1
100
AcDbLine
10
15.9260000005
20
130.032000003
11
17.9260000005
21
133.032000003
0
LINE
5
467
100
AcDbEntity
8
0
6
ByLayer
62
256
370
-1
100
AcDbLine
10
17.9260000005
20
133.032000003
11
15.9260000005
21
133.032000003
0
LINE
5
468
100
AcDbEntity
8
0
6
ByLayer
62
256
370
-1
100
AcDbLine
10
15.9260000005
20
133.032000003
11
17.9260000005
21
130.032000003
0
LINE
5
469
100
AcDbEntity
8
0
6
ByLayer
62
256
370
-1
100
AcDbLine
10
17.9260000005
20
130.032000003
11
15.9260000005
21
130.032000003
0
LINE
5
46A
100
AcDbEntity
8
0
6
ByLayer
62
256
370
-1
100
AcDbLine
10
15.9260000005
20
130.032000003
11
15.9260000005
21
133.032000003
0
LINE
5
46B
100
AcDbEntity
8
0
6
ByLayer
62
256
370
-1
100
AcDbLine
10
17.9260000005
20
133.032000003
11
17.9260000005
21
130.032000003
0
LINE
5
46C
100
AcDbEntity
8
0
6
ByLayer
62
256
370
-1
100
AcDbLine
10
30.4260000005
20
133.032000003
11
30.4260000005
21
130.032000003
0
LINE
5
46D
100
AcDbEntity
8
0
6
ByLayer
62
256
370
-1
100
AcDbLine
10
30.4260000005
20
130.032000003
11
32.4260000005
21
130.032000003
0
LINE
5
46E
100
AcDbEntity
8
0
6
ByLayer
62
256
370
-1
100
AcDbLine
10
32.4260000005
20
130.032000003
11
32.4260000005
21
133.032000003
0
LINE
5
46F
100
AcDbEntity
8
0
6
ByLayer
62
256
370
-1
100
AcDbLine
10
32.4260000005
20
133.032000003
11
30.4260000005
21
133.032000003
0
LINE
5
470
100
AcDbEntity
8
0
6
ByLayer
62
256
370
-1
100
AcDbLine
10
30.4260000005
20
133.032000003
11
32.4260000005
21
130.032000003
0
LINE
5
471
100
AcDbEntity
8
0
6
ByLayer
62
256
370
-1
100
AcDbLine
10
30.4260000005
20
130.032000003
11
32.4260000005
21
133.032000003
0
MTEXT
5
472
100
AcDbEntity
8
text
6
ByLayer
62
256
370
-1
100
AcDbMText
10
12.7500000003
20
141.250000004
30
0
40
1
41
8.08333384762
71
1
72
1
1
Female snap\Pconnector
7
standard
210
0
220
0
230
1
50
0
73
2
44
1
0
MTEXT
5
473
100
AcDbEntity
8
text
6
ByLayer
62
256
370
-1
100
AcDbMText
10
48.5000000013
20
125.750000003
30
0
40
1
41
10.8333333333
71
1
72
1
1
edge trim added
7
standard
210
0
220
0
230
1
50
0
73
2
44
1
0
MTEXT
5
474
100
AcDbEntity
8
text
6
ByLayer
62
256
370
-1
100
AcDbMText
10
17.9260000005
20
124.032000003
30
0
40
1
41
7.86111111111
71
1
72
1
1
D connector \Pattached
7
standard
210
0
220
0
230
1
50
0
73
2
44
1
0
DIMENSION
5
475
100
AcDbEntity
8
dimensions
6
ByLayer
62
256
370
-1
100
AcDbDimension
2
*D53
10
11.1736258563
20
110.532000003
30
0
11
9.2986258563
21
109.282000003
31
0
70
32
71
5
3
Standard
53
0
210
0
220
0
230
1
100
AcDbAlignedDimension
13
15.6760000005
23
108.032000003
33
0
14
15.9260000005
24
110.532000003
34
0
50
90
100
AcDbRotatedDimension
0
DIMENSION
5
476
100
AcDbEntity
8
dimensions
6
ByLayer
62
256
370
-1
100
AcDbDimension
2
*D54
10
22.6072985606
20
130.032000003
30
0
11
20.7322985606
21
128.532000003
31
0
70
32
71
5
3
Standard
53
0
210
0
220
0
230
1
100
AcDbAlignedDimension
13
17.9260000005
23
127.032000003
33
0
14
17.9260000005
24
130.032000003
34
0
50
90
100
AcDbRotatedDimension
0
DIMENSION
5
477
100
AcDbEntity
8
dimensions
6
ByLayer
62
256
370
-1
100
AcDbDimension
2
*D55
10
37.035704321
20
124.032000003
30
0
11
35.160704321
21
125.532000003
31
0
70
32
71
5
3
Standard
53
0
210
0
220
0
230
1
100
AcDbAlignedDimension
13
32.4260000005
23
127.032000003
33
0
14
32.4260000005
24
124.032000003
34
0
50
90
100
AcDbRotatedDimension
0
DIMENSION
5
478
100
AcDbEntity
8
dimensions
6
ByLayer
62
256
370
-1
100
AcDbDimension
2
*D56
10
37.035704321
20
116.532000003
30
0
11
35.160704321
21
115.032000003
31
0
70
32
71
5
3
Standard
53
0
210
0
220
0
230
1
100
AcDbAlignedDimension
13
32.4260000005
23
113.532000003
33
0
14
32.4260000005
24
116.532000003
34
0
50
90
100
AcDbRotatedDimension
0
DIMENSION
5
479
100
AcDbEntity
8
dimensions
6
ByLayer
62
256
370
-1
100
AcDbDimension
2
*D57
10
13.1197829124
20
124.032000003
30
0
11
11.2447829124
21
121.782000003
31
0
70
32
71
5
3
Standard
53
0
210
0
220
0
230
1
100
AcDbAlignedDimension
13
15.9260000005
23
119.532000003
33
0
14
15.9260000005
24
124.032000003
34
0
50
90
100
AcDbRotatedDimension
0
LINE
5
47A
100
AcDbEntity
8
0
6
ByLayer
62
256
370
-1
100
AcDbLine
10
110.75
20
74.5
11
141.75
21
74.5
0
LINE
5
47B
100
AcDbEntity
8
0
6
ByLayer
62
256
370
-1
100
AcDbLine
10
110.75
20
69.5
11
141.75
21
69.5
0
MTEXT
5
47C
100
AcDbEntity
8
text
6
ByLayer
62
256
370
-1
100
AcDbMText
10
126.25
20
74.5
30
0
40
1
41
5.77777777778
71
1
72
1
1
5 cm\Pweb\Preinforce
7
standard
210
0
220
0
230
1
50
0
73
2
44
1
0
DIMENSION
5
47D
100
AcDbEntity
8
dimensions
6
ByLayer
62
256
370
-1
100
AcDbDimension
2
*D58
10
82.0838400022
20
69.5
30
0
11
80.2088400022
21
88.5
31
0
70
32
71
5
3
Standard
53
0
210
0
220
0
230
1
100
AcDbAlignedDimension
13
110.75
23
107.5
33
0
14
110.75
24
69.5
34
0
50
90
100
AcDbRotatedDimension
0
LINE
5
47E
100
AcDbEntity
8
0
6
ByLayer
62
256
370
-1
100
AcDbLine
10
110.75
20
70.5
11
110.75
21
57.1678404338
0
LINE
5
47F
100
AcDbEntity
8
0
6
ByLayer
62
256
370
-1
100
AcDbLine
10
141.75
20
70.5
11
141.75
21
57.1678404338
0
ARC
5
480
100
AcDbEntity
8
0
6
ByLayer
62
256
370
-1
100
AcDbCircle
10
126.25
20
69
40
19.5
100
AcDbArc
50
217.356851973
51
322.643148027
0
LINE
5
481
100
AcDbEntity
8
0
6
DOT2
62
256
370
-1
100
AcDbLine
10
110.25
20
70.5
11
110.25
21
57
0
LINE
5
482
100
AcDbEntity
8
0
6
DOT2
62
256
370
-1
100
AcDbLine
10
142.25
20
70.5
11
142.25
21
57
0
ARC
5
483
100
AcDbEntity
8
0
6
DOT2
62
256
370
-1
100
AcDbCircle
10
126.25
20
69
40
20
100
AcDbArc
50
216.869897646
51
323.130102354
0
DIMENSION
5
484
100
AcDbEntity
8
dimensions
6
ByLayer
62
256
370
-1
100
AcDbDimension
2
*D59
10
142.25
20
40.1080320011
30
0
11
126.25
21
41.9830320011
31
0
70
32
71
5
3
Standard
53
0
210
0
220
0
230
1
100
AcDbAlignedDimension
13
110.25
23
57
33
0
14
142.25
24
57
34
0
100
AcDbRotatedDimension
0
DIMENSION
5
485
100
AcDbEntity
8
dimensions
6
ByLayer
62
256
370
-1
100
AcDbDimension
2
*D60
10
141.75
20
44.1712640012
30
0
11
126.25
21
46.0462640012
31
0
70
32
71
5
3
Standard
53
0
210
0
220
0
230
1
100
AcDbAlignedDimension
13
110.75
23
57.1678404338
33
0
14
141.75
24
57.1678404338
34
0
100
AcDbRotatedDimension
0
DIMENSION
5
486
100
AcDbEntity
8
dimensions
6
ByLayer
62
256
370
-1
100
AcDbDimension
2
*D61
10
101.580800003
20
69.5
30
0
11
99.7058000027
21
63.3339202169
31
0
70
32
71
5
3
Standard
53
0
210
0
220
0
230
1
100
AcDbAlignedDimension
13
110.75
23
57.1678404338
33
0
14
110.75
24
69.5
34
0
50
90
100
AcDbRotatedDimension
0
LINE
5
487
100
AcDbEntity
8
0
6
CONTINUOUS
62
256
370
-1
100
AcDbLine
10
9.31250000069
20
56.2500000015
11
41.3125000007
21
56.2500000015
0
ARC
5
488
100
AcDbEntity
8
0
6
ByLayer
62
256
370
-1
100
AcDbCircle
10
9.68750000069
20
60.4375000015
40
2.3811076429
100
AcDbArc
50
183.731396999
51
229.398705355
0
ARC
5
489
100
AcDbEntity
8
0
6
ByLayer
62
256
370
-1
100
AcDbCircle
10
5.56250000069
20
55.0000000015
40
4.45284707521
100
AcDbArc
50
18.4349488229
51
55.3048464688
0
ARC
5
48A
100
AcDbEntity
8
0
6
ByLayer
62
256
370
-1
100
AcDbCircle
10
45.0625000007
20
55.0000000015
40
4.45284707521
100
AcDbArc
50
124.695153531
51
161.565051177
0
ARC
5
48B
100
AcDbEntity
8
0
6
ByLayer
62
256
370
-1
100
AcDbCircle
10
40.9375000007
20
60.4375000015
40
2.3811076429
100
AcDbArc
50
310.601294645
51
356.268603001
0
LINE
5
48C
100
AcDbEntity
8
0
6
ByLayer
62
256
370
-1
100
AcDbLine
10
7.31250000069
20
60.2500000015
11
7.31250000069
21
73.9804067935
0
LINE
5
48D
100
AcDbEntity
8
0
6
ByLayer
62
256
370
-1
100
AcDbLine
10
43.3125000007
20
60.2500000015
11
43.3125000007
21
74.0171674515
0
ARC
5
48E
100
AcDbEntity
8
0
6
DOT2
62
256
370
-1
100
AcDbCircle
10
5.56250000069
20
55.0000000015
40
3.95284707521
100
AcDbArc
50
18.4349488229
51
55.3048464688
0
ARC
5
48F
100
AcDbEntity
8
0
6
DOT2
62
256
370
-1
100
AcDbCircle
10
45.0625000007
20
55.0000000015
40
3.95284707521
100
AcDbArc
50
124.695153531
51
161.565051177
0
ARC
5
490
100
AcDbEntity
8
0
6
DOT2
62
256
370
-1
100
AcDbCircle
10
9.68750000069
20
60.4375000015
40
2.8811076429
100
AcDbArc
50
183.731396999
51
229.398705355
0
ARC
5
491
100
AcDbEntity
8
0
6
DOT2
62
256
370
-1
100
AcDbCircle
10
40.9375000007
20
60.4375000015
40
2.8811076429
100
AcDbArc
50
310.601294645
51
356.268603001
0
LINE
5
492
100
AcDbEntity
8
0
6
DOT2
62
256
370
-1
100
AcDbLine
10
43.8125000007
20
60.2500000015
11
43.8125000007
21
74.1769807105
0
LINE
5
493
100
AcDbEntity
8
0
6
DOT2
62
256
370
-1
100
AcDbLine
10
6.81250000069
20
60.2500000015
11
6.81250000069
21
74.1396609685
0
ARC
5
494
100
AcDbEntity
8
0
6
DOT2
62
256
370
-1
100
AcDbCircle
10
25.3256578957
20
61.1131578965
40
22.6368460157
100
AcDbArc
50
90.0340559753
51
144.868445504
0
ARC
5
495
100
AcDbEntity
8
0
6
DOT2
62
256
370
-1
100
AcDbCircle
10
25.2993421057
20
61.1131578965
40
22.6368460157
100
AcDbArc
50
35.1315544959
51
89.9659440248
0
ARC
5
496
100
AcDbEntity
8
text
6
ByLayer
62
256
370
-1
100
AcDbCircle
10
25.320024505
20
56.1648266245
40
3
100
AcDbArc
50
0
51
180
0
ARC
5
497
100
AcDbEntity
8
text
6
ByLayer
62
256
370
-1
100
AcDbCircle
10
25.320024505
20
56.1648266245
40
5
100
AcDbArc
50
0
51
180
0
LINE
5
498
100
AcDbEntity
8
0
6
ByLayer
62
256
370
-1
100
AcDbLine
10
33.562500001
20
78.2500000015
11
33.562500001
21
81.2500000015
0
LINE
5
499
100
AcDbEntity
8
0
6
DOT2
62
256
370
-1
100
AcDbLine
10
16.812500001
20
56.2500000015
11
16.812500001
21
83.2500000015
0
LINE
5
49A
100
AcDbEntity
8
0
6
DOT2
62
256
370
-1
100
AcDbLine
10
19.312500001
20
83.2500000015
11
19.312500001
21
56.2500000015
0
LINE
5
49B
100
AcDbEntity
8
0
6
DOT2
62
256
370
-1
100
AcDbLine
10
31.312500001
20
56.2500000015
11
31.312500001
21
83.2500000015
0
LINE
5
49C
100
AcDbEntity
8
0
6
DOT2
62
256
370
-1
100
AcDbLine
10
33.812500001
20
83.2500000015
11
33.812500001
21
56.2500000015
0
LINE
5
49D
100
AcDbEntity
8
0
6
DOT2
62
256
370
-1
100
AcDbLine
10
17.062500001
20
58.7500000015
11
17.062500001
21
61.7500000015
0
LINE
5
49E
100
AcDbEntity
8
0
6
DOT2
62
256
370
-1
100
AcDbLine
10
17.062500001
20
61.7500000015
11
19.062500001
21
61.7500000015
0
LINE
5
49F
100
AcDbEntity
8
0
6
DOT2
62
256
370
-1
100
AcDbLine
10
19.062500001
20
61.7500000015
11
19.062500001
21
58.7500000015
0
LINE
5
4A0
100
AcDbEntity
8
0
6
DOT2
62
256
370
-1
100
AcDbLine
10
19.062500001
20
58.7500000015
11
17.062500001
21
58.7500000015
0
LINE
5
4A1
100
AcDbEntity
8
0
6
DOT2
62
256
370
-1
100
AcDbLine
10
17.062500001
20
58.7500000015
11
19.062500001
21
61.7500000015
0
LINE
5
4A2
100
AcDbEntity
8
0
6
DOT2
62
256
370
-1
100
AcDbLine
10
17.062500001
20
61.7500000015
11
19.062500001
21
58.7500000015
0
LINE
5
4A3
100
AcDbEntity
8
0
6
DOT2
62
256
370
-1
100
AcDbLine
10
31.562500001
20
61.7500000015
11
33.562500001
21
61.7500000015
0
LINE
5
4A4
100
AcDbEntity
8
0
6
DOT2
62
256
370
-1
100
AcDbLine
10
33.562500001
20
61.7500000015
11
33.562500001
21
58.7500000015
0
LINE
5
4A5
100
AcDbEntity
8
0
6
DOT2
62
256
370
-1
100
AcDbLine
10
33.562500001
20
58.7500000015
11
31.562500001
21
58.7500000015
0
LINE
5
4A6
100
AcDbEntity
8
0
6
DOT2
62
256
370
-1
100
AcDbLine
10
31.562500001
20
58.7500000015
11
31.562500001
21
61.7500000015
0
LINE
5
4A7
100
AcDbEntity
8
0
6
DOT2
62
256
370
-1
100
AcDbLine
10
31.562500001
20
61.7500000015
11
33.562500001
21
58.7500000015
0
LINE
5
4A8
100
AcDbEntity
8
0
6
DOT2
62
256
370
-1
100
AcDbLine
10
31.562500001
20
58.7500000015
11
33.562500001
21
61.7500000015
0
LINE
5
4A9
100
AcDbEntity
8
0
6
DOT2
62
256
370
-1
100
AcDbLine
10
17.062500001
20
64.7500000015
11
19.062500001
21
64.7500000015
0
LINE
5
4AA
100
AcDbEntity
8
0
6
DOT2
62
256
370
-1
100
AcDbLine
10
19.062500001
20
64.7500000015
11
19.062500001
21
67.7500000015
0
LINE
5
4AB
100
AcDbEntity
8
0
6
DOT2
62
256
370
-1
100
AcDbLine
10
17.062500001
20
64.7500000015
11
17.062500001
21
67.7500000015
0
LINE
5
4AC
100
AcDbEntity
8
0
6
DOT2
62
256
370
-1
100
AcDbLine
10
17.062500001
20
67.7500000015
11
19.062500001
21
67.7500000015
0
LINE
5
4AD
100
AcDbEntity
8
0
6
DOT2
62
256
370
-1
100
AcDbLine
10
19.062500001
20
67.7500000015
11
17.062500001
21
64.7500000015
0
LINE
5
4AE
100
AcDbEntity
8
0
6
DOT2
62
256
370
-1
100
AcDbLine
10
19.062500001
20
64.7500000015
11
17.062500001
21
67.7500000015
0
LINE
5
4AF
100
AcDbEntity
8
0
6
DOT2
62
256
370
-1
100
AcDbLine
10
33.562500001
20
64.7500000015
11
33.562500001
21
67.7500000015
0
LINE
5
4B0
100
AcDbEntity
8
0
6
DOT2
62
256
370
-1
100
AcDbLine
10
33.562500001
20
67.7500000015
11
31.562500001
21
67.7500000015
0
LINE
5
4B1
100
AcDbEntity
8
0
6
DOT2
62
256
370
-1
100
AcDbLine
10
31.562500001
20
67.7500000015
11
31.562500001
21
64.7500000015
0
LINE
5
4B2
100
AcDbEntity
8
0
6
DOT2
62
256
370
-1
100
AcDbLine
10
31.562500001
20
64.7500000015
11
33.562500001
21
64.7500000015
0
LINE
5
4B3
100
AcDbEntity
8
0
6
DOT2
62
256
370
-1
100
AcDbLine
10
33.562500001
20
64.7500000015
11
31.562500001
21
67.7500000015
0
LINE
5
4B4
100
AcDbEntity
8
0
6
DOT2
62
256
370
-1
100
AcDbLine
10
33.562500001
20
67.7500000015
11
31.562500001
21
64.7500000015
0
LINE
5
4B5
100
AcDbEntity
8
0
6
DOT2
62
256
370
-1
100
AcDbLine
10
17.062500001
20
72.2500000015
11
19.062500001
21
72.2500000015
0
LINE
5
4B6
100
AcDbEntity
8
0
6
DOT2
62
256
370
-1
100
AcDbLine
10
17.062500001
20
72.2500000015
11
17.062500001
21
75.2500000015
0
LINE
5
4B7
100
AcDbEntity
8
0
6
DOT2
62
256
370
-1
100
AcDbLine
10
17.062500001
20
75.2500000015
11
19.062500001
21
75.2500000015
0
LINE
5
4B8
100
AcDbEntity
8
0
6
DOT2
62
256
370
-1
100
AcDbLine
10
19.062500001
20
75.2500000015
11
19.062500001
21
72.2500000015
0
LINE
5
4B9
100
AcDbEntity
8
0
6
DOT2
62
256
370
-1
100
AcDbLine
10
19.062500001
20
72.2500000015
11
17.062500001
21
75.2500000015
0
LINE
5
4BA
100
AcDbEntity
8
0
6
DOT2
62
256
370
-1
100
AcDbLine
10
19.062500001
20
75.2500000015
11
17.062500001
21
72.2500000015
0
LINE
5
4BB
100
AcDbEntity
8
0
6
DOT2
62
256
370
-1
100
AcDbLine
10
31.562500001
20
72.2500000015
11
33.562500001
21
72.2500000015
0
LINE
5
4BC
100
AcDbEntity
8
0
6
DOT2
62
256
370
-1
100
AcDbLine
10
33.562500001
20
72.2500000015
11
33.562500001
21
75.2500000015
0
LINE
5
4BD
100
AcDbEntity
8
0
6
DOT2
62
256
370
-1
100
AcDbLine
10
33.562500001
20
75.2500000015
11
31.562500001
21
75.2500000015
0
LINE
5
4BE
100
AcDbEntity
8
0
6
DOT2
62
256
370
-1
100
AcDbLine
10
31.562500001
20
75.2500000015
11
31.562500001
21
72.2500000015
0
LINE
5
4BF
100
AcDbEntity
8
0
6
DOT2
62
256
370
-1
100
AcDbLine
10
31.562500001
20
72.2500000015
11
33.562500001
21
75.2500000015
0
LINE
5
4C0
100
AcDbEntity
8
0
6
DOT2
62
256
370
-1
100
AcDbLine
10
31.562500001
20
75.2500000015
11
33.562500001
21
72.2500000015
0
LINE
5
4C1
100
AcDbEntity
8
0
6
DOT2
62
256
370
-1
100
AcDbLine
10
17.062500001
20
78.2500000015
11
19.062500001
21
81.2500000015
0
LINE
5
4C2
100
AcDbEntity
8
0
6
DOT2
62
256
370
-1
100
AcDbLine
10
19.062500001
20
81.2500000015
11
17.062500001
21
81.2500000015
0
LINE
5
4C3
100
AcDbEntity
8
0
6
DOT2
62
256
370
-1
100
AcDbLine
10
17.062500001
20
81.2500000015
11
19.062500001
21
78.2500000015
0
LINE
5
4C4
100
AcDbEntity
8
0
6
DOT2
62
256
370
-1
100
AcDbLine
10
19.062500001
20
78.2500000015
11
17.062500001
21
78.2500000015
0
LINE
5
4C5
100
AcDbEntity
8
0
6
DOT2
62
256
370
-1
100
AcDbLine
10
17.062500001
20
78.2500000015
11
17.062500001
21
81.2500000015
0
LINE
5
4C6
100
AcDbEntity
8
0
6
DOT2
62
256
370
-1
100
AcDbLine
10
19.062500001
20
81.2500000015
11
19.062500001
21
78.2500000015
0
LINE
5
4C7
100
AcDbEntity
8
0
6
DOT2
62
256
370
-1
100
AcDbLine
10
31.562500001
20
81.2500000015
11
31.562500001
21
78.2500000015
0
LINE
5
4C8
100
AcDbEntity
8
0
6
DOT2
62
256
370
-1
100
AcDbLine
10
31.562500001
20
78.2500000015
11
33.562500001
21
78.2500000015
0
LINE
5
4C9
100
AcDbEntity
8
0
6
DOT2
62
256
370
-1
100
AcDbLine
10
33.562500001
20
81.2500000015
11
31.562500001
21
81.2500000015
0
LINE
5
4CA
100
AcDbEntity
8
0
6
DOT2
62
256
370
-1
100
AcDbLine
10
31.562500001
20
81.2500000015
11
33.562500001
21
78.2500000015
0
LINE
5
4CB
100
AcDbEntity
8
0
6
DOT2
62
256
370
-1
100
AcDbLine
10
31.562500001
20
78.2500000015
11
33.562500001
21
81.2500000015
0
LINE
5
4CC
100
AcDbEntity
8
0
6
DOT2
62
256
370
-1
100
AcDbLine
10
16.812500001
20
83.2500000015
11
19.312500001
21
83.2500000015
0
LINE
5
4CD
100
AcDbEntity
8
0
6
DOT2
62
256
370
-1
100
AcDbLine
10
31.312500001
20
83.2500000015
11
33.812500001
21
83.2500000015
0
LINE
5
4CE
100
AcDbEntity
8
0
6
ByLayer
62
256
370
-1
100
AcDbLine
10
36.4315910542
20
56.2500000015
11
42.7827837494
21
85.1777711972
0
LINE
5
4CF
100
AcDbEntity
8
0
6
ByLayer
62
256
370
-1
100
AcDbLine
10
42.7827837494
20
85.1777711972
11
37.8991042563
21
86.2500000015
0
LINE
5
4D0
100
AcDbEntity
8
0
6
ByLayer
62
256
370
-1
100
AcDbLine
10
37.8991042563
20
86.2500000015
11
31.312500001
21
56.2500000015
0
LINE
5
4D1
100
AcDbEntity
8
0
6
ByLayer
62
256
370
-1
100
AcDbLine
10
19.312500001
20
56.2500000015
11
12.5946006917
21
86.2500000015
0
LINE
5
4D2
100
AcDbEntity
8
0
6
ByLayer
62
256
370
-1
100
AcDbLine
10
12.5946006917
20
86.2500000015
11
7.71543636105
21
85.1574088453
0
LINE
5
4D3
100
AcDbEntity
8
0
6
ByLayer
62
256
370
-1
100
AcDbLine
10
7.71543636105
20
85.1574088453
11
14.1886717579
21
56.2500000015
0
ARC
5
4D4
100
AcDbEntity
8
0
6
ByLayer
62
256
370
-1
100
AcDbCircle
10
25.3256578957
20
61.1131578965
40
22.1368460157
100
AcDbArc
50
135.233814405
51
144.460832017
0
ARC
5
4D5
100
AcDbEntity
8
0
6
ByLayer
62
256
370
-1
100
AcDbCircle
10
25.3256578957
20
61.1131578965
40
22.1368460157
100
AcDbArc
50
90.0340559753
51
120.866747945
0
ARC
5
4D6
100
AcDbEntity
8
0
6
ByLayer
62
256
370
-1
100
AcDbCircle
10
25.2993421057
20
61.1131578965
40
22.1368460157
100
AcDbArc
50
59.4114263364
51
89.9659440248
0
ARC
5
4D7
100
AcDbEntity
8
0
6
ByLayer
62
256
370
-1
100
AcDbCircle
10
25.2993421057
20
61.1131578965
40
22.1368460157
100
AcDbArc
50
35.5391679834
51
45.0493477263
0
ARC
5
4D8
100
AcDbEntity
8
0
6
DOT2
62
256
370
-1
100
AcDbCircle
10
25.3256578957
20
61.1131578965
40
22.1368460157
100
AcDbArc
50
120.866747945
51
135.233814405
0
ARC
5
4D9
100
AcDbEntity
8
0
6
DOT2
62
256
370
-1
100
AcDbCircle
10
25.2993421057
20
61.1131578965
40
22.1368460157
100
AcDbArc
50
45.0493477263
51
59.4114263364
0
LINE
5
4DA
100
AcDbEntity
8
0
6
ByLayer
62
256
370
-1
100
AcDbLine
10
7.71543636105
20
85.1574088453
11
8.60745009684
21
86.8943059335
0
LINE
5
4DB
100
AcDbEntity
8
0
6
ByLayer
62
256
370
-1
100
AcDbLine
10
8.60745009684
20
86.8943059335
11
11.0470322622
21
87.4406015116
0
LINE
5
4DC
100
AcDbEntity
8
0
6
ByLayer
62
256
370
-1
100
AcDbLine
10
11.0470322622
20
87.4406015116
11
12.5946006917
21
86.2500000015
0
LINE
5
4DD
100
AcDbEntity
8
0
6
ByLayer
62
256
370
-1
100
AcDbLine
10
37.8991042563
20
86.2500000015
11
39.4416927709
21
87.4470466483
0
LINE
5
4DE
100
AcDbEntity
8
0
6
ByLayer
62
256
370
-1
100
AcDbLine
10
39.4416927709
20
87.4470466483
11
41.8835325174
21
86.9109322462
0
LINE
5
4DF
100
AcDbEntity
8
0
6
ByLayer
62
256
370
-1
100
AcDbLine
10
41.8835325174
20
86.9109322462
11
42.7827837494
21
85.1777711972
0
LINE
5
4E0
100
AcDbEntity
8
0
6
ByLayer
62
256
370
-1
100
AcDbLine
10
8.60745009684
20
86.8943059335
11
8.17041363436
21
88.8459716658
0
LINE
5
4E1
100
AcDbEntity
8
0
6
ByLayer
62
256
370
-1
100
AcDbLine
10
8.17041363436
20
88.8459716658
11
10.6099957997
21
89.3922672439
0
LINE
5
4E2
100
AcDbEntity
8
0
6
ByLayer
62
256
370
-1
100
AcDbLine
10
10.6099957997
20
89.3922672439
11
11.0470322622
21
87.4406015116
0
LINE
5
4E3
100
AcDbEntity
8
0
6
ByLayer
62
256
370
-1
100
AcDbLine
10
39.4416927709
20
87.4470466483
11
39.8705842926
21
89.4005184456
0
LINE
5
4E4
100
AcDbEntity
8
0
6
ByLayer
62
256
370
-1
100
AcDbLine
10
39.8705842926
20
89.4005184456
11
42.3124240392
21
88.8644040434
0
LINE
5
4E5
100
AcDbEntity
8
0
6
ByLayer
62
256
370
-1
100
AcDbLine
10
42.3124240392
20
88.8644040434
11
41.8835325174
21
86.9109322462
0
MTEXT
5
4E6
100
AcDbEntity
8
text
6
ByLayer
62
256
370
-1
100
AcDbMText
10
3.00000000008
20
50.0000000013
30
0
40
2
41
52.4444465016
71
1
72
1
1
configuration of backpack main straps
7

210
0
220
0
230
1
50
0
73
2
44
1
0
MTEXT
5
4E7
100
AcDbEntity
8
text
6
ByLayer
62
256
370
-1
100
AcDbMText
10
278.515625008
20
54.2968750015
30
0
40
2
41
38.6674286107
71
1
72
1
1
side of backpack back panel
7

210
0
220
0
230
1
50
0
73
2
44
1
0
MTEXT
5
4E8
100
AcDbEntity
8
text
6
ByLayer
62
256
370
-1
100
AcDbMText
10
398.560000011
20
64.6400000017
30
0
40
2
41
38.6674286107
71
1
72
1
1
side of backpack back panel
7

210
0
220
0
230
1
50
0
73
2
44
1
0
MTEXT
5
4E9
100
AcDbEntity
8
text
6
ByLayer
62
256
370
-1
100
AcDbMText
10
276.200000007
20
-11.8000000003
30
0
40
2
41
28.7229851948
71
1
72
1
1
side pockets - detail
7

210
0
220
0
230
1
50
0
73
2
44
1
0
DIMENSION
5
4EA
100
AcDbEntity
8
dimensions
6
ByLayer
62
256
370
-1
100
AcDbDimension
2
*D62
10
381.802389904
20
117.956863641
30
0
11
378.561348167
21
118.74944078
31
0
70
33
71
5
3
Standard
53
0
210
0
220
0
230
1
100
AcDbAlignedDimension
13
378.99730945
23
109.681049603
33
0
14
384.169198797
24
111.609567386
34
0
0
DIMENSION
5
4EB
100
AcDbEntity
8
dimensions
6
ByLayer
62
256
370
-1
100
AcDbDimension
2
*D63
10
398.036355297
20
122.945957959
30
0
11
393.721671959
21
123.895113869
31
0
70
33
71
5
3
Standard
53
0
210
0
220
0
230
1
100
AcDbAlignedDimension
13
391.837798057
23
114.064186109
33
0
14
399.642285266
24
115.824025989
34
0
0
ENDSEC
0
SECTION
2
OBJECTS
0
DICTIONARY
5
C
330
0
100
AcDbDictionary
281
1
3
ACAD_GROUP
350
D
0
DICTIONARY
5
D
330
C
100
AcDbDictionary
281
1
0
ENDSEC
0
EOF
